%FSLAX45Y45*%
G04 Gerber Fmt 4.5, Leading zero omitted, Abs format (unit mm)*
G04 Created by KiCad (PCBNEW (5.1.9)-1) date 2021-06-02 00:30:13*
%MOMM*%
%LPD*%
G01*
G04 APERTURE LIST*
%TA.AperFunction,Profile*%
%ADD10C,0.050000*%
%TD*%
%ADD11C,0.200000*%
%ADD12C,0.300000*%
G04 APERTURE END LIST*
D10*
X23850000Y-14170000D02*
X6150000Y-14170000D01*
X23850000Y-3170000D02*
X6150000Y-3170000D01*
X23850000Y-14170000D02*
X23850000Y-3170000D01*
X6150000Y-3170000D02*
X6150000Y-14170000D01*
D11*
X6977001Y-12712260D02*
X7007001Y-12742260D01*
X7007001Y-12712260D02*
X6977001Y-12742260D01*
X7052184Y-12878884D02*
X7082184Y-12908884D01*
X7082184Y-12878884D02*
X7052184Y-12908884D01*
X7098637Y-12799128D02*
X7128637Y-12829128D01*
X7128637Y-12799128D02*
X7098637Y-12829128D01*
X7104000Y-12110280D02*
X7134000Y-12140280D01*
X7134000Y-12110280D02*
X7104000Y-12140280D01*
X7104000Y-12382060D02*
X7134000Y-12412060D01*
X7134000Y-12382060D02*
X7104000Y-12412060D01*
X7158372Y-6544140D02*
X7188372Y-6574140D01*
X7188372Y-6544140D02*
X7158372Y-6574140D01*
X7167500Y-12003600D02*
X7197500Y-12033600D01*
X7197500Y-12003600D02*
X7167500Y-12033600D01*
X7200520Y-6631500D02*
X7230520Y-6661500D01*
X7230520Y-6631500D02*
X7200520Y-6661500D01*
X7230490Y-12840528D02*
X7260490Y-12870528D01*
X7260490Y-12840528D02*
X7230490Y-12870528D01*
X7231000Y-12069641D02*
X7261000Y-12099641D01*
X7261000Y-12069641D02*
X7231000Y-12099641D01*
X7252336Y-10890318D02*
X7282336Y-10920318D01*
X7282336Y-10890318D02*
X7252336Y-10920318D01*
X7307200Y-12763060D02*
X7337200Y-12793060D01*
X7337200Y-12763060D02*
X7307200Y-12793060D01*
X7333870Y-10892096D02*
X7363870Y-10922096D01*
X7363870Y-10892096D02*
X7333870Y-10922096D01*
X7352920Y-8864160D02*
X7382920Y-8894160D01*
X7382920Y-8864160D02*
X7352920Y-8894160D01*
X7408800Y-12714800D02*
X7438800Y-12744800D01*
X7438800Y-12714800D02*
X7408800Y-12744800D01*
X7446796Y-8842438D02*
X7476796Y-8872438D01*
X7476796Y-8842438D02*
X7446796Y-8872438D01*
X7484492Y-12810812D02*
X7514492Y-12840812D01*
X7514492Y-12810812D02*
X7484492Y-12840812D01*
X7611492Y-12780492D02*
X7641492Y-12810492D01*
X7641492Y-12780492D02*
X7611492Y-12810492D01*
X7612000Y-13324400D02*
X7642000Y-13354400D01*
X7642000Y-13324400D02*
X7612000Y-13354400D01*
X7634860Y-12133140D02*
X7664860Y-12163140D01*
X7664860Y-12133140D02*
X7634860Y-12163140D01*
X7722490Y-6964494D02*
X7752490Y-6994494D01*
X7752490Y-6964494D02*
X7722490Y-6994494D01*
X7791070Y-12800398D02*
X7821070Y-12830398D01*
X7821070Y-12800398D02*
X7791070Y-12830398D01*
X7800722Y-11022906D02*
X7830722Y-11052906D01*
X7830722Y-11022906D02*
X7800722Y-11052906D01*
X7865746Y-12878630D02*
X7895746Y-12908630D01*
X7895746Y-12878630D02*
X7865746Y-12908630D01*
X7924674Y-9089204D02*
X7954674Y-9119204D01*
X7954674Y-9089204D02*
X7924674Y-9119204D01*
X7952360Y-11907080D02*
X7982360Y-11937080D01*
X7982360Y-11907080D02*
X7952360Y-11937080D01*
X8039228Y-12558590D02*
X8069228Y-12588590D01*
X8069228Y-12558590D02*
X8039228Y-12588590D01*
X8254620Y-11907080D02*
X8284620Y-11937080D01*
X8284620Y-11907080D02*
X8254620Y-11937080D01*
X8305420Y-12969308D02*
X8335420Y-12999308D01*
X8335420Y-12969308D02*
X8305420Y-12999308D01*
X8308722Y-12130600D02*
X8338722Y-12160600D01*
X8338722Y-12130600D02*
X8308722Y-12160600D01*
X8684642Y-8866192D02*
X8714642Y-8896192D01*
X8714642Y-8866192D02*
X8684642Y-8896192D01*
X8687944Y-8389434D02*
X8717944Y-8419434D01*
X8717944Y-8389434D02*
X8687944Y-8419434D01*
X8703692Y-9115112D02*
X8733692Y-9145112D01*
X8733692Y-9115112D02*
X8703692Y-9145112D01*
X8832470Y-8385370D02*
X8862470Y-8415370D01*
X8862470Y-8385370D02*
X8832470Y-8415370D01*
X8876666Y-8578918D02*
X8906666Y-8608918D01*
X8906666Y-8578918D02*
X8876666Y-8608918D01*
X9024240Y-12018840D02*
X9054240Y-12048840D01*
X9054240Y-12018840D02*
X9024240Y-12048840D01*
X9136001Y-11851200D02*
X9166001Y-11881200D01*
X9166001Y-11851200D02*
X9136001Y-11881200D01*
X9228456Y-8459030D02*
X9258456Y-8489030D01*
X9258456Y-8459030D02*
X9228456Y-8489030D01*
X9238630Y-8553504D02*
X9268630Y-8583504D01*
X9268630Y-8553504D02*
X9238630Y-8583504D01*
X9289162Y-10715566D02*
X9319162Y-10745566D01*
X9319162Y-10715566D02*
X9289162Y-10745566D01*
X9289953Y-10169212D02*
X9319953Y-10199212D01*
X9319953Y-10169212D02*
X9289953Y-10199212D01*
X9320658Y-11754426D02*
X9350658Y-11784426D01*
X9350658Y-11754426D02*
X9320658Y-11784426D01*
X9341740Y-11614980D02*
X9371740Y-11644980D01*
X9371740Y-11614980D02*
X9341740Y-11644980D01*
X9374774Y-10548702D02*
X9404774Y-10578702D01*
X9404774Y-10548702D02*
X9374774Y-10578702D01*
X9435000Y-11045000D02*
X9465000Y-11075000D01*
X9465000Y-11045000D02*
X9435000Y-11075000D01*
X9466200Y-8231700D02*
X9496200Y-8261700D01*
X9496200Y-8231700D02*
X9466200Y-8261700D01*
X9504300Y-8099620D02*
X9534300Y-8129620D01*
X9534300Y-8099620D02*
X9504300Y-8129620D01*
X9560180Y-8249480D02*
X9590180Y-8279480D01*
X9590180Y-8249480D02*
X9560180Y-8279480D01*
X9575166Y-11563926D02*
X9605166Y-11593926D01*
X9605166Y-11563926D02*
X9575166Y-11593926D01*
X9624188Y-8062565D02*
X9654188Y-8092565D01*
X9654188Y-8062565D02*
X9624188Y-8092565D01*
X9638666Y-8221794D02*
X9668666Y-8251794D01*
X9668666Y-8221794D02*
X9638666Y-8251794D01*
X9644508Y-10729028D02*
X9674508Y-10759028D01*
X9674508Y-10729028D02*
X9644508Y-10759028D01*
X9644508Y-11363012D02*
X9674508Y-11393012D01*
X9674508Y-11363012D02*
X9644508Y-11393012D01*
X9647556Y-11906318D02*
X9677556Y-11936318D01*
X9677556Y-11906318D02*
X9647556Y-11936318D01*
X9647556Y-12832656D02*
X9677556Y-12862656D01*
X9677556Y-12832656D02*
X9647556Y-12862656D01*
X9709024Y-11969789D02*
X9739024Y-11999789D01*
X9739024Y-11969789D02*
X9709024Y-11999789D01*
X9777350Y-8864922D02*
X9807350Y-8894922D01*
X9807350Y-8864922D02*
X9777350Y-8894922D01*
X9801480Y-8094540D02*
X9831480Y-8124540D01*
X9831480Y-8094540D02*
X9801480Y-8124540D01*
X9821800Y-8787960D02*
X9851800Y-8817960D01*
X9851800Y-8787960D02*
X9821800Y-8817960D01*
X9891000Y-11439000D02*
X9921000Y-11469000D01*
X9921000Y-11439000D02*
X9891000Y-11469000D01*
X9900257Y-10794052D02*
X9930257Y-10824052D01*
X9930257Y-10794052D02*
X9900257Y-10824052D01*
X9900257Y-10887778D02*
X9930257Y-10917778D01*
X9930257Y-10887778D02*
X9900257Y-10917778D01*
X9900257Y-10984298D02*
X9930257Y-11014298D01*
X9930257Y-10984298D02*
X9900257Y-11014298D01*
X9903080Y-8043740D02*
X9933080Y-8073740D01*
X9933080Y-8043740D02*
X9903080Y-8073740D01*
X9907000Y-11166000D02*
X9937000Y-11196000D01*
X9937000Y-11166000D02*
X9907000Y-11196000D01*
X9925000Y-11267000D02*
X9955000Y-11297000D01*
X9955000Y-11267000D02*
X9925000Y-11297000D01*
X9941180Y-7965000D02*
X9971180Y-7995000D01*
X9971180Y-7965000D02*
X9941180Y-7995000D01*
X9946260Y-10057452D02*
X9976260Y-10087452D01*
X9976260Y-10057452D02*
X9946260Y-10087452D01*
X9963786Y-9716330D02*
X9993786Y-9746330D01*
X9993786Y-9716330D02*
X9963786Y-9746330D01*
X9964040Y-12219754D02*
X9994040Y-12249754D01*
X9994040Y-12219754D02*
X9964040Y-12249754D01*
X9994854Y-7426186D02*
X10024854Y-7456186D01*
X10024854Y-7426186D02*
X9994854Y-7456186D01*
X10012300Y-9584250D02*
X10042300Y-9614250D01*
X10042300Y-9584250D02*
X10012300Y-9614250D01*
X10012779Y-8983284D02*
X10042779Y-9013284D01*
X10042779Y-8983284D02*
X10012779Y-9013284D01*
X10012779Y-10337360D02*
X10042779Y-10367360D01*
X10042779Y-10337360D02*
X10012779Y-10367360D01*
X10017610Y-7849746D02*
X10047610Y-7879746D01*
X10047610Y-7849746D02*
X10017610Y-7879746D01*
X10035160Y-7176330D02*
X10065160Y-7206330D01*
X10065160Y-7176330D02*
X10035160Y-7206330D01*
X10047860Y-8789230D02*
X10077860Y-8819230D01*
X10077860Y-8789230D02*
X10047860Y-8819230D01*
X10068180Y-11528620D02*
X10098180Y-11558620D01*
X10098180Y-11528620D02*
X10068180Y-11558620D01*
X10069450Y-7056950D02*
X10099450Y-7086950D01*
X10099450Y-7056950D02*
X10069450Y-7086950D01*
X10095612Y-11776748D02*
X10125612Y-11806748D01*
X10125612Y-11776748D02*
X10095612Y-11806748D01*
X10146920Y-11851200D02*
X10176920Y-11881200D01*
X10176920Y-11851200D02*
X10146920Y-11881200D01*
X10156050Y-7516930D02*
X10186050Y-7546930D01*
X10186050Y-7516930D02*
X10156050Y-7546930D01*
X10162160Y-7324920D02*
X10192160Y-7354920D01*
X10192160Y-7324920D02*
X10162160Y-7354920D01*
X10164700Y-11165400D02*
X10194700Y-11195400D01*
X10194700Y-11165400D02*
X10164700Y-11195400D01*
X10176897Y-11432625D02*
X10206897Y-11462625D01*
X10206897Y-11432625D02*
X10176897Y-11462625D01*
X10198990Y-11725470D02*
X10228990Y-11755470D01*
X10228990Y-11725470D02*
X10198990Y-11755470D01*
X10202800Y-7253800D02*
X10232800Y-7283800D01*
X10232800Y-7253800D02*
X10202800Y-7283800D01*
X10206610Y-8163120D02*
X10236610Y-8193120D01*
X10236610Y-8163120D02*
X10206610Y-8193120D01*
X10225406Y-12330244D02*
X10255406Y-12360244D01*
X10255406Y-12330244D02*
X10225406Y-12360244D01*
X10235820Y-7484940D02*
X10265820Y-7514940D01*
X10265820Y-7484940D02*
X10235820Y-7514940D01*
X10237344Y-11027732D02*
X10267344Y-11057732D01*
X10267344Y-11027732D02*
X10237344Y-11057732D01*
X10395840Y-6118420D02*
X10425840Y-6148420D01*
X10425840Y-6118420D02*
X10395840Y-6148420D01*
X10617582Y-6894390D02*
X10647582Y-6924390D01*
X10647582Y-6894390D02*
X10617582Y-6924390D01*
X10687940Y-6816920D02*
X10717940Y-6846920D01*
X10717940Y-6816920D02*
X10687940Y-6846920D01*
X10693020Y-6720400D02*
X10723020Y-6750400D01*
X10723020Y-6720400D02*
X10693020Y-6750400D01*
X10896220Y-6326700D02*
X10926220Y-6356700D01*
X10926220Y-6326700D02*
X10896220Y-6356700D01*
X10904000Y-6226100D02*
X10934000Y-6256100D01*
X10934000Y-6226100D02*
X10904000Y-6256100D01*
X10904680Y-6119420D02*
X10934680Y-6149420D01*
X10934680Y-6119420D02*
X10904680Y-6149420D01*
X11946256Y-7454206D02*
X11976256Y-7484206D01*
X11976256Y-7454206D02*
X11946256Y-7484206D01*
X11969878Y-11380284D02*
X11999878Y-11410284D01*
X11999878Y-11380284D02*
X11969878Y-11410284D01*
X12112118Y-7670614D02*
X12142118Y-7700614D01*
X12142118Y-7670614D02*
X12112118Y-7700614D01*
X12121516Y-11629712D02*
X12151516Y-11659712D01*
X12151516Y-11629712D02*
X12121516Y-11659712D01*
X12169014Y-11451912D02*
X12199014Y-11481912D01*
X12199014Y-11451912D02*
X12169014Y-11481912D01*
X12368316Y-7399684D02*
X12398316Y-7429684D01*
X12398316Y-7399684D02*
X12368316Y-7429684D01*
X12370690Y-11620568D02*
X12400690Y-11650568D01*
X12400690Y-11620568D02*
X12370690Y-11650568D01*
X12371534Y-11380874D02*
X12401534Y-11410874D01*
X12401534Y-11380874D02*
X12371534Y-11410874D01*
X12371960Y-7632006D02*
X12401960Y-7662006D01*
X12401960Y-7632006D02*
X12371960Y-7662006D01*
X12382120Y-7279200D02*
X12412120Y-7309200D01*
X12412120Y-7279200D02*
X12382120Y-7309200D01*
X12775000Y-11584500D02*
X12805000Y-11614500D01*
X12805000Y-11584500D02*
X12775000Y-11614500D01*
X12780900Y-7609400D02*
X12810900Y-7639400D01*
X12810900Y-7609400D02*
X12780900Y-7639400D01*
X13586080Y-9943660D02*
X13616080Y-9973660D01*
X13616080Y-9943660D02*
X13586080Y-9973660D01*
X13591160Y-11912160D02*
X13621160Y-11942160D01*
X13621160Y-11912160D02*
X13591160Y-11942160D01*
X13606400Y-12917999D02*
X13636400Y-12947999D01*
X13636400Y-12917999D02*
X13606400Y-12947999D01*
X13608305Y-5955225D02*
X13638305Y-5985225D01*
X13638305Y-5955225D02*
X13608305Y-5985225D01*
X13608940Y-10926640D02*
X13638940Y-10956640D01*
X13638940Y-10926640D02*
X13608940Y-10956640D01*
X13616560Y-4985580D02*
X13646560Y-5015580D01*
X13646560Y-4985580D02*
X13616560Y-5015580D01*
X13616560Y-8955600D02*
X13646560Y-8985600D01*
X13646560Y-8955600D02*
X13616560Y-8985600D01*
X13619100Y-7982780D02*
X13649100Y-8012780D01*
X13649100Y-7982780D02*
X13619100Y-8012780D01*
X13619100Y-13916220D02*
X13649100Y-13946220D01*
X13649100Y-13916220D02*
X13619100Y-13946220D01*
X13621640Y-6974400D02*
X13651640Y-7004400D01*
X13651640Y-6974400D02*
X13621640Y-7004400D01*
X14708990Y-4798152D02*
X14738990Y-4828152D01*
X14738990Y-4798152D02*
X14708990Y-4828152D01*
X14708990Y-5798150D02*
X14738990Y-5828150D01*
X14738990Y-5798150D02*
X14708990Y-5828150D01*
X14708990Y-6798148D02*
X14738990Y-6828148D01*
X14738990Y-6798148D02*
X14708990Y-6828148D01*
X14708990Y-7798146D02*
X14738990Y-7828146D01*
X14738990Y-7798146D02*
X14708990Y-7828146D01*
X14708990Y-8798144D02*
X14738990Y-8828144D01*
X14738990Y-8798144D02*
X14708990Y-8828144D01*
X14708990Y-9798142D02*
X14738990Y-9828142D01*
X14738990Y-9798142D02*
X14708990Y-9828142D01*
X14708990Y-10798140D02*
X14738990Y-10828140D01*
X14738990Y-10798140D02*
X14708990Y-10828140D01*
X14708990Y-11798138D02*
X14738990Y-11828138D01*
X14738990Y-11798138D02*
X14708990Y-11828138D01*
X14708990Y-12798136D02*
X14738990Y-12828136D01*
X14738990Y-12798136D02*
X14708990Y-12828136D01*
X14708990Y-13798134D02*
X14738990Y-13828134D01*
X14738990Y-13798134D02*
X14708990Y-13828134D01*
X15710766Y-4798152D02*
X15740766Y-4828152D01*
X15740766Y-4798152D02*
X15710766Y-4828152D01*
X15710766Y-5798150D02*
X15740766Y-5828150D01*
X15740766Y-5798150D02*
X15710766Y-5828150D01*
X15710766Y-6798148D02*
X15740766Y-6828148D01*
X15740766Y-6798148D02*
X15710766Y-6828148D01*
X15710766Y-7798146D02*
X15740766Y-7828146D01*
X15740766Y-7798146D02*
X15710766Y-7828146D01*
X15710766Y-8798144D02*
X15740766Y-8828144D01*
X15740766Y-8798144D02*
X15710766Y-8828144D01*
X15710766Y-9798142D02*
X15740766Y-9828142D01*
X15740766Y-9798142D02*
X15710766Y-9828142D01*
X15710766Y-10798140D02*
X15740766Y-10828140D01*
X15740766Y-10798140D02*
X15710766Y-10828140D01*
X15710766Y-11798138D02*
X15740766Y-11828138D01*
X15740766Y-11798138D02*
X15710766Y-11828138D01*
X15710766Y-12798136D02*
X15740766Y-12828136D01*
X15740766Y-12798136D02*
X15710766Y-12828136D01*
X15710766Y-13798134D02*
X15740766Y-13828134D01*
X15740766Y-13798134D02*
X15710766Y-13828134D01*
X16709494Y-4798914D02*
X16739494Y-4828914D01*
X16739494Y-4798914D02*
X16709494Y-4828914D01*
X16709494Y-5798912D02*
X16739494Y-5828912D01*
X16739494Y-5798912D02*
X16709494Y-5828912D01*
X16709494Y-6798910D02*
X16739494Y-6828910D01*
X16739494Y-6798910D02*
X16709494Y-6828910D01*
X16709494Y-7798908D02*
X16739494Y-7828908D01*
X16739494Y-7798908D02*
X16709494Y-7828908D01*
X16709494Y-8798906D02*
X16739494Y-8828906D01*
X16739494Y-8798906D02*
X16709494Y-8828906D01*
X16709494Y-9798904D02*
X16739494Y-9828904D01*
X16739494Y-9798904D02*
X16709494Y-9828904D01*
X16709494Y-10798902D02*
X16739494Y-10828902D01*
X16739494Y-10798902D02*
X16709494Y-10828902D01*
X16709494Y-11798900D02*
X16739494Y-11828900D01*
X16739494Y-11798900D02*
X16709494Y-11828900D01*
X16709494Y-12798898D02*
X16739494Y-12828898D01*
X16739494Y-12798898D02*
X16709494Y-12828898D01*
X16709494Y-13798896D02*
X16739494Y-13828896D01*
X16739494Y-13798896D02*
X16709494Y-13828896D01*
X17709746Y-4797390D02*
X17739746Y-4827390D01*
X17739746Y-4797390D02*
X17709746Y-4827390D01*
X17709746Y-5797388D02*
X17739746Y-5827388D01*
X17739746Y-5797388D02*
X17709746Y-5827388D01*
X17709746Y-6797386D02*
X17739746Y-6827386D01*
X17739746Y-6797386D02*
X17709746Y-6827386D01*
X17709746Y-7797384D02*
X17739746Y-7827384D01*
X17739746Y-7797384D02*
X17709746Y-7827384D01*
X17709746Y-8797382D02*
X17739746Y-8827382D01*
X17739746Y-8797382D02*
X17709746Y-8827382D01*
X17709746Y-9797380D02*
X17739746Y-9827380D01*
X17739746Y-9797380D02*
X17709746Y-9827380D01*
X17709746Y-10797378D02*
X17739746Y-10827378D01*
X17739746Y-10797378D02*
X17709746Y-10827378D01*
X17709746Y-11797376D02*
X17739746Y-11827376D01*
X17739746Y-11797376D02*
X17709746Y-11827376D01*
X17709746Y-12797374D02*
X17739746Y-12827374D01*
X17739746Y-12797374D02*
X17709746Y-12827374D01*
X17709746Y-13797372D02*
X17739746Y-13827372D01*
X17739746Y-13797372D02*
X17709746Y-13827372D01*
X18709998Y-4798152D02*
X18739998Y-4828152D01*
X18739998Y-4798152D02*
X18709998Y-4828152D01*
X18709998Y-5798150D02*
X18739998Y-5828150D01*
X18739998Y-5798150D02*
X18709998Y-5828150D01*
X18709998Y-6798148D02*
X18739998Y-6828148D01*
X18739998Y-6798148D02*
X18709998Y-6828148D01*
X18709998Y-7798146D02*
X18739998Y-7828146D01*
X18739998Y-7798146D02*
X18709998Y-7828146D01*
X18709998Y-8798144D02*
X18739998Y-8828144D01*
X18739998Y-8798144D02*
X18709998Y-8828144D01*
X18709998Y-9798142D02*
X18739998Y-9828142D01*
X18739998Y-9798142D02*
X18709998Y-9828142D01*
X18709998Y-10798140D02*
X18739998Y-10828140D01*
X18739998Y-10798140D02*
X18709998Y-10828140D01*
X18709998Y-11798138D02*
X18739998Y-11828138D01*
X18739998Y-11798138D02*
X18709998Y-11828138D01*
X18709998Y-12798136D02*
X18739998Y-12828136D01*
X18739998Y-12798136D02*
X18709998Y-12828136D01*
X18709998Y-13798134D02*
X18739998Y-13828134D01*
X18739998Y-13798134D02*
X18709998Y-13828134D01*
X19710504Y-4797390D02*
X19740504Y-4827390D01*
X19740504Y-4797390D02*
X19710504Y-4827390D01*
X19710504Y-5797388D02*
X19740504Y-5827388D01*
X19740504Y-5797388D02*
X19710504Y-5827388D01*
X19710504Y-6797386D02*
X19740504Y-6827386D01*
X19740504Y-6797386D02*
X19710504Y-6827386D01*
X19710504Y-7797384D02*
X19740504Y-7827384D01*
X19740504Y-7797384D02*
X19710504Y-7827384D01*
X19710504Y-8797382D02*
X19740504Y-8827382D01*
X19740504Y-8797382D02*
X19710504Y-8827382D01*
X19710504Y-9797380D02*
X19740504Y-9827380D01*
X19740504Y-9797380D02*
X19710504Y-9827380D01*
X19710504Y-10797378D02*
X19740504Y-10827378D01*
X19740504Y-10797378D02*
X19710504Y-10827378D01*
X19710504Y-11797376D02*
X19740504Y-11827376D01*
X19740504Y-11797376D02*
X19710504Y-11827376D01*
X19710504Y-12797374D02*
X19740504Y-12827374D01*
X19740504Y-12797374D02*
X19710504Y-12827374D01*
X19710504Y-13797372D02*
X19740504Y-13827372D01*
X19740504Y-13797372D02*
X19710504Y-13827372D01*
X20709740Y-4798152D02*
X20739740Y-4828152D01*
X20739740Y-4798152D02*
X20709740Y-4828152D01*
X20709740Y-5798150D02*
X20739740Y-5828150D01*
X20739740Y-5798150D02*
X20709740Y-5828150D01*
X20709740Y-6798148D02*
X20739740Y-6828148D01*
X20739740Y-6798148D02*
X20709740Y-6828148D01*
X20709740Y-7798146D02*
X20739740Y-7828146D01*
X20739740Y-7798146D02*
X20709740Y-7828146D01*
X20709740Y-8798144D02*
X20739740Y-8828144D01*
X20739740Y-8798144D02*
X20709740Y-8828144D01*
X20709740Y-9798142D02*
X20739740Y-9828142D01*
X20739740Y-9798142D02*
X20709740Y-9828142D01*
X20709740Y-10798140D02*
X20739740Y-10828140D01*
X20739740Y-10798140D02*
X20709740Y-10828140D01*
X20709740Y-11798138D02*
X20739740Y-11828138D01*
X20739740Y-11798138D02*
X20709740Y-11828138D01*
X20709740Y-12798136D02*
X20739740Y-12828136D01*
X20739740Y-12798136D02*
X20709740Y-12828136D01*
X20709740Y-13798134D02*
X20739740Y-13828134D01*
X20739740Y-13798134D02*
X20709740Y-13828134D01*
X21707706Y-4798152D02*
X21737706Y-4828152D01*
X21737706Y-4798152D02*
X21707706Y-4828152D01*
X21707706Y-5798150D02*
X21737706Y-5828150D01*
X21737706Y-5798150D02*
X21707706Y-5828150D01*
X21707706Y-6798148D02*
X21737706Y-6828148D01*
X21737706Y-6798148D02*
X21707706Y-6828148D01*
X21707706Y-7798146D02*
X21737706Y-7828146D01*
X21737706Y-7798146D02*
X21707706Y-7828146D01*
X21707706Y-8798144D02*
X21737706Y-8828144D01*
X21737706Y-8798144D02*
X21707706Y-8828144D01*
X21707706Y-9798142D02*
X21737706Y-9828142D01*
X21737706Y-9798142D02*
X21707706Y-9828142D01*
X21707706Y-10798140D02*
X21737706Y-10828140D01*
X21737706Y-10798140D02*
X21707706Y-10828140D01*
X21707706Y-11798138D02*
X21737706Y-11828138D01*
X21737706Y-11798138D02*
X21707706Y-11828138D01*
X21707706Y-12798136D02*
X21737706Y-12828136D01*
X21737706Y-12798136D02*
X21707706Y-12828136D01*
X21707706Y-13798134D02*
X21737706Y-13828134D01*
X21737706Y-13798134D02*
X21707706Y-13828134D01*
X22709736Y-4798152D02*
X22739736Y-4828152D01*
X22739736Y-4798152D02*
X22709736Y-4828152D01*
X22709736Y-5798150D02*
X22739736Y-5828150D01*
X22739736Y-5798150D02*
X22709736Y-5828150D01*
X22709736Y-6798148D02*
X22739736Y-6828148D01*
X22739736Y-6798148D02*
X22709736Y-6828148D01*
X22709736Y-7798146D02*
X22739736Y-7828146D01*
X22739736Y-7798146D02*
X22709736Y-7828146D01*
X22709736Y-8798144D02*
X22739736Y-8828144D01*
X22739736Y-8798144D02*
X22709736Y-8828144D01*
X22709736Y-9797380D02*
X22739736Y-9827380D01*
X22739736Y-9797380D02*
X22709736Y-9827380D01*
X22709736Y-10798140D02*
X22739736Y-10828140D01*
X22739736Y-10798140D02*
X22709736Y-10828140D01*
X22709736Y-11798138D02*
X22739736Y-11828138D01*
X22739736Y-11798138D02*
X22709736Y-11828138D01*
X22709736Y-12798136D02*
X22739736Y-12828136D01*
X22739736Y-12798136D02*
X22709736Y-12828136D01*
X22709736Y-13798134D02*
X22739736Y-13828134D01*
X22739736Y-13798134D02*
X22709736Y-13828134D01*
X6871792Y-12093022D02*
G75*
G03*
X6871792Y-12093022I-20000J0D01*
G01*
X6914718Y-13630000D02*
G75*
G03*
X6914718Y-13630000I-20000J0D01*
G01*
X6958660Y-12882200D02*
G75*
G03*
X6958660Y-12882200I-20000J0D01*
G01*
X7011492Y-12416872D02*
G75*
G03*
X7011492Y-12416872I-20000J0D01*
G01*
X7012254Y-12127820D02*
G75*
G03*
X7012254Y-12127820I-20000J0D01*
G01*
X7186244Y-6218256D02*
G75*
G03*
X7186244Y-6218256I-20000J0D01*
G01*
X7186498Y-6088716D02*
G75*
G03*
X7186498Y-6088716I-20000J0D01*
G01*
X7326960Y-6219272D02*
G75*
G03*
X7326960Y-6219272I-20000J0D01*
G01*
X7328484Y-6086938D02*
G75*
G03*
X7328484Y-6086938I-20000J0D01*
G01*
X7392492Y-12908362D02*
G75*
G03*
X7392492Y-12908362I-20000J0D01*
G01*
X7410272Y-10321880D02*
G75*
G03*
X7410272Y-10321880I-20000J0D01*
G01*
X7410526Y-10192340D02*
G75*
G03*
X7410526Y-10192340I-20000J0D01*
G01*
X7430000Y-13410000D02*
G75*
G03*
X7430000Y-13410000I-20000J0D01*
G01*
X7435418Y-8292420D02*
G75*
G03*
X7435418Y-8292420I-20000J0D01*
G01*
X7435672Y-8162880D02*
G75*
G03*
X7435672Y-8162880I-20000J0D01*
G01*
X7448880Y-12391980D02*
G75*
G03*
X7448880Y-12391980I-20000J0D01*
G01*
X7550988Y-10322896D02*
G75*
G03*
X7550988Y-10322896I-20000J0D01*
G01*
X7552512Y-10190562D02*
G75*
G03*
X7552512Y-10190562I-20000J0D01*
G01*
X7576134Y-8293436D02*
G75*
G03*
X7576134Y-8293436I-20000J0D01*
G01*
X7577658Y-8161102D02*
G75*
G03*
X7577658Y-8161102I-20000J0D01*
G01*
X7577658Y-12921062D02*
G75*
G03*
X7577658Y-12921062I-20000J0D01*
G01*
X7901000Y-12409760D02*
G75*
G03*
X7901000Y-12409760I-20000J0D01*
G01*
X7981922Y-13059088D02*
G75*
G03*
X7981922Y-13059088I-20000J0D01*
G01*
X8439988Y-13313492D02*
G75*
G03*
X8439988Y-13313492I-20000J0D01*
G01*
X8579180Y-5668600D02*
G75*
G03*
X8579180Y-5668600I-20000J0D01*
G01*
X8579180Y-5788234D02*
G75*
G03*
X8579180Y-5788234I-20000J0D01*
G01*
X8595182Y-5067391D02*
G75*
G03*
X8595182Y-5067391I-20000J0D01*
G01*
X8685606Y-5730576D02*
G75*
G03*
X8685606Y-5730576I-20000J0D01*
G01*
X8690178Y-5069160D02*
G75*
G03*
X8690178Y-5069160I-20000J0D01*
G01*
X8777046Y-5668600D02*
G75*
G03*
X8777046Y-5668600I-20000J0D01*
G01*
X8777046Y-5788234D02*
G75*
G03*
X8777046Y-5788234I-20000J0D01*
G01*
X8784920Y-5064080D02*
G75*
G03*
X8784920Y-5064080I-20000J0D01*
G01*
X8992438Y-5996006D02*
G75*
G03*
X8992438Y-5996006I-20000J0D01*
G01*
X9079052Y-13313492D02*
G75*
G03*
X9079052Y-13313492I-20000J0D01*
G01*
X9425000Y-12202496D02*
G75*
G03*
X9425000Y-12202496I-20000J0D01*
G01*
X9433636Y-8728792D02*
G75*
G03*
X9433636Y-8728792I-20000J0D01*
G01*
X9435922Y-8439486D02*
G75*
G03*
X9435922Y-8439486I-20000J0D01*
G01*
X9465132Y-9390462D02*
G75*
G03*
X9465132Y-9390462I-20000J0D01*
G01*
X9465132Y-9726504D02*
G75*
G03*
X9465132Y-9726504I-20000J0D01*
G01*
X9616770Y-9725234D02*
G75*
G03*
X9616770Y-9725234I-20000J0D01*
G01*
X9617278Y-9483172D02*
G75*
G03*
X9617278Y-9483172I-20000J0D01*
G01*
X9619564Y-8656148D02*
G75*
G03*
X9619564Y-8656148I-20000J0D01*
G01*
X9661474Y-8526354D02*
G75*
G03*
X9661474Y-8526354I-20000J0D01*
G01*
X9662236Y-7634560D02*
G75*
G03*
X9662236Y-7634560I-20000J0D01*
G01*
X9685096Y-9175832D02*
G75*
G03*
X9685096Y-9175832I-20000J0D01*
G01*
X9774250Y-10511872D02*
G75*
G03*
X9774250Y-10511872I-20000J0D01*
G01*
X9891852Y-10509078D02*
G75*
G03*
X9891852Y-10509078I-20000J0D01*
G01*
X9944176Y-8359984D02*
G75*
G03*
X9944176Y-8359984I-20000J0D01*
G01*
X9970084Y-12662744D02*
G75*
G03*
X9970084Y-12662744I-20000J0D01*
G01*
X9990404Y-7635068D02*
G75*
G03*
X9990404Y-7635068I-20000J0D01*
G01*
X10013010Y-12494596D02*
G75*
G03*
X10013010Y-12494596I-20000J0D01*
G01*
X10055936Y-8495112D02*
G75*
G03*
X10055936Y-8495112I-20000J0D01*
G01*
X10073000Y-6493000D02*
G75*
G03*
X10073000Y-6493000I-20000J0D01*
G01*
X10166172Y-12815906D02*
G75*
G03*
X10166172Y-12815906I-20000J0D01*
G01*
X10170000Y-6495000D02*
G75*
G03*
X10170000Y-6495000I-20000J0D01*
G01*
X10218496Y-4500454D02*
G75*
G03*
X10218496Y-4500454I-20000J0D01*
G01*
X10266000Y-6497452D02*
G75*
G03*
X10266000Y-6497452I-20000J0D01*
G01*
X10268788Y-12072448D02*
G75*
G03*
X10268788Y-12072448I-20000J0D01*
G01*
X10269804Y-12233484D02*
G75*
G03*
X10269804Y-12233484I-20000J0D01*
G01*
X10274892Y-12495874D02*
G75*
G03*
X10274892Y-12495874I-20000J0D01*
G01*
X10283000Y-6939000D02*
G75*
G03*
X10283000Y-6939000I-20000J0D01*
G01*
X10287000Y-8089000D02*
G75*
G03*
X10287000Y-8089000I-20000J0D01*
G01*
X10293680Y-8491810D02*
G75*
G03*
X10293680Y-8491810I-20000J0D01*
G01*
X10298760Y-8237810D02*
G75*
G03*
X10298760Y-8237810I-20000J0D01*
G01*
X10308920Y-12676206D02*
G75*
G03*
X10308920Y-12676206I-20000J0D01*
G01*
X10315270Y-9972630D02*
G75*
G03*
X10315270Y-9972630I-20000J0D01*
G01*
X10317038Y-8793044D02*
G75*
G03*
X10317038Y-8793044I-20000J0D01*
G01*
X10336860Y-9710756D02*
G75*
G03*
X10336860Y-9710756I-20000J0D01*
G01*
X10342194Y-9382334D02*
G75*
G03*
X10342194Y-9382334I-20000J0D01*
G01*
X10346512Y-13078796D02*
G75*
G03*
X10346512Y-13078796I-20000J0D01*
G01*
X10349052Y-10728788D02*
G75*
G03*
X10349052Y-10728788I-20000J0D01*
G01*
X10356926Y-4692478D02*
G75*
G03*
X10356926Y-4692478I-20000J0D01*
G01*
X10356926Y-4890344D02*
G75*
G03*
X10356926Y-4890344I-20000J0D01*
G01*
X10364736Y-9076836D02*
G75*
G03*
X10364736Y-9076836I-20000J0D01*
G01*
X10390200Y-10608900D02*
G75*
G03*
X10390200Y-10608900I-20000J0D01*
G01*
X10394772Y-12601276D02*
G75*
G03*
X10394772Y-12601276I-20000J0D01*
G01*
X10414584Y-4798904D02*
G75*
G03*
X10414584Y-4798904I-20000J0D01*
G01*
X10417124Y-8601284D02*
G75*
G03*
X10417124Y-8601284I-20000J0D01*
G01*
X10464114Y-6281248D02*
G75*
G03*
X10464114Y-6281248I-20000J0D01*
G01*
X10464114Y-6615004D02*
G75*
G03*
X10464114Y-6615004I-20000J0D01*
G01*
X10466146Y-13173792D02*
G75*
G03*
X10466146Y-13173792I-20000J0D01*
G01*
X10472750Y-8794832D02*
G75*
G03*
X10472750Y-8794832I-20000J0D01*
G01*
X10476560Y-4692478D02*
G75*
G03*
X10476560Y-4692478I-20000J0D01*
G01*
X10476560Y-4890344D02*
G75*
G03*
X10476560Y-4890344I-20000J0D01*
G01*
X10479862Y-9453708D02*
G75*
G03*
X10479862Y-9453708I-20000J0D01*
G01*
X10485132Y-9164720D02*
G75*
G03*
X10485132Y-9164720I-20000J0D01*
G01*
X10494848Y-12815906D02*
G75*
G03*
X10494848Y-12815906I-20000J0D01*
G01*
X10508850Y-11795874D02*
G75*
G03*
X10508850Y-11795874I-20000J0D01*
G01*
X10508926Y-11695874D02*
G75*
G03*
X10508926Y-11695874I-20000J0D01*
G01*
X10510666Y-11595874D02*
G75*
G03*
X10510666Y-11595874I-20000J0D01*
G01*
X10512120Y-10928940D02*
G75*
G03*
X10512120Y-10928940I-20000J0D01*
G01*
X10513644Y-12196908D02*
G75*
G03*
X10513644Y-12196908I-20000J0D01*
G01*
X10514152Y-12047048D02*
G75*
G03*
X10514152Y-12047048I-20000J0D01*
G01*
X10516184Y-11019364D02*
G75*
G03*
X10516184Y-11019364I-20000J0D01*
G01*
X10529698Y-6989198D02*
G75*
G03*
X10529698Y-6989198I-20000J0D01*
G01*
X10530258Y-7589198D02*
G75*
G03*
X10530258Y-7589198I-20000J0D01*
G01*
X10538488Y-7789198D02*
G75*
G03*
X10538488Y-7789198I-20000J0D01*
G01*
X10538762Y-7689198D02*
G75*
G03*
X10538762Y-7689198I-20000J0D01*
G01*
X10540060Y-8188280D02*
G75*
G03*
X10540060Y-8188280I-20000J0D01*
G01*
X10540234Y-7108954D02*
G75*
G03*
X10540234Y-7108954I-20000J0D01*
G01*
X10543092Y-8039198D02*
G75*
G03*
X10543092Y-8039198I-20000J0D01*
G01*
X10549204Y-9625158D02*
G75*
G03*
X10549204Y-9625158I-20000J0D01*
G01*
X10560380Y-11151952D02*
G75*
G03*
X10560380Y-11151952I-20000J0D01*
G01*
X10560380Y-11477834D02*
G75*
G03*
X10560380Y-11477834I-20000J0D01*
G01*
X10571800Y-10168050D02*
G75*
G03*
X10571800Y-10168050I-20000J0D01*
G01*
X10586796Y-13069906D02*
G75*
G03*
X10586796Y-13069906I-20000J0D01*
G01*
X10591876Y-13489260D02*
G75*
G03*
X10591876Y-13489260I-20000J0D01*
G01*
X10591876Y-13823270D02*
G75*
G03*
X10591876Y-13823270I-20000J0D01*
G01*
X10605782Y-9062738D02*
G75*
G03*
X10605782Y-9062738I-20000J0D01*
G01*
X10675950Y-11011744D02*
G75*
G03*
X10675950Y-11011744I-20000J0D01*
G01*
X10678236Y-10728788D02*
G75*
G03*
X10678236Y-10728788I-20000J0D01*
G01*
X10691190Y-9800926D02*
G75*
G03*
X10691190Y-9800926I-20000J0D01*
G01*
X10721924Y-8854522D02*
G75*
G03*
X10721924Y-8854522I-20000J0D01*
G01*
X10726750Y-13575874D02*
G75*
G03*
X10726750Y-13575874I-20000J0D01*
G01*
X10728020Y-12864674D02*
G75*
G03*
X10728020Y-12864674I-20000J0D01*
G01*
X10730306Y-11376234D02*
G75*
G03*
X10730306Y-11376234I-20000J0D01*
G01*
X10765104Y-5063318D02*
G75*
G03*
X10765104Y-5063318I-20000J0D01*
G01*
X10766120Y-6989400D02*
G75*
G03*
X10766120Y-6989400I-20000J0D01*
G01*
X10770000Y-10210000D02*
G75*
G03*
X10770000Y-10210000I-20000J0D01*
G01*
X10771708Y-11856548D02*
G75*
G03*
X10771708Y-11856548I-20000J0D01*
G01*
X10773740Y-7422470D02*
G75*
G03*
X10773740Y-7422470I-20000J0D01*
G01*
X10776280Y-12617786D02*
G75*
G03*
X10776280Y-12617786I-20000J0D01*
G01*
X10785932Y-10725232D02*
G75*
G03*
X10785932Y-10725232I-20000J0D01*
G01*
X10790000Y-10040000D02*
G75*
G03*
X10790000Y-10040000I-20000J0D01*
G01*
X10795076Y-8612714D02*
G75*
G03*
X10795076Y-8612714I-20000J0D01*
G01*
X10796854Y-13736402D02*
G75*
G03*
X10796854Y-13736402I-20000J0D01*
G01*
X10811332Y-7914722D02*
G75*
G03*
X10811332Y-7914722I-20000J0D01*
G01*
X10824540Y-6720922D02*
G75*
G03*
X10824540Y-6720922I-20000J0D01*
G01*
X10837080Y-10485804D02*
G75*
G03*
X10837080Y-10485804I-20000J0D01*
G01*
X10857560Y-7107510D02*
G75*
G03*
X10857560Y-7107510I-20000J0D01*
G01*
X10859338Y-6480130D02*
G75*
G03*
X10859338Y-6480130I-20000J0D01*
G01*
X10863656Y-12190812D02*
G75*
G03*
X10863656Y-12190812I-20000J0D01*
G01*
X10864672Y-12519488D02*
G75*
G03*
X10864672Y-12519488I-20000J0D01*
G01*
X10870768Y-12008186D02*
G75*
G03*
X10870768Y-12008186I-20000J0D01*
G01*
X10901492Y-8057206D02*
G75*
G03*
X10901492Y-8057206I-20000J0D01*
G01*
X10908106Y-5133930D02*
G75*
G03*
X10908106Y-5133930I-20000J0D01*
G01*
X10931728Y-12076512D02*
G75*
G03*
X10931728Y-12076512I-20000J0D01*
G01*
X10987080Y-12622084D02*
G75*
G03*
X10987080Y-12622084I-20000J0D01*
G01*
X10987862Y-12385630D02*
G75*
G03*
X10987862Y-12385630I-20000J0D01*
G01*
X10989322Y-6719208D02*
G75*
G03*
X10989322Y-6719208I-20000J0D01*
G01*
X10989640Y-7046550D02*
G75*
G03*
X10989640Y-7046550I-20000J0D01*
G01*
X11003610Y-11010728D02*
G75*
G03*
X11003610Y-11010728I-20000J0D01*
G01*
X11006082Y-8606392D02*
G75*
G03*
X11006082Y-8606392I-20000J0D01*
G01*
X11006864Y-8364604D02*
G75*
G03*
X11006864Y-8364604I-20000J0D01*
G01*
X11058992Y-8059258D02*
G75*
G03*
X11058992Y-8059258I-20000J0D01*
G01*
X11080064Y-11993200D02*
G75*
G03*
X11080064Y-11993200I-20000J0D01*
G01*
X11087080Y-10723104D02*
G75*
G03*
X11087080Y-10723104I-20000J0D01*
G01*
X11087176Y-10951800D02*
G75*
G03*
X11087176Y-10951800I-20000J0D01*
G01*
X11107082Y-6717858D02*
G75*
G03*
X11107082Y-6717858I-20000J0D01*
G01*
X11108702Y-6949282D02*
G75*
G03*
X11108702Y-6949282I-20000J0D01*
G01*
X11123752Y-12619818D02*
G75*
G03*
X11123752Y-12619818I-20000J0D01*
G01*
X11137214Y-8865698D02*
G75*
G03*
X11137214Y-8865698I-20000J0D01*
G01*
X11149152Y-12875850D02*
G75*
G03*
X11149152Y-12875850I-20000J0D01*
G01*
X11157280Y-8606872D02*
G75*
G03*
X11157280Y-8606872I-20000J0D01*
G01*
X11202746Y-11406968D02*
G75*
G03*
X11202746Y-11406968I-20000J0D01*
G01*
X11202746Y-11669096D02*
G75*
G03*
X11202746Y-11669096I-20000J0D01*
G01*
X11202746Y-11933256D02*
G75*
G03*
X11202746Y-11933256I-20000J0D01*
G01*
X11218494Y-8187010D02*
G75*
G03*
X11218494Y-8187010I-20000J0D01*
G01*
X11218494Y-8521020D02*
G75*
G03*
X11218494Y-8521020I-20000J0D01*
G01*
X11220526Y-7403674D02*
G75*
G03*
X11220526Y-7403674I-20000J0D01*
G01*
X11220526Y-7665802D02*
G75*
G03*
X11220526Y-7665802I-20000J0D01*
G01*
X11220526Y-7929962D02*
G75*
G03*
X11220526Y-7929962I-20000J0D01*
G01*
X11224844Y-12279458D02*
G75*
G03*
X11224844Y-12279458I-20000J0D01*
G01*
X11224844Y-12601530D02*
G75*
G03*
X11224844Y-12601530I-20000J0D01*
G01*
X11236020Y-10814386D02*
G75*
G03*
X11236020Y-10814386I-20000J0D01*
G01*
X11236020Y-11129346D02*
G75*
G03*
X11236020Y-11129346I-20000J0D01*
G01*
X11256340Y-10725994D02*
G75*
G03*
X11256340Y-10725994I-20000J0D01*
G01*
X11267008Y-6715588D02*
G75*
G03*
X11267008Y-6715588I-20000J0D01*
G01*
X11269040Y-12076512D02*
G75*
G03*
X11269040Y-12076512I-20000J0D01*
G01*
X11278946Y-10470470D02*
G75*
G03*
X11278946Y-10470470I-20000J0D01*
G01*
X11302568Y-6477844D02*
G75*
G03*
X11302568Y-6477844I-20000J0D01*
G01*
X11374024Y-9172956D02*
G75*
G03*
X11374024Y-9172956I-20000J0D01*
G01*
X11426520Y-8189296D02*
G75*
G03*
X11426520Y-8189296I-20000J0D01*
G01*
X11426520Y-8518480D02*
G75*
G03*
X11426520Y-8518480I-20000J0D01*
G01*
X11458524Y-11406968D02*
G75*
G03*
X11458524Y-11406968I-20000J0D01*
G01*
X11458524Y-11669096D02*
G75*
G03*
X11458524Y-11669096I-20000J0D01*
G01*
X11458524Y-11933256D02*
G75*
G03*
X11458524Y-11933256I-20000J0D01*
G01*
X11476304Y-7403674D02*
G75*
G03*
X11476304Y-7403674I-20000J0D01*
G01*
X11476304Y-7665802D02*
G75*
G03*
X11476304Y-7665802I-20000J0D01*
G01*
X11476304Y-7929962D02*
G75*
G03*
X11476304Y-7929962I-20000J0D01*
G01*
X11496370Y-13355402D02*
G75*
G03*
X11496370Y-13355402I-20000J0D01*
G01*
X11526596Y-6941140D02*
G75*
G03*
X11526596Y-6941140I-20000J0D01*
G01*
X11533708Y-8069916D02*
G75*
G03*
X11533708Y-8069916I-20000J0D01*
G01*
X11565712Y-12859848D02*
G75*
G03*
X11565712Y-12859848I-20000J0D01*
G01*
X11570792Y-8865190D02*
G75*
G03*
X11570792Y-8865190I-20000J0D01*
G01*
X11575872Y-12619818D02*
G75*
G03*
X11575872Y-12619818I-20000J0D01*
G01*
X11590350Y-8612206D02*
G75*
G03*
X11590350Y-8612206I-20000J0D01*
G01*
X11594160Y-12110802D02*
G75*
G03*
X11594160Y-12110802I-20000J0D01*
G01*
X11594160Y-12448368D02*
G75*
G03*
X11594160Y-12448368I-20000J0D01*
G01*
X11639880Y-10724470D02*
G75*
G03*
X11639880Y-10724470I-20000J0D01*
G01*
X11658000Y-6731000D02*
G75*
G03*
X11658000Y-6731000I-20000J0D01*
G01*
X11674170Y-6315538D02*
G75*
G03*
X11674170Y-6315538I-20000J0D01*
G01*
X11675694Y-10475042D02*
G75*
G03*
X11675694Y-10475042I-20000J0D01*
G01*
X11680520Y-10380046D02*
G75*
G03*
X11680520Y-10380046I-20000J0D01*
G01*
X11681536Y-8578678D02*
G75*
G03*
X11681536Y-8578678I-20000J0D01*
G01*
X11683314Y-8252542D02*
G75*
G03*
X11683314Y-8252542I-20000J0D01*
G01*
X11702364Y-6476574D02*
G75*
G03*
X11702364Y-6476574I-20000J0D01*
G01*
X11705920Y-9058992D02*
G75*
G03*
X11705920Y-9058992I-20000J0D01*
G01*
X11715826Y-11406968D02*
G75*
G03*
X11715826Y-11406968I-20000J0D01*
G01*
X11715826Y-11669096D02*
G75*
G03*
X11715826Y-11669096I-20000J0D01*
G01*
X11715826Y-11933256D02*
G75*
G03*
X11715826Y-11933256I-20000J0D01*
G01*
X11716588Y-12066098D02*
G75*
G03*
X11716588Y-12066098I-20000J0D01*
G01*
X11733606Y-7403674D02*
G75*
G03*
X11733606Y-7403674I-20000J0D01*
G01*
X11733606Y-7665802D02*
G75*
G03*
X11733606Y-7665802I-20000J0D01*
G01*
X11733606Y-7929962D02*
G75*
G03*
X11733606Y-7929962I-20000J0D01*
G01*
X11748084Y-12373184D02*
G75*
G03*
X11748084Y-12373184I-20000J0D01*
G01*
X11749100Y-12614484D02*
G75*
G03*
X11749100Y-12614484I-20000J0D01*
G01*
X11803964Y-8374716D02*
G75*
G03*
X11803964Y-8374716I-20000J0D01*
G01*
X11807266Y-8611444D02*
G75*
G03*
X11807266Y-8611444I-20000J0D01*
G01*
X11818442Y-11112836D02*
G75*
G03*
X11818442Y-11112836I-20000J0D01*
G01*
X11821998Y-10788732D02*
G75*
G03*
X11821998Y-10788732I-20000J0D01*
G01*
X11836984Y-8863158D02*
G75*
G03*
X11836984Y-8863158I-20000J0D01*
G01*
X11848414Y-12613976D02*
G75*
G03*
X11848414Y-12613976I-20000J0D01*
G01*
X11852986Y-6941140D02*
G75*
G03*
X11852986Y-6941140I-20000J0D01*
G01*
X11855526Y-12861118D02*
G75*
G03*
X11855526Y-12861118I-20000J0D01*
G01*
X11873814Y-8069408D02*
G75*
G03*
X11873814Y-8069408I-20000J0D01*
G01*
X11886260Y-10722692D02*
G75*
G03*
X11886260Y-10722692I-20000J0D01*
G01*
X11902770Y-6476320D02*
G75*
G03*
X11902770Y-6476320I-20000J0D01*
G01*
X11929440Y-8853760D02*
G75*
G03*
X11929440Y-8853760I-20000J0D01*
G01*
X11936298Y-12613976D02*
G75*
G03*
X11936298Y-12613976I-20000J0D01*
G01*
X11937080Y-10489032D02*
G75*
G03*
X11937080Y-10489032I-20000J0D01*
G01*
X11958396Y-9559880D02*
G75*
G03*
X11958396Y-9559880I-20000J0D01*
G01*
X11987080Y-10718356D02*
G75*
G03*
X11987080Y-10718356I-20000J0D01*
G01*
X11989130Y-10959928D02*
G75*
G03*
X11989130Y-10959928I-20000J0D01*
G01*
X11996242Y-10379538D02*
G75*
G03*
X11996242Y-10379538I-20000J0D01*
G01*
X11996750Y-6473780D02*
G75*
G03*
X11996750Y-6473780I-20000J0D01*
G01*
X12007082Y-6704748D02*
G75*
G03*
X12007082Y-6704748I-20000J0D01*
G01*
X12007418Y-6318078D02*
G75*
G03*
X12007418Y-6318078I-20000J0D01*
G01*
X12007608Y-6939552D02*
G75*
G03*
X12007608Y-6939552I-20000J0D01*
G01*
X12041200Y-7871796D02*
G75*
G03*
X12041200Y-7871796I-20000J0D01*
G01*
X12041200Y-12496882D02*
G75*
G03*
X12041200Y-12496882I-20000J0D01*
G01*
X12043994Y-9057976D02*
G75*
G03*
X12043994Y-9057976I-20000J0D01*
G01*
X12052630Y-12066098D02*
G75*
G03*
X12052630Y-12066098I-20000J0D01*
G01*
X12078030Y-8424500D02*
G75*
G03*
X12078030Y-8424500I-20000J0D01*
G01*
X12080316Y-10846136D02*
G75*
G03*
X12080316Y-10846136I-20000J0D01*
G01*
X12127242Y-6718572D02*
G75*
G03*
X12127242Y-6718572I-20000J0D01*
G01*
X12127560Y-7046550D02*
G75*
G03*
X12127560Y-7046550I-20000J0D01*
G01*
X12142546Y-7583506D02*
G75*
G03*
X12142546Y-7583506I-20000J0D01*
G01*
X12161342Y-11550478D02*
G75*
G03*
X12161342Y-11550478I-20000J0D01*
G01*
X12167184Y-11097850D02*
G75*
G03*
X12167184Y-11097850I-20000J0D01*
G01*
X12173026Y-12294952D02*
G75*
G03*
X12173026Y-12294952I-20000J0D01*
G01*
X12173788Y-12149156D02*
G75*
G03*
X12173788Y-12149156I-20000J0D01*
G01*
X12182170Y-8291150D02*
G75*
G03*
X12182170Y-8291150I-20000J0D01*
G01*
X12185980Y-7096080D02*
G75*
G03*
X12185980Y-7096080I-20000J0D01*
G01*
X12186996Y-4926412D02*
G75*
G03*
X12186996Y-4926412I-20000J0D01*
G01*
X12223318Y-6870528D02*
G75*
G03*
X12223318Y-6870528I-20000J0D01*
G01*
X12267768Y-10268794D02*
G75*
G03*
X12267768Y-10268794I-20000J0D01*
G01*
X12281484Y-9559880D02*
G75*
G03*
X12281484Y-9559880I-20000J0D01*
G01*
X12287080Y-10730304D02*
G75*
G03*
X12287080Y-10730304I-20000J0D01*
G01*
X12306376Y-4508836D02*
G75*
G03*
X12306376Y-4508836I-20000J0D01*
G01*
X12306376Y-4706702D02*
G75*
G03*
X12306376Y-4706702I-20000J0D01*
G01*
X12307082Y-6710818D02*
G75*
G03*
X12307082Y-6710818I-20000J0D01*
G01*
X12327204Y-11895156D02*
G75*
G03*
X12327204Y-11895156I-20000J0D01*
G01*
X12351842Y-7871796D02*
G75*
G03*
X12351842Y-7871796I-20000J0D01*
G01*
X12364034Y-4615262D02*
G75*
G03*
X12364034Y-4615262I-20000J0D01*
G01*
X12368860Y-12496882D02*
G75*
G03*
X12368860Y-12496882I-20000J0D01*
G01*
X12383592Y-7568012D02*
G75*
G03*
X12383592Y-7568012I-20000J0D01*
G01*
X12393202Y-10604624D02*
G75*
G03*
X12393202Y-10604624I-20000J0D01*
G01*
X12394260Y-10360234D02*
G75*
G03*
X12394260Y-10360234I-20000J0D01*
G01*
X12396800Y-6497910D02*
G75*
G03*
X12396800Y-6497910I-20000J0D01*
G01*
X12399848Y-8098872D02*
G75*
G03*
X12399848Y-8098872I-20000J0D01*
G01*
X12400610Y-8424500D02*
G75*
G03*
X12400610Y-8424500I-20000J0D01*
G01*
X12404134Y-11545874D02*
G75*
G03*
X12404134Y-11545874I-20000J0D01*
G01*
X12404420Y-12144584D02*
G75*
G03*
X12404420Y-12144584I-20000J0D01*
G01*
X12408484Y-10845120D02*
G75*
G03*
X12408484Y-10845120I-20000J0D01*
G01*
X12409302Y-11095874D02*
G75*
G03*
X12409302Y-11095874I-20000J0D01*
G01*
X12411410Y-10995874D02*
G75*
G03*
X12411410Y-10995874I-20000J0D01*
G01*
X12415088Y-12295460D02*
G75*
G03*
X12415088Y-12295460I-20000J0D01*
G01*
X12426010Y-4508836D02*
G75*
G03*
X12426010Y-4508836I-20000J0D01*
G01*
X12426010Y-4706702D02*
G75*
G03*
X12426010Y-4706702I-20000J0D01*
G01*
X12433832Y-6989198D02*
G75*
G03*
X12433832Y-6989198I-20000J0D01*
G01*
X12435638Y-7089198D02*
G75*
G03*
X12435638Y-7089198I-20000J0D01*
G01*
X12440662Y-8289198D02*
G75*
G03*
X12440662Y-8289198I-20000J0D01*
G01*
X12475286Y-12762820D02*
G75*
G03*
X12475286Y-12762820I-20000J0D01*
G01*
X12587554Y-6662248D02*
G75*
G03*
X12587554Y-6662248I-20000J0D01*
G01*
X12646736Y-11357184D02*
G75*
G03*
X12646736Y-11357184I-20000J0D01*
G01*
X12648290Y-10795874D02*
G75*
G03*
X12648290Y-10795874I-20000J0D01*
G01*
X12649066Y-11445874D02*
G75*
G03*
X12649066Y-11445874I-20000J0D01*
G01*
X12655626Y-10530668D02*
G75*
G03*
X12655626Y-10530668I-20000J0D01*
G01*
X12656896Y-12255836D02*
G75*
G03*
X12656896Y-12255836I-20000J0D01*
G01*
X12658166Y-11895156D02*
G75*
G03*
X12658166Y-11895156I-20000J0D01*
G01*
X12662992Y-12103944D02*
G75*
G03*
X12662992Y-12103944I-20000J0D01*
G01*
X12663246Y-8243906D02*
G75*
G03*
X12663246Y-8243906I-20000J0D01*
G01*
X12665024Y-7344238D02*
G75*
G03*
X12665024Y-7344238I-20000J0D01*
G01*
X12665786Y-7442028D02*
G75*
G03*
X12665786Y-7442028I-20000J0D01*
G01*
X12670612Y-8097602D02*
G75*
G03*
X12670612Y-8097602I-20000J0D01*
G01*
X12683484Y-6851970D02*
G75*
G03*
X12683484Y-6851970I-20000J0D01*
G01*
X12692120Y-6761800D02*
G75*
G03*
X12692120Y-6761800I-20000J0D01*
G01*
X12785420Y-6504260D02*
G75*
G03*
X12785420Y-6504260I-20000J0D01*
G01*
X12804724Y-12762312D02*
G75*
G03*
X12804724Y-12762312I-20000J0D01*
G01*
X12976000Y-4540000D02*
G75*
G03*
X12976000Y-4540000I-20000J0D01*
G01*
X12982000Y-4969000D02*
G75*
G03*
X12982000Y-4969000I-20000J0D01*
G01*
X12987000Y-4770000D02*
G75*
G03*
X12987000Y-4770000I-20000J0D01*
G01*
X13018338Y-4871294D02*
G75*
G03*
X13018338Y-4871294I-20000J0D01*
G01*
X13341934Y-4652346D02*
G75*
G03*
X13341934Y-4652346I-20000J0D01*
G01*
X13342442Y-4164158D02*
G75*
G03*
X13342442Y-4164158I-20000J0D01*
G01*
X13355000Y-5943316D02*
G75*
G03*
X13355000Y-5943316I-20000J0D01*
G01*
X13355000Y-6943314D02*
G75*
G03*
X13355000Y-6943314I-20000J0D01*
G01*
X13355000Y-7943312D02*
G75*
G03*
X13355000Y-7943312I-20000J0D01*
G01*
X13355000Y-8943310D02*
G75*
G03*
X13355000Y-8943310I-20000J0D01*
G01*
X13355000Y-9943308D02*
G75*
G03*
X13355000Y-9943308I-20000J0D01*
G01*
X13355000Y-10943306D02*
G75*
G03*
X13355000Y-10943306I-20000J0D01*
G01*
X13355000Y-11943304D02*
G75*
G03*
X13355000Y-11943304I-20000J0D01*
G01*
X13355000Y-12943302D02*
G75*
G03*
X13355000Y-12943302I-20000J0D01*
G01*
X13355000Y-13943300D02*
G75*
G03*
X13355000Y-13943300I-20000J0D01*
G01*
X13357682Y-5453716D02*
G75*
G03*
X13357682Y-5453716I-20000J0D01*
G01*
X13357682Y-6453714D02*
G75*
G03*
X13357682Y-6453714I-20000J0D01*
G01*
X13357682Y-7453712D02*
G75*
G03*
X13357682Y-7453712I-20000J0D01*
G01*
X13357682Y-8453710D02*
G75*
G03*
X13357682Y-8453710I-20000J0D01*
G01*
X13357682Y-10453706D02*
G75*
G03*
X13357682Y-10453706I-20000J0D01*
G01*
X13357682Y-11453704D02*
G75*
G03*
X13357682Y-11453704I-20000J0D01*
G01*
X13357682Y-12453702D02*
G75*
G03*
X13357682Y-12453702I-20000J0D01*
G01*
X13357682Y-13453700D02*
G75*
G03*
X13357682Y-13453700I-20000J0D01*
G01*
X13358190Y-9450660D02*
G75*
G03*
X13358190Y-9450660I-20000J0D01*
G01*
X13562660Y-9450660D02*
G75*
G03*
X13562660Y-9450660I-20000J0D01*
G01*
X13565000Y-4844062D02*
G75*
G03*
X13565000Y-4844062I-20000J0D01*
G01*
X13565000Y-5471442D02*
G75*
G03*
X13565000Y-5471442I-20000J0D01*
G01*
X13565000Y-5844060D02*
G75*
G03*
X13565000Y-5844060I-20000J0D01*
G01*
X13565000Y-6471440D02*
G75*
G03*
X13565000Y-6471440I-20000J0D01*
G01*
X13565000Y-6844058D02*
G75*
G03*
X13565000Y-6844058I-20000J0D01*
G01*
X13565000Y-7471438D02*
G75*
G03*
X13565000Y-7471438I-20000J0D01*
G01*
X13565000Y-7844056D02*
G75*
G03*
X13565000Y-7844056I-20000J0D01*
G01*
X13565000Y-8471436D02*
G75*
G03*
X13565000Y-8471436I-20000J0D01*
G01*
X13565000Y-8844054D02*
G75*
G03*
X13565000Y-8844054I-20000J0D01*
G01*
X13565000Y-9844052D02*
G75*
G03*
X13565000Y-9844052I-20000J0D01*
G01*
X13565000Y-10471432D02*
G75*
G03*
X13565000Y-10471432I-20000J0D01*
G01*
X13565000Y-10844050D02*
G75*
G03*
X13565000Y-10844050I-20000J0D01*
G01*
X13565000Y-11471430D02*
G75*
G03*
X13565000Y-11471430I-20000J0D01*
G01*
X13565000Y-11844048D02*
G75*
G03*
X13565000Y-11844048I-20000J0D01*
G01*
X13565000Y-12471428D02*
G75*
G03*
X13565000Y-12471428I-20000J0D01*
G01*
X13565000Y-12844046D02*
G75*
G03*
X13565000Y-12844046I-20000J0D01*
G01*
X13565000Y-13471426D02*
G75*
G03*
X13565000Y-13471426I-20000J0D01*
G01*
X13565000Y-13844044D02*
G75*
G03*
X13565000Y-13844044I-20000J0D01*
G01*
X13565200Y-4468450D02*
G75*
G03*
X13565200Y-4468450I-20000J0D01*
G01*
X14354998Y-4942810D02*
G75*
G03*
X14354998Y-4942810I-20000J0D01*
G01*
X14354998Y-5942808D02*
G75*
G03*
X14354998Y-5942808I-20000J0D01*
G01*
X14354998Y-6942806D02*
G75*
G03*
X14354998Y-6942806I-20000J0D01*
G01*
X14354998Y-7942804D02*
G75*
G03*
X14354998Y-7942804I-20000J0D01*
G01*
X14354998Y-8942802D02*
G75*
G03*
X14354998Y-8942802I-20000J0D01*
G01*
X14354998Y-9942800D02*
G75*
G03*
X14354998Y-9942800I-20000J0D01*
G01*
X14354998Y-10942798D02*
G75*
G03*
X14354998Y-10942798I-20000J0D01*
G01*
X14354998Y-11942796D02*
G75*
G03*
X14354998Y-11942796I-20000J0D01*
G01*
X14354998Y-12942794D02*
G75*
G03*
X14354998Y-12942794I-20000J0D01*
G01*
X14354998Y-13942792D02*
G75*
G03*
X14354998Y-13942792I-20000J0D01*
G01*
X14357680Y-4453210D02*
G75*
G03*
X14357680Y-4453210I-20000J0D01*
G01*
X14357680Y-5453208D02*
G75*
G03*
X14357680Y-5453208I-20000J0D01*
G01*
X14357680Y-6453206D02*
G75*
G03*
X14357680Y-6453206I-20000J0D01*
G01*
X14357680Y-7453204D02*
G75*
G03*
X14357680Y-7453204I-20000J0D01*
G01*
X14357680Y-8453202D02*
G75*
G03*
X14357680Y-8453202I-20000J0D01*
G01*
X14357680Y-9453200D02*
G75*
G03*
X14357680Y-9453200I-20000J0D01*
G01*
X14357680Y-10453198D02*
G75*
G03*
X14357680Y-10453198I-20000J0D01*
G01*
X14357680Y-11453196D02*
G75*
G03*
X14357680Y-11453196I-20000J0D01*
G01*
X14357680Y-12453194D02*
G75*
G03*
X14357680Y-12453194I-20000J0D01*
G01*
X14357680Y-13453192D02*
G75*
G03*
X14357680Y-13453192I-20000J0D01*
G01*
X14564998Y-4470936D02*
G75*
G03*
X14564998Y-4470936I-20000J0D01*
G01*
X14564998Y-4843554D02*
G75*
G03*
X14564998Y-4843554I-20000J0D01*
G01*
X14564998Y-5470934D02*
G75*
G03*
X14564998Y-5470934I-20000J0D01*
G01*
X14564998Y-5843552D02*
G75*
G03*
X14564998Y-5843552I-20000J0D01*
G01*
X14564998Y-6470932D02*
G75*
G03*
X14564998Y-6470932I-20000J0D01*
G01*
X14564998Y-6843550D02*
G75*
G03*
X14564998Y-6843550I-20000J0D01*
G01*
X14564998Y-7470930D02*
G75*
G03*
X14564998Y-7470930I-20000J0D01*
G01*
X14564998Y-7843548D02*
G75*
G03*
X14564998Y-7843548I-20000J0D01*
G01*
X14564998Y-8470928D02*
G75*
G03*
X14564998Y-8470928I-20000J0D01*
G01*
X14564998Y-8843546D02*
G75*
G03*
X14564998Y-8843546I-20000J0D01*
G01*
X14564998Y-9470926D02*
G75*
G03*
X14564998Y-9470926I-20000J0D01*
G01*
X14564998Y-9843544D02*
G75*
G03*
X14564998Y-9843544I-20000J0D01*
G01*
X14564998Y-10470924D02*
G75*
G03*
X14564998Y-10470924I-20000J0D01*
G01*
X14564998Y-10843542D02*
G75*
G03*
X14564998Y-10843542I-20000J0D01*
G01*
X14564998Y-11470922D02*
G75*
G03*
X14564998Y-11470922I-20000J0D01*
G01*
X14564998Y-11843540D02*
G75*
G03*
X14564998Y-11843540I-20000J0D01*
G01*
X14564998Y-12470920D02*
G75*
G03*
X14564998Y-12470920I-20000J0D01*
G01*
X14564998Y-12843538D02*
G75*
G03*
X14564998Y-12843538I-20000J0D01*
G01*
X14564998Y-13470918D02*
G75*
G03*
X14564998Y-13470918I-20000J0D01*
G01*
X14564998Y-13843536D02*
G75*
G03*
X14564998Y-13843536I-20000J0D01*
G01*
X15354234Y-4942810D02*
G75*
G03*
X15354234Y-4942810I-20000J0D01*
G01*
X15354234Y-5942808D02*
G75*
G03*
X15354234Y-5942808I-20000J0D01*
G01*
X15354234Y-6942806D02*
G75*
G03*
X15354234Y-6942806I-20000J0D01*
G01*
X15354234Y-7942804D02*
G75*
G03*
X15354234Y-7942804I-20000J0D01*
G01*
X15354234Y-8942802D02*
G75*
G03*
X15354234Y-8942802I-20000J0D01*
G01*
X15354234Y-9942800D02*
G75*
G03*
X15354234Y-9942800I-20000J0D01*
G01*
X15354234Y-10942798D02*
G75*
G03*
X15354234Y-10942798I-20000J0D01*
G01*
X15354234Y-11942796D02*
G75*
G03*
X15354234Y-11942796I-20000J0D01*
G01*
X15354234Y-12942794D02*
G75*
G03*
X15354234Y-12942794I-20000J0D01*
G01*
X15354234Y-13942792D02*
G75*
G03*
X15354234Y-13942792I-20000J0D01*
G01*
X15356916Y-4453210D02*
G75*
G03*
X15356916Y-4453210I-20000J0D01*
G01*
X15356916Y-5453208D02*
G75*
G03*
X15356916Y-5453208I-20000J0D01*
G01*
X15356916Y-6453206D02*
G75*
G03*
X15356916Y-6453206I-20000J0D01*
G01*
X15356916Y-7453204D02*
G75*
G03*
X15356916Y-7453204I-20000J0D01*
G01*
X15356916Y-8453202D02*
G75*
G03*
X15356916Y-8453202I-20000J0D01*
G01*
X15356916Y-9453200D02*
G75*
G03*
X15356916Y-9453200I-20000J0D01*
G01*
X15356916Y-10453198D02*
G75*
G03*
X15356916Y-10453198I-20000J0D01*
G01*
X15356916Y-11453196D02*
G75*
G03*
X15356916Y-11453196I-20000J0D01*
G01*
X15356916Y-12453194D02*
G75*
G03*
X15356916Y-12453194I-20000J0D01*
G01*
X15356916Y-13453192D02*
G75*
G03*
X15356916Y-13453192I-20000J0D01*
G01*
X15564234Y-4470936D02*
G75*
G03*
X15564234Y-4470936I-20000J0D01*
G01*
X15564234Y-4843554D02*
G75*
G03*
X15564234Y-4843554I-20000J0D01*
G01*
X15564234Y-5470934D02*
G75*
G03*
X15564234Y-5470934I-20000J0D01*
G01*
X15564234Y-5843552D02*
G75*
G03*
X15564234Y-5843552I-20000J0D01*
G01*
X15564234Y-6470932D02*
G75*
G03*
X15564234Y-6470932I-20000J0D01*
G01*
X15564234Y-6843550D02*
G75*
G03*
X15564234Y-6843550I-20000J0D01*
G01*
X15564234Y-7470930D02*
G75*
G03*
X15564234Y-7470930I-20000J0D01*
G01*
X15564234Y-7843548D02*
G75*
G03*
X15564234Y-7843548I-20000J0D01*
G01*
X15564234Y-8470928D02*
G75*
G03*
X15564234Y-8470928I-20000J0D01*
G01*
X15564234Y-8843546D02*
G75*
G03*
X15564234Y-8843546I-20000J0D01*
G01*
X15564234Y-9470926D02*
G75*
G03*
X15564234Y-9470926I-20000J0D01*
G01*
X15564234Y-9843544D02*
G75*
G03*
X15564234Y-9843544I-20000J0D01*
G01*
X15564234Y-10470924D02*
G75*
G03*
X15564234Y-10470924I-20000J0D01*
G01*
X15564234Y-10843542D02*
G75*
G03*
X15564234Y-10843542I-20000J0D01*
G01*
X15564234Y-11470922D02*
G75*
G03*
X15564234Y-11470922I-20000J0D01*
G01*
X15564234Y-11843540D02*
G75*
G03*
X15564234Y-11843540I-20000J0D01*
G01*
X15564234Y-12470920D02*
G75*
G03*
X15564234Y-12470920I-20000J0D01*
G01*
X15564234Y-12843538D02*
G75*
G03*
X15564234Y-12843538I-20000J0D01*
G01*
X15564234Y-13470918D02*
G75*
G03*
X15564234Y-13470918I-20000J0D01*
G01*
X15564234Y-13843536D02*
G75*
G03*
X15564234Y-13843536I-20000J0D01*
G01*
X16354740Y-4943064D02*
G75*
G03*
X16354740Y-4943064I-20000J0D01*
G01*
X16354740Y-5943062D02*
G75*
G03*
X16354740Y-5943062I-20000J0D01*
G01*
X16354740Y-6943060D02*
G75*
G03*
X16354740Y-6943060I-20000J0D01*
G01*
X16354740Y-7943058D02*
G75*
G03*
X16354740Y-7943058I-20000J0D01*
G01*
X16354740Y-8943056D02*
G75*
G03*
X16354740Y-8943056I-20000J0D01*
G01*
X16354740Y-9943054D02*
G75*
G03*
X16354740Y-9943054I-20000J0D01*
G01*
X16354740Y-10943052D02*
G75*
G03*
X16354740Y-10943052I-20000J0D01*
G01*
X16354740Y-11943050D02*
G75*
G03*
X16354740Y-11943050I-20000J0D01*
G01*
X16354740Y-12943048D02*
G75*
G03*
X16354740Y-12943048I-20000J0D01*
G01*
X16354740Y-13943046D02*
G75*
G03*
X16354740Y-13943046I-20000J0D01*
G01*
X16357422Y-4453464D02*
G75*
G03*
X16357422Y-4453464I-20000J0D01*
G01*
X16357422Y-5453462D02*
G75*
G03*
X16357422Y-5453462I-20000J0D01*
G01*
X16357422Y-6453460D02*
G75*
G03*
X16357422Y-6453460I-20000J0D01*
G01*
X16357422Y-7453458D02*
G75*
G03*
X16357422Y-7453458I-20000J0D01*
G01*
X16357422Y-8453456D02*
G75*
G03*
X16357422Y-8453456I-20000J0D01*
G01*
X16357422Y-9453454D02*
G75*
G03*
X16357422Y-9453454I-20000J0D01*
G01*
X16357422Y-10453452D02*
G75*
G03*
X16357422Y-10453452I-20000J0D01*
G01*
X16357422Y-11453450D02*
G75*
G03*
X16357422Y-11453450I-20000J0D01*
G01*
X16357422Y-12453448D02*
G75*
G03*
X16357422Y-12453448I-20000J0D01*
G01*
X16357422Y-13453446D02*
G75*
G03*
X16357422Y-13453446I-20000J0D01*
G01*
X16564740Y-4471190D02*
G75*
G03*
X16564740Y-4471190I-20000J0D01*
G01*
X16564740Y-4843808D02*
G75*
G03*
X16564740Y-4843808I-20000J0D01*
G01*
X16564740Y-5471188D02*
G75*
G03*
X16564740Y-5471188I-20000J0D01*
G01*
X16564740Y-5843806D02*
G75*
G03*
X16564740Y-5843806I-20000J0D01*
G01*
X16564740Y-6471186D02*
G75*
G03*
X16564740Y-6471186I-20000J0D01*
G01*
X16564740Y-6843804D02*
G75*
G03*
X16564740Y-6843804I-20000J0D01*
G01*
X16564740Y-7471184D02*
G75*
G03*
X16564740Y-7471184I-20000J0D01*
G01*
X16564740Y-7843802D02*
G75*
G03*
X16564740Y-7843802I-20000J0D01*
G01*
X16564740Y-8471182D02*
G75*
G03*
X16564740Y-8471182I-20000J0D01*
G01*
X16564740Y-8843800D02*
G75*
G03*
X16564740Y-8843800I-20000J0D01*
G01*
X16564740Y-9471180D02*
G75*
G03*
X16564740Y-9471180I-20000J0D01*
G01*
X16564740Y-9843798D02*
G75*
G03*
X16564740Y-9843798I-20000J0D01*
G01*
X16564740Y-10471178D02*
G75*
G03*
X16564740Y-10471178I-20000J0D01*
G01*
X16564740Y-10843796D02*
G75*
G03*
X16564740Y-10843796I-20000J0D01*
G01*
X16564740Y-11471176D02*
G75*
G03*
X16564740Y-11471176I-20000J0D01*
G01*
X16564740Y-11843794D02*
G75*
G03*
X16564740Y-11843794I-20000J0D01*
G01*
X16564740Y-12471174D02*
G75*
G03*
X16564740Y-12471174I-20000J0D01*
G01*
X16564740Y-12843792D02*
G75*
G03*
X16564740Y-12843792I-20000J0D01*
G01*
X16564740Y-13471172D02*
G75*
G03*
X16564740Y-13471172I-20000J0D01*
G01*
X16564740Y-13843790D02*
G75*
G03*
X16564740Y-13843790I-20000J0D01*
G01*
X17354738Y-4943064D02*
G75*
G03*
X17354738Y-4943064I-20000J0D01*
G01*
X17354738Y-5943062D02*
G75*
G03*
X17354738Y-5943062I-20000J0D01*
G01*
X17354738Y-6943060D02*
G75*
G03*
X17354738Y-6943060I-20000J0D01*
G01*
X17354738Y-7943058D02*
G75*
G03*
X17354738Y-7943058I-20000J0D01*
G01*
X17354738Y-8943056D02*
G75*
G03*
X17354738Y-8943056I-20000J0D01*
G01*
X17354738Y-9943054D02*
G75*
G03*
X17354738Y-9943054I-20000J0D01*
G01*
X17354738Y-10943052D02*
G75*
G03*
X17354738Y-10943052I-20000J0D01*
G01*
X17354738Y-11943050D02*
G75*
G03*
X17354738Y-11943050I-20000J0D01*
G01*
X17354738Y-12943048D02*
G75*
G03*
X17354738Y-12943048I-20000J0D01*
G01*
X17354738Y-13943046D02*
G75*
G03*
X17354738Y-13943046I-20000J0D01*
G01*
X17357420Y-4453464D02*
G75*
G03*
X17357420Y-4453464I-20000J0D01*
G01*
X17357420Y-5453462D02*
G75*
G03*
X17357420Y-5453462I-20000J0D01*
G01*
X17357420Y-6453460D02*
G75*
G03*
X17357420Y-6453460I-20000J0D01*
G01*
X17357420Y-7453458D02*
G75*
G03*
X17357420Y-7453458I-20000J0D01*
G01*
X17357420Y-8453456D02*
G75*
G03*
X17357420Y-8453456I-20000J0D01*
G01*
X17357420Y-9453454D02*
G75*
G03*
X17357420Y-9453454I-20000J0D01*
G01*
X17357420Y-10453452D02*
G75*
G03*
X17357420Y-10453452I-20000J0D01*
G01*
X17357420Y-11453450D02*
G75*
G03*
X17357420Y-11453450I-20000J0D01*
G01*
X17357420Y-12453448D02*
G75*
G03*
X17357420Y-12453448I-20000J0D01*
G01*
X17357420Y-13453446D02*
G75*
G03*
X17357420Y-13453446I-20000J0D01*
G01*
X17564738Y-4471190D02*
G75*
G03*
X17564738Y-4471190I-20000J0D01*
G01*
X17564738Y-4843808D02*
G75*
G03*
X17564738Y-4843808I-20000J0D01*
G01*
X17564738Y-5471188D02*
G75*
G03*
X17564738Y-5471188I-20000J0D01*
G01*
X17564738Y-5843806D02*
G75*
G03*
X17564738Y-5843806I-20000J0D01*
G01*
X17564738Y-6471186D02*
G75*
G03*
X17564738Y-6471186I-20000J0D01*
G01*
X17564738Y-6843804D02*
G75*
G03*
X17564738Y-6843804I-20000J0D01*
G01*
X17564738Y-7471184D02*
G75*
G03*
X17564738Y-7471184I-20000J0D01*
G01*
X17564738Y-7843802D02*
G75*
G03*
X17564738Y-7843802I-20000J0D01*
G01*
X17564738Y-8471182D02*
G75*
G03*
X17564738Y-8471182I-20000J0D01*
G01*
X17564738Y-8843800D02*
G75*
G03*
X17564738Y-8843800I-20000J0D01*
G01*
X17564738Y-9471180D02*
G75*
G03*
X17564738Y-9471180I-20000J0D01*
G01*
X17564738Y-9843798D02*
G75*
G03*
X17564738Y-9843798I-20000J0D01*
G01*
X17564738Y-10471178D02*
G75*
G03*
X17564738Y-10471178I-20000J0D01*
G01*
X17564738Y-10843796D02*
G75*
G03*
X17564738Y-10843796I-20000J0D01*
G01*
X17564738Y-11471176D02*
G75*
G03*
X17564738Y-11471176I-20000J0D01*
G01*
X17564738Y-11843794D02*
G75*
G03*
X17564738Y-11843794I-20000J0D01*
G01*
X17564738Y-12471174D02*
G75*
G03*
X17564738Y-12471174I-20000J0D01*
G01*
X17564738Y-12843792D02*
G75*
G03*
X17564738Y-12843792I-20000J0D01*
G01*
X17564738Y-13471172D02*
G75*
G03*
X17564738Y-13471172I-20000J0D01*
G01*
X17564738Y-13843790D02*
G75*
G03*
X17564738Y-13843790I-20000J0D01*
G01*
X18354990Y-4943572D02*
G75*
G03*
X18354990Y-4943572I-20000J0D01*
G01*
X18354990Y-5943570D02*
G75*
G03*
X18354990Y-5943570I-20000J0D01*
G01*
X18354990Y-6943568D02*
G75*
G03*
X18354990Y-6943568I-20000J0D01*
G01*
X18354990Y-7943566D02*
G75*
G03*
X18354990Y-7943566I-20000J0D01*
G01*
X18354990Y-8943564D02*
G75*
G03*
X18354990Y-8943564I-20000J0D01*
G01*
X18354990Y-9943562D02*
G75*
G03*
X18354990Y-9943562I-20000J0D01*
G01*
X18354990Y-10943560D02*
G75*
G03*
X18354990Y-10943560I-20000J0D01*
G01*
X18354990Y-11943558D02*
G75*
G03*
X18354990Y-11943558I-20000J0D01*
G01*
X18354990Y-12943556D02*
G75*
G03*
X18354990Y-12943556I-20000J0D01*
G01*
X18354990Y-13943554D02*
G75*
G03*
X18354990Y-13943554I-20000J0D01*
G01*
X18357672Y-4453972D02*
G75*
G03*
X18357672Y-4453972I-20000J0D01*
G01*
X18357672Y-5453970D02*
G75*
G03*
X18357672Y-5453970I-20000J0D01*
G01*
X18357672Y-6453968D02*
G75*
G03*
X18357672Y-6453968I-20000J0D01*
G01*
X18357672Y-7453966D02*
G75*
G03*
X18357672Y-7453966I-20000J0D01*
G01*
X18357672Y-8453964D02*
G75*
G03*
X18357672Y-8453964I-20000J0D01*
G01*
X18357672Y-9453962D02*
G75*
G03*
X18357672Y-9453962I-20000J0D01*
G01*
X18357672Y-10453960D02*
G75*
G03*
X18357672Y-10453960I-20000J0D01*
G01*
X18357672Y-11453958D02*
G75*
G03*
X18357672Y-11453958I-20000J0D01*
G01*
X18357672Y-12453956D02*
G75*
G03*
X18357672Y-12453956I-20000J0D01*
G01*
X18357672Y-13453954D02*
G75*
G03*
X18357672Y-13453954I-20000J0D01*
G01*
X18564990Y-4471698D02*
G75*
G03*
X18564990Y-4471698I-20000J0D01*
G01*
X18564990Y-4844316D02*
G75*
G03*
X18564990Y-4844316I-20000J0D01*
G01*
X18564990Y-5471696D02*
G75*
G03*
X18564990Y-5471696I-20000J0D01*
G01*
X18564990Y-5844314D02*
G75*
G03*
X18564990Y-5844314I-20000J0D01*
G01*
X18564990Y-6471694D02*
G75*
G03*
X18564990Y-6471694I-20000J0D01*
G01*
X18564990Y-6844312D02*
G75*
G03*
X18564990Y-6844312I-20000J0D01*
G01*
X18564990Y-7471692D02*
G75*
G03*
X18564990Y-7471692I-20000J0D01*
G01*
X18564990Y-7844310D02*
G75*
G03*
X18564990Y-7844310I-20000J0D01*
G01*
X18564990Y-8471690D02*
G75*
G03*
X18564990Y-8471690I-20000J0D01*
G01*
X18564990Y-8844308D02*
G75*
G03*
X18564990Y-8844308I-20000J0D01*
G01*
X18564990Y-9471688D02*
G75*
G03*
X18564990Y-9471688I-20000J0D01*
G01*
X18564990Y-9844306D02*
G75*
G03*
X18564990Y-9844306I-20000J0D01*
G01*
X18564990Y-10471686D02*
G75*
G03*
X18564990Y-10471686I-20000J0D01*
G01*
X18564990Y-10844304D02*
G75*
G03*
X18564990Y-10844304I-20000J0D01*
G01*
X18564990Y-11471684D02*
G75*
G03*
X18564990Y-11471684I-20000J0D01*
G01*
X18564990Y-11844302D02*
G75*
G03*
X18564990Y-11844302I-20000J0D01*
G01*
X18564990Y-12471682D02*
G75*
G03*
X18564990Y-12471682I-20000J0D01*
G01*
X18564990Y-12844300D02*
G75*
G03*
X18564990Y-12844300I-20000J0D01*
G01*
X18564990Y-13471680D02*
G75*
G03*
X18564990Y-13471680I-20000J0D01*
G01*
X18564990Y-13844298D02*
G75*
G03*
X18564990Y-13844298I-20000J0D01*
G01*
X19354734Y-4943318D02*
G75*
G03*
X19354734Y-4943318I-20000J0D01*
G01*
X19354734Y-5943316D02*
G75*
G03*
X19354734Y-5943316I-20000J0D01*
G01*
X19354734Y-6943314D02*
G75*
G03*
X19354734Y-6943314I-20000J0D01*
G01*
X19354734Y-7943312D02*
G75*
G03*
X19354734Y-7943312I-20000J0D01*
G01*
X19354734Y-8943310D02*
G75*
G03*
X19354734Y-8943310I-20000J0D01*
G01*
X19354734Y-9943308D02*
G75*
G03*
X19354734Y-9943308I-20000J0D01*
G01*
X19354734Y-10943306D02*
G75*
G03*
X19354734Y-10943306I-20000J0D01*
G01*
X19354734Y-11943304D02*
G75*
G03*
X19354734Y-11943304I-20000J0D01*
G01*
X19354734Y-12943302D02*
G75*
G03*
X19354734Y-12943302I-20000J0D01*
G01*
X19354734Y-13943300D02*
G75*
G03*
X19354734Y-13943300I-20000J0D01*
G01*
X19357416Y-4453718D02*
G75*
G03*
X19357416Y-4453718I-20000J0D01*
G01*
X19357416Y-5453716D02*
G75*
G03*
X19357416Y-5453716I-20000J0D01*
G01*
X19357416Y-6453714D02*
G75*
G03*
X19357416Y-6453714I-20000J0D01*
G01*
X19357416Y-7453712D02*
G75*
G03*
X19357416Y-7453712I-20000J0D01*
G01*
X19357416Y-8453710D02*
G75*
G03*
X19357416Y-8453710I-20000J0D01*
G01*
X19357416Y-9453708D02*
G75*
G03*
X19357416Y-9453708I-20000J0D01*
G01*
X19357416Y-10453706D02*
G75*
G03*
X19357416Y-10453706I-20000J0D01*
G01*
X19357416Y-11453704D02*
G75*
G03*
X19357416Y-11453704I-20000J0D01*
G01*
X19357416Y-12453702D02*
G75*
G03*
X19357416Y-12453702I-20000J0D01*
G01*
X19357416Y-13453700D02*
G75*
G03*
X19357416Y-13453700I-20000J0D01*
G01*
X19564734Y-4471444D02*
G75*
G03*
X19564734Y-4471444I-20000J0D01*
G01*
X19564734Y-4844062D02*
G75*
G03*
X19564734Y-4844062I-20000J0D01*
G01*
X19564734Y-5471442D02*
G75*
G03*
X19564734Y-5471442I-20000J0D01*
G01*
X19564734Y-5844060D02*
G75*
G03*
X19564734Y-5844060I-20000J0D01*
G01*
X19564734Y-6471440D02*
G75*
G03*
X19564734Y-6471440I-20000J0D01*
G01*
X19564734Y-6844058D02*
G75*
G03*
X19564734Y-6844058I-20000J0D01*
G01*
X19564734Y-7471438D02*
G75*
G03*
X19564734Y-7471438I-20000J0D01*
G01*
X19564734Y-7844056D02*
G75*
G03*
X19564734Y-7844056I-20000J0D01*
G01*
X19564734Y-8471436D02*
G75*
G03*
X19564734Y-8471436I-20000J0D01*
G01*
X19564734Y-8844054D02*
G75*
G03*
X19564734Y-8844054I-20000J0D01*
G01*
X19564734Y-9471434D02*
G75*
G03*
X19564734Y-9471434I-20000J0D01*
G01*
X19564734Y-9844052D02*
G75*
G03*
X19564734Y-9844052I-20000J0D01*
G01*
X19564734Y-10471432D02*
G75*
G03*
X19564734Y-10471432I-20000J0D01*
G01*
X19564734Y-10844050D02*
G75*
G03*
X19564734Y-10844050I-20000J0D01*
G01*
X19564734Y-11471430D02*
G75*
G03*
X19564734Y-11471430I-20000J0D01*
G01*
X19564734Y-11844048D02*
G75*
G03*
X19564734Y-11844048I-20000J0D01*
G01*
X19564734Y-12471428D02*
G75*
G03*
X19564734Y-12471428I-20000J0D01*
G01*
X19564734Y-12844046D02*
G75*
G03*
X19564734Y-12844046I-20000J0D01*
G01*
X19564734Y-13471426D02*
G75*
G03*
X19564734Y-13471426I-20000J0D01*
G01*
X19564734Y-13844044D02*
G75*
G03*
X19564734Y-13844044I-20000J0D01*
G01*
X20354732Y-4943318D02*
G75*
G03*
X20354732Y-4943318I-20000J0D01*
G01*
X20354732Y-5943316D02*
G75*
G03*
X20354732Y-5943316I-20000J0D01*
G01*
X20354732Y-6943314D02*
G75*
G03*
X20354732Y-6943314I-20000J0D01*
G01*
X20354732Y-7943312D02*
G75*
G03*
X20354732Y-7943312I-20000J0D01*
G01*
X20354732Y-8943310D02*
G75*
G03*
X20354732Y-8943310I-20000J0D01*
G01*
X20354732Y-9943308D02*
G75*
G03*
X20354732Y-9943308I-20000J0D01*
G01*
X20354732Y-10943306D02*
G75*
G03*
X20354732Y-10943306I-20000J0D01*
G01*
X20354732Y-11943304D02*
G75*
G03*
X20354732Y-11943304I-20000J0D01*
G01*
X20354732Y-12943302D02*
G75*
G03*
X20354732Y-12943302I-20000J0D01*
G01*
X20354732Y-13943300D02*
G75*
G03*
X20354732Y-13943300I-20000J0D01*
G01*
X20357414Y-4453718D02*
G75*
G03*
X20357414Y-4453718I-20000J0D01*
G01*
X20357414Y-5453716D02*
G75*
G03*
X20357414Y-5453716I-20000J0D01*
G01*
X20357414Y-6453714D02*
G75*
G03*
X20357414Y-6453714I-20000J0D01*
G01*
X20357414Y-7453712D02*
G75*
G03*
X20357414Y-7453712I-20000J0D01*
G01*
X20357414Y-8453710D02*
G75*
G03*
X20357414Y-8453710I-20000J0D01*
G01*
X20357414Y-9453708D02*
G75*
G03*
X20357414Y-9453708I-20000J0D01*
G01*
X20357414Y-10453706D02*
G75*
G03*
X20357414Y-10453706I-20000J0D01*
G01*
X20357414Y-11453704D02*
G75*
G03*
X20357414Y-11453704I-20000J0D01*
G01*
X20357414Y-12453702D02*
G75*
G03*
X20357414Y-12453702I-20000J0D01*
G01*
X20357414Y-13453700D02*
G75*
G03*
X20357414Y-13453700I-20000J0D01*
G01*
X20564732Y-4471444D02*
G75*
G03*
X20564732Y-4471444I-20000J0D01*
G01*
X20564732Y-4844062D02*
G75*
G03*
X20564732Y-4844062I-20000J0D01*
G01*
X20564732Y-5471442D02*
G75*
G03*
X20564732Y-5471442I-20000J0D01*
G01*
X20564732Y-5844060D02*
G75*
G03*
X20564732Y-5844060I-20000J0D01*
G01*
X20564732Y-6471440D02*
G75*
G03*
X20564732Y-6471440I-20000J0D01*
G01*
X20564732Y-6844058D02*
G75*
G03*
X20564732Y-6844058I-20000J0D01*
G01*
X20564732Y-7471438D02*
G75*
G03*
X20564732Y-7471438I-20000J0D01*
G01*
X20564732Y-7844056D02*
G75*
G03*
X20564732Y-7844056I-20000J0D01*
G01*
X20564732Y-8471436D02*
G75*
G03*
X20564732Y-8471436I-20000J0D01*
G01*
X20564732Y-8844054D02*
G75*
G03*
X20564732Y-8844054I-20000J0D01*
G01*
X20564732Y-9471434D02*
G75*
G03*
X20564732Y-9471434I-20000J0D01*
G01*
X20564732Y-9844052D02*
G75*
G03*
X20564732Y-9844052I-20000J0D01*
G01*
X20564732Y-10471432D02*
G75*
G03*
X20564732Y-10471432I-20000J0D01*
G01*
X20564732Y-10844050D02*
G75*
G03*
X20564732Y-10844050I-20000J0D01*
G01*
X20564732Y-11471430D02*
G75*
G03*
X20564732Y-11471430I-20000J0D01*
G01*
X20564732Y-11844048D02*
G75*
G03*
X20564732Y-11844048I-20000J0D01*
G01*
X20564732Y-12471428D02*
G75*
G03*
X20564732Y-12471428I-20000J0D01*
G01*
X20564732Y-12844046D02*
G75*
G03*
X20564732Y-12844046I-20000J0D01*
G01*
X20564732Y-13471426D02*
G75*
G03*
X20564732Y-13471426I-20000J0D01*
G01*
X20564732Y-13844044D02*
G75*
G03*
X20564732Y-13844044I-20000J0D01*
G01*
X21354730Y-4943318D02*
G75*
G03*
X21354730Y-4943318I-20000J0D01*
G01*
X21354730Y-5943316D02*
G75*
G03*
X21354730Y-5943316I-20000J0D01*
G01*
X21354730Y-6943314D02*
G75*
G03*
X21354730Y-6943314I-20000J0D01*
G01*
X21354730Y-7943312D02*
G75*
G03*
X21354730Y-7943312I-20000J0D01*
G01*
X21354730Y-8943310D02*
G75*
G03*
X21354730Y-8943310I-20000J0D01*
G01*
X21354730Y-9943308D02*
G75*
G03*
X21354730Y-9943308I-20000J0D01*
G01*
X21354730Y-10943306D02*
G75*
G03*
X21354730Y-10943306I-20000J0D01*
G01*
X21354730Y-11943304D02*
G75*
G03*
X21354730Y-11943304I-20000J0D01*
G01*
X21354730Y-12943302D02*
G75*
G03*
X21354730Y-12943302I-20000J0D01*
G01*
X21354730Y-13943300D02*
G75*
G03*
X21354730Y-13943300I-20000J0D01*
G01*
X21357412Y-4453718D02*
G75*
G03*
X21357412Y-4453718I-20000J0D01*
G01*
X21357412Y-5453716D02*
G75*
G03*
X21357412Y-5453716I-20000J0D01*
G01*
X21357412Y-6453714D02*
G75*
G03*
X21357412Y-6453714I-20000J0D01*
G01*
X21357412Y-7453712D02*
G75*
G03*
X21357412Y-7453712I-20000J0D01*
G01*
X21357412Y-8453710D02*
G75*
G03*
X21357412Y-8453710I-20000J0D01*
G01*
X21357412Y-9453708D02*
G75*
G03*
X21357412Y-9453708I-20000J0D01*
G01*
X21357412Y-10453706D02*
G75*
G03*
X21357412Y-10453706I-20000J0D01*
G01*
X21357412Y-11453704D02*
G75*
G03*
X21357412Y-11453704I-20000J0D01*
G01*
X21357412Y-12453702D02*
G75*
G03*
X21357412Y-12453702I-20000J0D01*
G01*
X21357412Y-13453700D02*
G75*
G03*
X21357412Y-13453700I-20000J0D01*
G01*
X21564730Y-4471444D02*
G75*
G03*
X21564730Y-4471444I-20000J0D01*
G01*
X21564730Y-4844062D02*
G75*
G03*
X21564730Y-4844062I-20000J0D01*
G01*
X21564730Y-5471442D02*
G75*
G03*
X21564730Y-5471442I-20000J0D01*
G01*
X21564730Y-5844060D02*
G75*
G03*
X21564730Y-5844060I-20000J0D01*
G01*
X21564730Y-6471440D02*
G75*
G03*
X21564730Y-6471440I-20000J0D01*
G01*
X21564730Y-6844058D02*
G75*
G03*
X21564730Y-6844058I-20000J0D01*
G01*
X21564730Y-7471438D02*
G75*
G03*
X21564730Y-7471438I-20000J0D01*
G01*
X21564730Y-7844056D02*
G75*
G03*
X21564730Y-7844056I-20000J0D01*
G01*
X21564730Y-8471436D02*
G75*
G03*
X21564730Y-8471436I-20000J0D01*
G01*
X21564730Y-8844054D02*
G75*
G03*
X21564730Y-8844054I-20000J0D01*
G01*
X21564730Y-9471434D02*
G75*
G03*
X21564730Y-9471434I-20000J0D01*
G01*
X21564730Y-9844052D02*
G75*
G03*
X21564730Y-9844052I-20000J0D01*
G01*
X21564730Y-10471432D02*
G75*
G03*
X21564730Y-10471432I-20000J0D01*
G01*
X21564730Y-10844050D02*
G75*
G03*
X21564730Y-10844050I-20000J0D01*
G01*
X21564730Y-11471430D02*
G75*
G03*
X21564730Y-11471430I-20000J0D01*
G01*
X21564730Y-11844048D02*
G75*
G03*
X21564730Y-11844048I-20000J0D01*
G01*
X21564730Y-12471428D02*
G75*
G03*
X21564730Y-12471428I-20000J0D01*
G01*
X21564730Y-12844046D02*
G75*
G03*
X21564730Y-12844046I-20000J0D01*
G01*
X21564730Y-13471426D02*
G75*
G03*
X21564730Y-13471426I-20000J0D01*
G01*
X21564730Y-13844044D02*
G75*
G03*
X21564730Y-13844044I-20000J0D01*
G01*
X22354474Y-4943064D02*
G75*
G03*
X22354474Y-4943064I-20000J0D01*
G01*
X22354474Y-5943062D02*
G75*
G03*
X22354474Y-5943062I-20000J0D01*
G01*
X22354474Y-6943060D02*
G75*
G03*
X22354474Y-6943060I-20000J0D01*
G01*
X22354474Y-7943058D02*
G75*
G03*
X22354474Y-7943058I-20000J0D01*
G01*
X22354474Y-8943056D02*
G75*
G03*
X22354474Y-8943056I-20000J0D01*
G01*
X22354474Y-9943054D02*
G75*
G03*
X22354474Y-9943054I-20000J0D01*
G01*
X22354474Y-10943052D02*
G75*
G03*
X22354474Y-10943052I-20000J0D01*
G01*
X22354474Y-11943050D02*
G75*
G03*
X22354474Y-11943050I-20000J0D01*
G01*
X22354474Y-12943048D02*
G75*
G03*
X22354474Y-12943048I-20000J0D01*
G01*
X22354474Y-13943046D02*
G75*
G03*
X22354474Y-13943046I-20000J0D01*
G01*
X22357156Y-4453464D02*
G75*
G03*
X22357156Y-4453464I-20000J0D01*
G01*
X22357156Y-5453462D02*
G75*
G03*
X22357156Y-5453462I-20000J0D01*
G01*
X22357156Y-6453460D02*
G75*
G03*
X22357156Y-6453460I-20000J0D01*
G01*
X22357156Y-7453458D02*
G75*
G03*
X22357156Y-7453458I-20000J0D01*
G01*
X22357156Y-8453456D02*
G75*
G03*
X22357156Y-8453456I-20000J0D01*
G01*
X22357156Y-9453454D02*
G75*
G03*
X22357156Y-9453454I-20000J0D01*
G01*
X22357156Y-10453452D02*
G75*
G03*
X22357156Y-10453452I-20000J0D01*
G01*
X22357156Y-11453450D02*
G75*
G03*
X22357156Y-11453450I-20000J0D01*
G01*
X22357156Y-12453448D02*
G75*
G03*
X22357156Y-12453448I-20000J0D01*
G01*
X22357156Y-13453446D02*
G75*
G03*
X22357156Y-13453446I-20000J0D01*
G01*
X22564474Y-4471190D02*
G75*
G03*
X22564474Y-4471190I-20000J0D01*
G01*
X22564474Y-4843808D02*
G75*
G03*
X22564474Y-4843808I-20000J0D01*
G01*
X22564474Y-5471188D02*
G75*
G03*
X22564474Y-5471188I-20000J0D01*
G01*
X22564474Y-5843806D02*
G75*
G03*
X22564474Y-5843806I-20000J0D01*
G01*
X22564474Y-6471186D02*
G75*
G03*
X22564474Y-6471186I-20000J0D01*
G01*
X22564474Y-6843804D02*
G75*
G03*
X22564474Y-6843804I-20000J0D01*
G01*
X22564474Y-7471184D02*
G75*
G03*
X22564474Y-7471184I-20000J0D01*
G01*
X22564474Y-7843802D02*
G75*
G03*
X22564474Y-7843802I-20000J0D01*
G01*
X22564474Y-8471182D02*
G75*
G03*
X22564474Y-8471182I-20000J0D01*
G01*
X22564474Y-8843800D02*
G75*
G03*
X22564474Y-8843800I-20000J0D01*
G01*
X22564474Y-9471180D02*
G75*
G03*
X22564474Y-9471180I-20000J0D01*
G01*
X22564474Y-9843798D02*
G75*
G03*
X22564474Y-9843798I-20000J0D01*
G01*
X22564474Y-10471178D02*
G75*
G03*
X22564474Y-10471178I-20000J0D01*
G01*
X22564474Y-10843796D02*
G75*
G03*
X22564474Y-10843796I-20000J0D01*
G01*
X22564474Y-11471176D02*
G75*
G03*
X22564474Y-11471176I-20000J0D01*
G01*
X22564474Y-11843794D02*
G75*
G03*
X22564474Y-11843794I-20000J0D01*
G01*
X22564474Y-12471174D02*
G75*
G03*
X22564474Y-12471174I-20000J0D01*
G01*
X22564474Y-12843792D02*
G75*
G03*
X22564474Y-12843792I-20000J0D01*
G01*
X22564474Y-13471172D02*
G75*
G03*
X22564474Y-13471172I-20000J0D01*
G01*
X22564474Y-13843790D02*
G75*
G03*
X22564474Y-13843790I-20000J0D01*
G01*
X6620398Y-6857894D02*
X6620398Y-6917894D01*
X6590398Y-6887894D02*
X6650398Y-6887894D01*
X6620398Y-6982894D02*
X6620398Y-7042894D01*
X6590398Y-7012894D02*
X6650398Y-7012894D01*
X6620398Y-7107894D02*
X6620398Y-7167894D01*
X6590398Y-7137894D02*
X6650398Y-7137894D01*
X6620398Y-7232894D02*
X6620398Y-7292894D01*
X6590398Y-7262894D02*
X6650398Y-7262894D01*
X6620398Y-7357894D02*
X6620398Y-7417894D01*
X6590398Y-7387894D02*
X6650398Y-7387894D01*
X6620398Y-7482894D02*
X6620398Y-7542894D01*
X6590398Y-7512894D02*
X6650398Y-7512894D01*
X6620398Y-7999793D02*
X6620398Y-8059793D01*
X6590398Y-8029793D02*
X6650398Y-8029793D01*
X6620398Y-8124793D02*
X6620398Y-8184793D01*
X6590398Y-8154793D02*
X6650398Y-8154793D01*
X6620398Y-8249793D02*
X6620398Y-8309793D01*
X6590398Y-8279793D02*
X6650398Y-8279793D01*
X6620398Y-8374793D02*
X6620398Y-8434793D01*
X6590398Y-8404793D02*
X6650398Y-8404793D01*
X6620398Y-8499793D02*
X6620398Y-8559793D01*
X6590398Y-8529793D02*
X6650398Y-8529793D01*
X6620398Y-8624793D02*
X6620398Y-8684793D01*
X6590398Y-8654793D02*
X6650398Y-8654793D01*
X6620398Y-9141693D02*
X6620398Y-9201693D01*
X6590398Y-9171693D02*
X6650398Y-9171693D01*
X6620398Y-9266693D02*
X6620398Y-9326693D01*
X6590398Y-9296693D02*
X6650398Y-9296693D01*
X6620398Y-9391693D02*
X6620398Y-9451693D01*
X6590398Y-9421693D02*
X6650398Y-9421693D01*
X6620398Y-9516693D02*
X6620398Y-9576693D01*
X6590398Y-9546693D02*
X6650398Y-9546693D01*
X6620398Y-9641693D02*
X6620398Y-9701693D01*
X6590398Y-9671693D02*
X6650398Y-9671693D01*
X6620398Y-9766693D02*
X6620398Y-9826693D01*
X6590398Y-9796693D02*
X6650398Y-9796693D01*
X6620398Y-10283592D02*
X6620398Y-10343592D01*
X6590398Y-10313592D02*
X6650398Y-10313592D01*
X6620398Y-10408592D02*
X6620398Y-10468592D01*
X6590398Y-10438592D02*
X6650398Y-10438592D01*
X6620398Y-10533592D02*
X6620398Y-10593592D01*
X6590398Y-10563592D02*
X6650398Y-10563592D01*
X6620398Y-10658592D02*
X6620398Y-10718592D01*
X6590398Y-10688592D02*
X6650398Y-10688592D01*
X6620398Y-10783592D02*
X6620398Y-10843592D01*
X6590398Y-10813592D02*
X6650398Y-10813592D01*
X6620398Y-10908592D02*
X6620398Y-10968592D01*
X6590398Y-10938592D02*
X6650398Y-10938592D01*
X6621160Y-12351088D02*
X6621160Y-12411088D01*
X6591160Y-12381088D02*
X6651160Y-12381088D01*
X6621160Y-12476088D02*
X6621160Y-12536088D01*
X6591160Y-12506088D02*
X6651160Y-12506088D01*
X6621160Y-12601088D02*
X6621160Y-12661088D01*
X6591160Y-12631088D02*
X6651160Y-12631088D01*
X6621160Y-12726088D02*
X6621160Y-12786088D01*
X6591160Y-12756088D02*
X6651160Y-12756088D01*
X6621160Y-12851088D02*
X6621160Y-12911088D01*
X6591160Y-12881088D02*
X6651160Y-12881088D01*
X6621160Y-12976088D02*
X6621160Y-13036088D01*
X6591160Y-13006088D02*
X6651160Y-13006088D01*
X6621160Y-13101088D02*
X6621160Y-13161088D01*
X6591160Y-13131088D02*
X6651160Y-13131088D01*
X6621160Y-13226088D02*
X6621160Y-13286088D01*
X6591160Y-13256088D02*
X6651160Y-13256088D01*
X6347652Y-4134744D02*
X6347652Y-4064032D01*
X6276940Y-4064032D01*
X6276940Y-4134744D01*
X6347652Y-4134744D01*
X6347652Y-4391792D02*
X6347652Y-4321080D01*
X6276940Y-4321080D01*
X6276940Y-4391792D01*
X6347652Y-4391792D01*
X6348414Y-3981074D02*
X6348414Y-3910362D01*
X6277702Y-3910362D01*
X6277702Y-3981074D01*
X6348414Y-3981074D01*
X6348668Y-4539874D02*
X6348668Y-4469162D01*
X6277956Y-4469162D01*
X6277956Y-4539874D01*
X6348668Y-4539874D01*
X7135814Y-3749172D02*
X7135814Y-3678460D01*
X7065102Y-3678460D01*
X7065102Y-3749172D01*
X7135814Y-3749172D01*
X7135814Y-4020698D02*
X7135814Y-3949986D01*
X7065102Y-3949986D01*
X7065102Y-4020698D01*
X7135814Y-4020698D01*
X7135814Y-4292224D02*
X7135814Y-4221512D01*
X7065102Y-4221512D01*
X7065102Y-4292224D01*
X7135814Y-4292224D01*
X7135814Y-4563750D02*
X7135814Y-4493038D01*
X7065102Y-4493038D01*
X7065102Y-4563750D01*
X7135814Y-4563750D01*
X7135814Y-4835276D02*
X7135814Y-4764564D01*
X7065102Y-4764564D01*
X7065102Y-4835276D01*
X7135814Y-4835276D01*
X7135814Y-5106802D02*
X7135814Y-5036090D01*
X7065102Y-5036090D01*
X7065102Y-5106802D01*
X7135814Y-5106802D01*
X7135814Y-5378328D02*
X7135814Y-5307616D01*
X7065102Y-5307616D01*
X7065102Y-5378328D01*
X7135814Y-5378328D01*
X7494716Y-5723260D02*
X7494716Y-5652548D01*
X7424004Y-5652548D01*
X7424004Y-5723260D01*
X7494716Y-5723260D01*
X7505892Y-6156076D02*
X7505892Y-6085364D01*
X7435180Y-6085364D01*
X7435180Y-6156076D01*
X7505892Y-6156076D01*
X7579552Y-9838060D02*
X7579552Y-9767348D01*
X7508840Y-9767348D01*
X7508840Y-9838060D01*
X7579552Y-9838060D01*
X7605714Y-7806060D02*
X7605714Y-7735348D01*
X7535002Y-7735348D01*
X7535002Y-7806060D01*
X7605714Y-7806060D01*
X7611810Y-3401700D02*
X7611810Y-3330988D01*
X7541098Y-3330988D01*
X7541098Y-3401700D01*
X7611810Y-3401700D01*
X7611810Y-3661034D02*
X7611810Y-3590322D01*
X7541098Y-3590322D01*
X7541098Y-3661034D01*
X7611810Y-3661034D01*
X7618160Y-3942466D02*
X7618160Y-3871754D01*
X7547448Y-3871754D01*
X7547448Y-3942466D01*
X7618160Y-3942466D01*
X7674040Y-5724784D02*
X7674040Y-5654072D01*
X7603328Y-5654072D01*
X7603328Y-5724784D01*
X7674040Y-5724784D01*
X7716966Y-10231252D02*
X7716966Y-10160540D01*
X7646254Y-10160540D01*
X7646254Y-10231252D01*
X7716966Y-10231252D01*
X7743128Y-8199252D02*
X7743128Y-8128540D01*
X7672416Y-8128540D01*
X7672416Y-8199252D01*
X7743128Y-8199252D01*
X7818566Y-6801236D02*
X7818566Y-6730524D01*
X7747854Y-6730524D01*
X7747854Y-6801236D01*
X7818566Y-6801236D01*
X7819328Y-6635120D02*
X7819328Y-6564408D01*
X7748616Y-6564408D01*
X7748616Y-6635120D01*
X7819328Y-6635120D01*
X7831266Y-9839584D02*
X7831266Y-9768872D01*
X7760554Y-9768872D01*
X7760554Y-9839584D01*
X7831266Y-9839584D01*
X7844220Y-5723514D02*
X7844220Y-5652802D01*
X7773508Y-5652802D01*
X7773508Y-5723514D01*
X7844220Y-5723514D01*
X7854634Y-7807838D02*
X7854634Y-7737126D01*
X7783922Y-7737126D01*
X7783922Y-7807838D01*
X7854634Y-7807838D01*
X7861365Y-3401700D02*
X7861365Y-3330988D01*
X7790653Y-3330988D01*
X7790653Y-3401700D01*
X7861365Y-3401700D01*
X7861365Y-3661034D02*
X7861365Y-3590322D01*
X7790653Y-3590322D01*
X7790653Y-3661034D01*
X7861365Y-3661034D01*
X7867715Y-3942466D02*
X7867715Y-3871754D01*
X7797003Y-3871754D01*
X7797003Y-3942466D01*
X7867715Y-3942466D01*
X7884860Y-6454780D02*
X7884860Y-6384068D01*
X7814148Y-6384068D01*
X7814148Y-6454780D01*
X7884860Y-6454780D01*
X7904164Y-6105022D02*
X7904164Y-6034310D01*
X7833452Y-6034310D01*
X7833452Y-6105022D01*
X7904164Y-6105022D01*
X7904164Y-6250310D02*
X7904164Y-6179598D01*
X7833452Y-6179598D01*
X7833452Y-6250310D01*
X7904164Y-6250310D01*
X8081202Y-10893684D02*
X8081202Y-10822972D01*
X8010490Y-10822972D01*
X8010490Y-10893684D01*
X8081202Y-10893684D01*
X8081964Y-10727568D02*
X8081964Y-10656856D01*
X8011252Y-10656856D01*
X8011252Y-10727568D01*
X8081964Y-10727568D01*
X8085012Y-10554594D02*
X8085012Y-10483882D01*
X8014300Y-10483882D01*
X8014300Y-10554594D01*
X8085012Y-10554594D01*
X8087044Y-9838060D02*
X8087044Y-9767348D01*
X8016332Y-9767348D01*
X8016332Y-9838060D01*
X8087044Y-9838060D01*
X8104062Y-8873114D02*
X8104062Y-8802402D01*
X8033350Y-8802402D01*
X8033350Y-8873114D01*
X8104062Y-8873114D01*
X8104824Y-8706998D02*
X8104824Y-8636286D01*
X8034112Y-8636286D01*
X8034112Y-8706998D01*
X8104824Y-8706998D01*
X8107872Y-8534024D02*
X8107872Y-8463312D01*
X8037160Y-8463312D01*
X8037160Y-8534024D01*
X8107872Y-8534024D01*
X8110920Y-3401700D02*
X8110920Y-3330988D01*
X8040208Y-3330988D01*
X8040208Y-3401700D01*
X8110920Y-3401700D01*
X8110920Y-3661034D02*
X8110920Y-3590322D01*
X8040208Y-3590322D01*
X8040208Y-3661034D01*
X8110920Y-3661034D01*
X8113206Y-7806060D02*
X8113206Y-7735348D01*
X8042494Y-7735348D01*
X8042494Y-7806060D01*
X8113206Y-7806060D01*
X8117270Y-3942466D02*
X8117270Y-3871754D01*
X8046558Y-3871754D01*
X8046558Y-3942466D01*
X8117270Y-3942466D01*
X8125398Y-6192398D02*
X8125398Y-6121686D01*
X8054686Y-6121686D01*
X8054686Y-6192398D01*
X8125398Y-6192398D01*
X8125906Y-5575940D02*
X8125906Y-5505228D01*
X8055194Y-5505228D01*
X8055194Y-5575940D01*
X8125906Y-5575940D01*
X8129208Y-5406522D02*
X8129208Y-5335810D01*
X8058496Y-5335810D01*
X8058496Y-5406522D01*
X8129208Y-5406522D01*
X8146988Y-10219568D02*
X8146988Y-10148856D01*
X8076276Y-10148856D01*
X8076276Y-10219568D01*
X8146988Y-10219568D01*
X8146988Y-10364856D02*
X8146988Y-10294144D01*
X8076276Y-10294144D01*
X8076276Y-10364856D01*
X8146988Y-10364856D01*
X8173150Y-8187568D02*
X8173150Y-8116856D01*
X8102438Y-8116856D01*
X8102438Y-8187568D01*
X8173150Y-8187568D01*
X8173150Y-8332856D02*
X8173150Y-8262144D01*
X8102438Y-8262144D01*
X8102438Y-8332856D01*
X8173150Y-8332856D01*
X8277290Y-6343528D02*
X8277290Y-6272816D01*
X8206578Y-6272816D01*
X8206578Y-6343528D01*
X8277290Y-6343528D01*
X8280592Y-6187572D02*
X8280592Y-6116860D01*
X8209880Y-6116860D01*
X8209880Y-6187572D01*
X8280592Y-6187572D01*
X8318946Y-4956688D02*
X8318946Y-4885976D01*
X8248234Y-4885976D01*
X8248234Y-4956688D01*
X8318946Y-4956688D01*
X8324026Y-6548760D02*
X8324026Y-6478048D01*
X8253314Y-6478048D01*
X8253314Y-6548760D01*
X8324026Y-6548760D01*
X8351966Y-5575940D02*
X8351966Y-5505228D01*
X8281254Y-5505228D01*
X8281254Y-5575940D01*
X8351966Y-5575940D01*
X8353490Y-5409824D02*
X8353490Y-5339112D01*
X8282778Y-5339112D01*
X8282778Y-5409824D01*
X8353490Y-5409824D01*
X8429182Y-6188080D02*
X8429182Y-6117368D01*
X8358470Y-6117368D01*
X8358470Y-6188080D01*
X8429182Y-6188080D01*
X8444041Y-3388238D02*
X8444041Y-3317526D01*
X8373329Y-3317526D01*
X8373329Y-3388238D01*
X8444041Y-3388238D01*
X8444041Y-3647572D02*
X8444041Y-3576860D01*
X8373329Y-3576860D01*
X8373329Y-3647572D01*
X8444041Y-3647572D01*
X8450391Y-3929004D02*
X8450391Y-3858292D01*
X8379679Y-3858292D01*
X8379679Y-3929004D01*
X8450391Y-3929004D01*
X8693596Y-3388238D02*
X8693596Y-3317526D01*
X8622884Y-3317526D01*
X8622884Y-3388238D01*
X8693596Y-3388238D01*
X8693596Y-3647572D02*
X8693596Y-3576860D01*
X8622884Y-3576860D01*
X8622884Y-3647572D01*
X8693596Y-3647572D01*
X8699946Y-3929004D02*
X8699946Y-3858292D01*
X8629234Y-3858292D01*
X8629234Y-3929004D01*
X8699946Y-3929004D01*
X8767510Y-4956688D02*
X8767510Y-4885976D01*
X8696798Y-4885976D01*
X8696798Y-4956688D01*
X8767510Y-4956688D01*
X8776654Y-8258180D02*
X8776654Y-8187468D01*
X8705942Y-8187468D01*
X8705942Y-8258180D01*
X8776654Y-8258180D01*
X8793926Y-10290180D02*
X8793926Y-10219468D01*
X8723214Y-10219468D01*
X8723214Y-10290180D01*
X8793926Y-10290180D01*
X8838884Y-9020180D02*
X8838884Y-8949468D01*
X8768172Y-8949468D01*
X8768172Y-9020180D01*
X8838884Y-9020180D01*
X8849552Y-9776846D02*
X8849552Y-9706134D01*
X8778840Y-9706134D01*
X8778840Y-9776846D01*
X8849552Y-9776846D01*
X8852854Y-11306180D02*
X8852854Y-11235468D01*
X8782142Y-11235468D01*
X8782142Y-11306180D01*
X8852854Y-11306180D01*
X8854886Y-11052180D02*
X8854886Y-10981468D01*
X8784174Y-10981468D01*
X8784174Y-11052180D01*
X8854886Y-11052180D01*
X8855140Y-10795132D02*
X8855140Y-10724420D01*
X8784428Y-10724420D01*
X8784428Y-10795132D01*
X8855140Y-10795132D01*
X8945691Y-3927734D02*
X8945691Y-3857022D01*
X8874979Y-3857022D01*
X8874979Y-3927734D01*
X8945691Y-3927734D01*
X8945691Y-4187068D02*
X8945691Y-4116356D01*
X8874979Y-4116356D01*
X8874979Y-4187068D01*
X8945691Y-4187068D01*
X8952041Y-4468500D02*
X8952041Y-4397788D01*
X8881329Y-4397788D01*
X8881329Y-4468500D01*
X8952041Y-4468500D01*
X9149272Y-5669666D02*
X9149272Y-5598954D01*
X9078560Y-5598954D01*
X9078560Y-5669666D01*
X9149272Y-5669666D01*
X9195246Y-3927734D02*
X9195246Y-3857022D01*
X9124534Y-3857022D01*
X9124534Y-3927734D01*
X9195246Y-3927734D01*
X9195246Y-4187068D02*
X9195246Y-4116356D01*
X9124534Y-4116356D01*
X9124534Y-4187068D01*
X9195246Y-4187068D01*
X9201596Y-4468500D02*
X9201596Y-4397788D01*
X9130884Y-4397788D01*
X9130884Y-4468500D01*
X9201596Y-4468500D01*
X9315642Y-5669666D02*
X9315642Y-5598954D01*
X9244930Y-5598954D01*
X9244930Y-5669666D01*
X9315642Y-5669666D01*
X9317928Y-11052180D02*
X9317928Y-10981468D01*
X9247216Y-10981468D01*
X9247216Y-11052180D01*
X9317928Y-11052180D01*
X9319960Y-11306180D02*
X9319960Y-11235468D01*
X9249248Y-11235468D01*
X9249248Y-11306180D01*
X9319960Y-11306180D01*
X9326056Y-7750180D02*
X9326056Y-7679468D01*
X9255344Y-7679468D01*
X9255344Y-7750180D01*
X9326056Y-7750180D01*
X9330374Y-7242180D02*
X9330374Y-7171468D01*
X9259662Y-7171468D01*
X9259662Y-7242180D01*
X9330374Y-7242180D01*
X9429688Y-6298316D02*
X9429688Y-6227604D01*
X9358976Y-6227604D01*
X9358976Y-6298316D01*
X9429688Y-6298316D01*
X9431212Y-6461130D02*
X9431212Y-6390418D01*
X9360500Y-6390418D01*
X9360500Y-6461130D01*
X9431212Y-6461130D01*
X9447595Y-3382904D02*
X9447595Y-3312192D01*
X9376883Y-3312192D01*
X9376883Y-3382904D01*
X9447595Y-3382904D01*
X9447595Y-3642238D02*
X9447595Y-3571526D01*
X9376883Y-3571526D01*
X9376883Y-3642238D01*
X9447595Y-3642238D01*
X9453945Y-3923670D02*
X9453945Y-3852958D01*
X9383233Y-3852958D01*
X9383233Y-3923670D01*
X9453945Y-3923670D01*
X9475408Y-5669666D02*
X9475408Y-5598954D01*
X9404696Y-5598954D01*
X9404696Y-5669666D01*
X9475408Y-5669666D01*
X9640000Y-5672968D02*
X9640000Y-5602256D01*
X9569288Y-5602256D01*
X9569288Y-5672968D01*
X9640000Y-5672968D01*
X9681402Y-6295776D02*
X9681402Y-6225064D01*
X9610690Y-6225064D01*
X9610690Y-6295776D01*
X9681402Y-6295776D01*
X9682926Y-6458590D02*
X9682926Y-6387878D01*
X9612214Y-6387878D01*
X9612214Y-6458590D01*
X9682926Y-6458590D01*
X9697150Y-3382904D02*
X9697150Y-3312192D01*
X9626438Y-3312192D01*
X9626438Y-3382904D01*
X9697150Y-3382904D01*
X9697150Y-3642238D02*
X9697150Y-3571526D01*
X9626438Y-3571526D01*
X9626438Y-3642238D01*
X9697150Y-3642238D01*
X9703500Y-3923670D02*
X9703500Y-3852958D01*
X9632788Y-3852958D01*
X9632788Y-3923670D01*
X9703500Y-3923670D01*
X9922321Y-3382904D02*
X9922321Y-3312192D01*
X9851609Y-3312192D01*
X9851609Y-3382904D01*
X9922321Y-3382904D01*
X9922321Y-3642238D02*
X9922321Y-3571526D01*
X9851609Y-3571526D01*
X9851609Y-3642238D01*
X9922321Y-3642238D01*
X9928671Y-3923670D02*
X9928671Y-3852958D01*
X9857959Y-3852958D01*
X9857959Y-3923670D01*
X9928671Y-3923670D01*
X9986710Y-5231008D02*
X9986710Y-5160296D01*
X9915998Y-5160296D01*
X9915998Y-5231008D01*
X9986710Y-5231008D01*
X9986710Y-5414904D02*
X9986710Y-5344192D01*
X9915998Y-5344192D01*
X9915998Y-5414904D01*
X9986710Y-5414904D01*
X9986710Y-5598800D02*
X9986710Y-5528088D01*
X9915998Y-5528088D01*
X9915998Y-5598800D01*
X9986710Y-5598800D01*
X9986710Y-5782950D02*
X9986710Y-5712238D01*
X9915998Y-5712238D01*
X9915998Y-5782950D01*
X9986710Y-5782950D01*
X10171876Y-3382904D02*
X10171876Y-3312192D01*
X10101164Y-3312192D01*
X10101164Y-3382904D01*
X10171876Y-3382904D01*
X10171876Y-3642238D02*
X10171876Y-3571526D01*
X10101164Y-3571526D01*
X10101164Y-3642238D01*
X10171876Y-3642238D01*
X10178226Y-3923670D02*
X10178226Y-3852958D01*
X10107514Y-3852958D01*
X10107514Y-3923670D01*
X10178226Y-3923670D01*
X10399587Y-3380110D02*
X10399587Y-3309398D01*
X10328875Y-3309398D01*
X10328875Y-3380110D01*
X10399587Y-3380110D01*
X10399587Y-3639444D02*
X10399587Y-3568732D01*
X10328875Y-3568732D01*
X10328875Y-3639444D01*
X10399587Y-3639444D01*
X10405937Y-3920876D02*
X10405937Y-3850164D01*
X10335225Y-3850164D01*
X10335225Y-3920876D01*
X10405937Y-3920876D01*
X10603422Y-5722498D02*
X10603422Y-5651786D01*
X10532710Y-5651786D01*
X10532710Y-5722498D01*
X10603422Y-5722498D01*
X10605200Y-5248026D02*
X10605200Y-5177314D01*
X10534488Y-5177314D01*
X10534488Y-5248026D01*
X10605200Y-5248026D01*
X10605200Y-5408808D02*
X10605200Y-5338096D01*
X10534488Y-5338096D01*
X10534488Y-5408808D01*
X10605200Y-5408808D01*
X10605200Y-5561716D02*
X10605200Y-5491004D01*
X10534488Y-5491004D01*
X10534488Y-5561716D01*
X10605200Y-5561716D01*
X10630346Y-4484756D02*
X10630346Y-4414044D01*
X10559634Y-4414044D01*
X10559634Y-4484756D01*
X10630346Y-4484756D01*
X10632378Y-4318386D02*
X10632378Y-4247674D01*
X10561666Y-4247674D01*
X10561666Y-4318386D01*
X10632378Y-4318386D01*
X10649142Y-3380110D02*
X10649142Y-3309398D01*
X10578430Y-3309398D01*
X10578430Y-3380110D01*
X10649142Y-3380110D01*
X10649142Y-3639444D02*
X10649142Y-3568732D01*
X10578430Y-3568732D01*
X10578430Y-3639444D01*
X10649142Y-3639444D01*
X10655492Y-3920876D02*
X10655492Y-3850164D01*
X10584780Y-3850164D01*
X10584780Y-3920876D01*
X10655492Y-3920876D01*
X10799002Y-4484756D02*
X10799002Y-4414044D01*
X10728290Y-4414044D01*
X10728290Y-4484756D01*
X10799002Y-4484756D01*
X10800780Y-4316354D02*
X10800780Y-4245642D01*
X10730068Y-4245642D01*
X10730068Y-4316354D01*
X10800780Y-4316354D01*
X10879647Y-3377570D02*
X10879647Y-3306858D01*
X10808935Y-3306858D01*
X10808935Y-3377570D01*
X10879647Y-3377570D01*
X10879647Y-3636904D02*
X10879647Y-3566192D01*
X10808935Y-3566192D01*
X10808935Y-3636904D01*
X10879647Y-3636904D01*
X10885997Y-3918336D02*
X10885997Y-3847624D01*
X10815285Y-3847624D01*
X10815285Y-3918336D01*
X10885997Y-3918336D01*
X11129202Y-3377570D02*
X11129202Y-3306858D01*
X11058490Y-3306858D01*
X11058490Y-3377570D01*
X11129202Y-3377570D01*
X11129202Y-3636904D02*
X11129202Y-3566192D01*
X11058490Y-3566192D01*
X11058490Y-3636904D01*
X11129202Y-3636904D01*
X11135552Y-3918336D02*
X11135552Y-3847624D01*
X11064840Y-3847624D01*
X11064840Y-3918336D01*
X11135552Y-3918336D01*
X11392473Y-3371728D02*
X11392473Y-3301016D01*
X11321761Y-3301016D01*
X11321761Y-3371728D01*
X11392473Y-3371728D01*
X11392473Y-3631062D02*
X11392473Y-3560350D01*
X11321761Y-3560350D01*
X11321761Y-3631062D01*
X11392473Y-3631062D01*
X11398823Y-3912494D02*
X11398823Y-3841782D01*
X11328111Y-3841782D01*
X11328111Y-3912494D01*
X11398823Y-3912494D01*
X11642028Y-3371728D02*
X11642028Y-3301016D01*
X11571316Y-3301016D01*
X11571316Y-3371728D01*
X11642028Y-3371728D01*
X11642028Y-3631062D02*
X11642028Y-3560350D01*
X11571316Y-3560350D01*
X11571316Y-3631062D01*
X11642028Y-3631062D01*
X11648378Y-3912494D02*
X11648378Y-3841782D01*
X11577666Y-3841782D01*
X11577666Y-3912494D01*
X11648378Y-3912494D01*
X11932604Y-5012568D02*
X11932604Y-4941856D01*
X11861892Y-4941856D01*
X11861892Y-5012568D01*
X11932604Y-5012568D01*
X11934890Y-5189098D02*
X11934890Y-5118386D01*
X11864178Y-5118386D01*
X11864178Y-5189098D01*
X11934890Y-5189098D01*
X11937176Y-5377312D02*
X11937176Y-5306600D01*
X11866464Y-5306600D01*
X11866464Y-5377312D01*
X11937176Y-5377312D01*
X11937176Y-5563240D02*
X11937176Y-5492528D01*
X11866464Y-5492528D01*
X11866464Y-5563240D01*
X11937176Y-5563240D01*
X12555412Y-5045334D02*
X12555412Y-4974622D01*
X12484700Y-4974622D01*
X12484700Y-5045334D01*
X12555412Y-5045334D01*
X12556682Y-5213482D02*
X12556682Y-5142770D01*
X12485970Y-5142770D01*
X12485970Y-5213482D01*
X12556682Y-5213482D01*
X12556682Y-5382900D02*
X12556682Y-5312188D01*
X12485970Y-5312188D01*
X12485970Y-5382900D01*
X12556682Y-5382900D01*
X12559476Y-5539110D02*
X12559476Y-5468398D01*
X12488764Y-5468398D01*
X12488764Y-5539110D01*
X12559476Y-5539110D01*
X12573192Y-4060576D02*
X12573192Y-3989864D01*
X12502480Y-3989864D01*
X12502480Y-4060576D01*
X12573192Y-4060576D01*
X12573192Y-4248536D02*
X12573192Y-4177824D01*
X12502480Y-4177824D01*
X12502480Y-4248536D01*
X12573192Y-4248536D01*
X12749468Y-4058798D02*
X12749468Y-3988086D01*
X12678756Y-3988086D01*
X12678756Y-4058798D01*
X12749468Y-4058798D01*
X12753278Y-4252346D02*
X12753278Y-4181634D01*
X12682566Y-4181634D01*
X12682566Y-4252346D01*
X12753278Y-4252346D01*
X13635356Y-4205356D02*
X13635356Y-4134644D01*
X13564644Y-4134644D01*
X13564644Y-4205356D01*
X13635356Y-4205356D01*
X13635356Y-5205356D02*
X13635356Y-5134644D01*
X13564644Y-5134644D01*
X13564644Y-5205356D01*
X13635356Y-5205356D01*
X13635356Y-6205356D02*
X13635356Y-6134644D01*
X13564644Y-6134644D01*
X13564644Y-6205356D01*
X13635356Y-6205356D01*
X13635356Y-7205356D02*
X13635356Y-7134644D01*
X13564644Y-7134644D01*
X13564644Y-7205356D01*
X13635356Y-7205356D01*
X13635356Y-8205356D02*
X13635356Y-8134644D01*
X13564644Y-8134644D01*
X13564644Y-8205356D01*
X13635356Y-8205356D01*
X13635356Y-9205356D02*
X13635356Y-9134644D01*
X13564644Y-9134644D01*
X13564644Y-9205356D01*
X13635356Y-9205356D01*
X13635356Y-10205356D02*
X13635356Y-10134644D01*
X13564644Y-10134644D01*
X13564644Y-10205356D01*
X13635356Y-10205356D01*
X13635356Y-11205356D02*
X13635356Y-11134644D01*
X13564644Y-11134644D01*
X13564644Y-11205356D01*
X13635356Y-11205356D01*
X13635356Y-12205356D02*
X13635356Y-12134644D01*
X13564644Y-12134644D01*
X13564644Y-12205356D01*
X13635356Y-12205356D01*
X13635356Y-13205356D02*
X13635356Y-13134644D01*
X13564644Y-13134644D01*
X13564644Y-13205356D01*
X13635356Y-13205356D01*
X13886348Y-4572664D02*
X13886348Y-4501952D01*
X13815636Y-4501952D01*
X13815636Y-4572664D01*
X13886348Y-4572664D01*
X13886348Y-5097888D02*
X13886348Y-5027176D01*
X13815636Y-5027176D01*
X13815636Y-5097888D01*
X13886348Y-5097888D01*
X13886348Y-5572662D02*
X13886348Y-5501950D01*
X13815636Y-5501950D01*
X13815636Y-5572662D01*
X13886348Y-5572662D01*
X13886348Y-6097886D02*
X13886348Y-6027174D01*
X13815636Y-6027174D01*
X13815636Y-6097886D01*
X13886348Y-6097886D01*
X13886348Y-6572660D02*
X13886348Y-6501948D01*
X13815636Y-6501948D01*
X13815636Y-6572660D01*
X13886348Y-6572660D01*
X13886348Y-7097884D02*
X13886348Y-7027172D01*
X13815636Y-7027172D01*
X13815636Y-7097884D01*
X13886348Y-7097884D01*
X13886348Y-7572658D02*
X13886348Y-7501946D01*
X13815636Y-7501946D01*
X13815636Y-7572658D01*
X13886348Y-7572658D01*
X13886348Y-8097882D02*
X13886348Y-8027170D01*
X13815636Y-8027170D01*
X13815636Y-8097882D01*
X13886348Y-8097882D01*
X13886348Y-8572656D02*
X13886348Y-8501944D01*
X13815636Y-8501944D01*
X13815636Y-8572656D01*
X13886348Y-8572656D01*
X13886348Y-9097880D02*
X13886348Y-9027168D01*
X13815636Y-9027168D01*
X13815636Y-9097880D01*
X13886348Y-9097880D01*
X13886348Y-9572654D02*
X13886348Y-9501942D01*
X13815636Y-9501942D01*
X13815636Y-9572654D01*
X13886348Y-9572654D01*
X13886348Y-10097878D02*
X13886348Y-10027166D01*
X13815636Y-10027166D01*
X13815636Y-10097878D01*
X13886348Y-10097878D01*
X13886348Y-10572652D02*
X13886348Y-10501940D01*
X13815636Y-10501940D01*
X13815636Y-10572652D01*
X13886348Y-10572652D01*
X13886348Y-11097876D02*
X13886348Y-11027164D01*
X13815636Y-11027164D01*
X13815636Y-11097876D01*
X13886348Y-11097876D01*
X13886348Y-11572650D02*
X13886348Y-11501938D01*
X13815636Y-11501938D01*
X13815636Y-11572650D01*
X13886348Y-11572650D01*
X13886348Y-12097874D02*
X13886348Y-12027162D01*
X13815636Y-12027162D01*
X13815636Y-12097874D01*
X13886348Y-12097874D01*
X13886348Y-12572648D02*
X13886348Y-12501936D01*
X13815636Y-12501936D01*
X13815636Y-12572648D01*
X13886348Y-12572648D01*
X13886348Y-13097872D02*
X13886348Y-13027160D01*
X13815636Y-13027160D01*
X13815636Y-13097872D01*
X13886348Y-13097872D01*
X13886348Y-13572646D02*
X13886348Y-13501934D01*
X13815636Y-13501934D01*
X13815636Y-13572646D01*
X13886348Y-13572646D01*
X13886348Y-14097870D02*
X13886348Y-14027158D01*
X13815636Y-14027158D01*
X13815636Y-14097870D01*
X13886348Y-14097870D01*
X14135356Y-4205356D02*
X14135356Y-4134644D01*
X14064644Y-4134644D01*
X14064644Y-4205356D01*
X14135356Y-4205356D01*
X14135356Y-5205356D02*
X14135356Y-5134644D01*
X14064644Y-5134644D01*
X14064644Y-5205356D01*
X14135356Y-5205356D01*
X14135356Y-6205356D02*
X14135356Y-6134644D01*
X14064644Y-6134644D01*
X14064644Y-6205356D01*
X14135356Y-6205356D01*
X14135356Y-7205356D02*
X14135356Y-7134644D01*
X14064644Y-7134644D01*
X14064644Y-7205356D01*
X14135356Y-7205356D01*
X14135356Y-8205356D02*
X14135356Y-8134644D01*
X14064644Y-8134644D01*
X14064644Y-8205356D01*
X14135356Y-8205356D01*
X14135356Y-9205356D02*
X14135356Y-9134644D01*
X14064644Y-9134644D01*
X14064644Y-9205356D01*
X14135356Y-9205356D01*
X14135356Y-10205356D02*
X14135356Y-10134644D01*
X14064644Y-10134644D01*
X14064644Y-10205356D01*
X14135356Y-10205356D01*
X14135356Y-11205356D02*
X14135356Y-11134644D01*
X14064644Y-11134644D01*
X14064644Y-11205356D01*
X14135356Y-11205356D01*
X14135356Y-12205356D02*
X14135356Y-12134644D01*
X14064644Y-12134644D01*
X14064644Y-12205356D01*
X14135356Y-12205356D01*
X14135356Y-13205356D02*
X14135356Y-13134644D01*
X14064644Y-13134644D01*
X14064644Y-13205356D01*
X14135356Y-13205356D01*
X14635356Y-4205356D02*
X14635356Y-4134644D01*
X14564644Y-4134644D01*
X14564644Y-4205356D01*
X14635356Y-4205356D01*
X14635356Y-5205356D02*
X14635356Y-5134644D01*
X14564644Y-5134644D01*
X14564644Y-5205356D01*
X14635356Y-5205356D01*
X14635356Y-6205356D02*
X14635356Y-6134644D01*
X14564644Y-6134644D01*
X14564644Y-6205356D01*
X14635356Y-6205356D01*
X14635356Y-7205356D02*
X14635356Y-7134644D01*
X14564644Y-7134644D01*
X14564644Y-7205356D01*
X14635356Y-7205356D01*
X14635356Y-8205356D02*
X14635356Y-8134644D01*
X14564644Y-8134644D01*
X14564644Y-8205356D01*
X14635356Y-8205356D01*
X14635356Y-9205356D02*
X14635356Y-9134644D01*
X14564644Y-9134644D01*
X14564644Y-9205356D01*
X14635356Y-9205356D01*
X14635356Y-10205356D02*
X14635356Y-10134644D01*
X14564644Y-10134644D01*
X14564644Y-10205356D01*
X14635356Y-10205356D01*
X14635356Y-11205356D02*
X14635356Y-11134644D01*
X14564644Y-11134644D01*
X14564644Y-11205356D01*
X14635356Y-11205356D01*
X14635356Y-12205356D02*
X14635356Y-12134644D01*
X14564644Y-12134644D01*
X14564644Y-12205356D01*
X14635356Y-12205356D01*
X14635356Y-13205356D02*
X14635356Y-13134644D01*
X14564644Y-13134644D01*
X14564644Y-13205356D01*
X14635356Y-13205356D01*
X14886600Y-4572664D02*
X14886600Y-4501952D01*
X14815888Y-4501952D01*
X14815888Y-4572664D01*
X14886600Y-4572664D01*
X14886600Y-5097888D02*
X14886600Y-5027176D01*
X14815888Y-5027176D01*
X14815888Y-5097888D01*
X14886600Y-5097888D01*
X14886600Y-5572662D02*
X14886600Y-5501950D01*
X14815888Y-5501950D01*
X14815888Y-5572662D01*
X14886600Y-5572662D01*
X14886600Y-6097886D02*
X14886600Y-6027174D01*
X14815888Y-6027174D01*
X14815888Y-6097886D01*
X14886600Y-6097886D01*
X14886600Y-6572660D02*
X14886600Y-6501948D01*
X14815888Y-6501948D01*
X14815888Y-6572660D01*
X14886600Y-6572660D01*
X14886600Y-7097884D02*
X14886600Y-7027172D01*
X14815888Y-7027172D01*
X14815888Y-7097884D01*
X14886600Y-7097884D01*
X14886600Y-7572658D02*
X14886600Y-7501946D01*
X14815888Y-7501946D01*
X14815888Y-7572658D01*
X14886600Y-7572658D01*
X14886600Y-8097882D02*
X14886600Y-8027170D01*
X14815888Y-8027170D01*
X14815888Y-8097882D01*
X14886600Y-8097882D01*
X14886600Y-8572656D02*
X14886600Y-8501944D01*
X14815888Y-8501944D01*
X14815888Y-8572656D01*
X14886600Y-8572656D01*
X14886600Y-9097880D02*
X14886600Y-9027168D01*
X14815888Y-9027168D01*
X14815888Y-9097880D01*
X14886600Y-9097880D01*
X14886600Y-9572654D02*
X14886600Y-9501942D01*
X14815888Y-9501942D01*
X14815888Y-9572654D01*
X14886600Y-9572654D01*
X14886600Y-10097878D02*
X14886600Y-10027166D01*
X14815888Y-10027166D01*
X14815888Y-10097878D01*
X14886600Y-10097878D01*
X14886600Y-10572652D02*
X14886600Y-10501940D01*
X14815888Y-10501940D01*
X14815888Y-10572652D01*
X14886600Y-10572652D01*
X14886600Y-11097876D02*
X14886600Y-11027164D01*
X14815888Y-11027164D01*
X14815888Y-11097876D01*
X14886600Y-11097876D01*
X14886600Y-11572650D02*
X14886600Y-11501938D01*
X14815888Y-11501938D01*
X14815888Y-11572650D01*
X14886600Y-11572650D01*
X14886600Y-12097874D02*
X14886600Y-12027162D01*
X14815888Y-12027162D01*
X14815888Y-12097874D01*
X14886600Y-12097874D01*
X14886600Y-12572648D02*
X14886600Y-12501936D01*
X14815888Y-12501936D01*
X14815888Y-12572648D01*
X14886600Y-12572648D01*
X14886600Y-13097872D02*
X14886600Y-13027160D01*
X14815888Y-13027160D01*
X14815888Y-13097872D01*
X14886600Y-13097872D01*
X14886600Y-13572646D02*
X14886600Y-13501934D01*
X14815888Y-13501934D01*
X14815888Y-13572646D01*
X14886600Y-13572646D01*
X14886600Y-14097870D02*
X14886600Y-14027158D01*
X14815888Y-14027158D01*
X14815888Y-14097870D01*
X14886600Y-14097870D01*
X15135356Y-4205356D02*
X15135356Y-4134644D01*
X15064644Y-4134644D01*
X15064644Y-4205356D01*
X15135356Y-4205356D01*
X15135356Y-5205356D02*
X15135356Y-5134644D01*
X15064644Y-5134644D01*
X15064644Y-5205356D01*
X15135356Y-5205356D01*
X15135356Y-6205356D02*
X15135356Y-6134644D01*
X15064644Y-6134644D01*
X15064644Y-6205356D01*
X15135356Y-6205356D01*
X15135356Y-7205356D02*
X15135356Y-7134644D01*
X15064644Y-7134644D01*
X15064644Y-7205356D01*
X15135356Y-7205356D01*
X15135356Y-8205356D02*
X15135356Y-8134644D01*
X15064644Y-8134644D01*
X15064644Y-8205356D01*
X15135356Y-8205356D01*
X15135356Y-9205356D02*
X15135356Y-9134644D01*
X15064644Y-9134644D01*
X15064644Y-9205356D01*
X15135356Y-9205356D01*
X15135356Y-10205356D02*
X15135356Y-10134644D01*
X15064644Y-10134644D01*
X15064644Y-10205356D01*
X15135356Y-10205356D01*
X15135356Y-11205356D02*
X15135356Y-11134644D01*
X15064644Y-11134644D01*
X15064644Y-11205356D01*
X15135356Y-11205356D01*
X15135356Y-12205356D02*
X15135356Y-12134644D01*
X15064644Y-12134644D01*
X15064644Y-12205356D01*
X15135356Y-12205356D01*
X15135356Y-13205356D02*
X15135356Y-13134644D01*
X15064644Y-13134644D01*
X15064644Y-13205356D01*
X15135356Y-13205356D01*
X15635356Y-4205356D02*
X15635356Y-4134644D01*
X15564644Y-4134644D01*
X15564644Y-4205356D01*
X15635356Y-4205356D01*
X15635356Y-5205356D02*
X15635356Y-5134644D01*
X15564644Y-5134644D01*
X15564644Y-5205356D01*
X15635356Y-5205356D01*
X15635356Y-6205356D02*
X15635356Y-6134644D01*
X15564644Y-6134644D01*
X15564644Y-6205356D01*
X15635356Y-6205356D01*
X15635356Y-7205356D02*
X15635356Y-7134644D01*
X15564644Y-7134644D01*
X15564644Y-7205356D01*
X15635356Y-7205356D01*
X15635356Y-8205356D02*
X15635356Y-8134644D01*
X15564644Y-8134644D01*
X15564644Y-8205356D01*
X15635356Y-8205356D01*
X15635356Y-9205356D02*
X15635356Y-9134644D01*
X15564644Y-9134644D01*
X15564644Y-9205356D01*
X15635356Y-9205356D01*
X15635356Y-10205356D02*
X15635356Y-10134644D01*
X15564644Y-10134644D01*
X15564644Y-10205356D01*
X15635356Y-10205356D01*
X15635356Y-11205356D02*
X15635356Y-11134644D01*
X15564644Y-11134644D01*
X15564644Y-11205356D01*
X15635356Y-11205356D01*
X15635356Y-12205356D02*
X15635356Y-12134644D01*
X15564644Y-12134644D01*
X15564644Y-12205356D01*
X15635356Y-12205356D01*
X15635356Y-13205356D02*
X15635356Y-13134644D01*
X15564644Y-13134644D01*
X15564644Y-13205356D01*
X15635356Y-13205356D01*
X15886344Y-4572410D02*
X15886344Y-4501698D01*
X15815632Y-4501698D01*
X15815632Y-4572410D01*
X15886344Y-4572410D01*
X15886344Y-5097634D02*
X15886344Y-5026922D01*
X15815632Y-5026922D01*
X15815632Y-5097634D01*
X15886344Y-5097634D01*
X15886344Y-5572408D02*
X15886344Y-5501696D01*
X15815632Y-5501696D01*
X15815632Y-5572408D01*
X15886344Y-5572408D01*
X15886344Y-6097632D02*
X15886344Y-6026920D01*
X15815632Y-6026920D01*
X15815632Y-6097632D01*
X15886344Y-6097632D01*
X15886344Y-6572406D02*
X15886344Y-6501694D01*
X15815632Y-6501694D01*
X15815632Y-6572406D01*
X15886344Y-6572406D01*
X15886344Y-7097630D02*
X15886344Y-7026918D01*
X15815632Y-7026918D01*
X15815632Y-7097630D01*
X15886344Y-7097630D01*
X15886344Y-7572404D02*
X15886344Y-7501692D01*
X15815632Y-7501692D01*
X15815632Y-7572404D01*
X15886344Y-7572404D01*
X15886344Y-8097628D02*
X15886344Y-8026916D01*
X15815632Y-8026916D01*
X15815632Y-8097628D01*
X15886344Y-8097628D01*
X15886344Y-8572402D02*
X15886344Y-8501690D01*
X15815632Y-8501690D01*
X15815632Y-8572402D01*
X15886344Y-8572402D01*
X15886344Y-9097626D02*
X15886344Y-9026914D01*
X15815632Y-9026914D01*
X15815632Y-9097626D01*
X15886344Y-9097626D01*
X15886344Y-9572400D02*
X15886344Y-9501688D01*
X15815632Y-9501688D01*
X15815632Y-9572400D01*
X15886344Y-9572400D01*
X15886344Y-10097624D02*
X15886344Y-10026912D01*
X15815632Y-10026912D01*
X15815632Y-10097624D01*
X15886344Y-10097624D01*
X15886344Y-10572398D02*
X15886344Y-10501686D01*
X15815632Y-10501686D01*
X15815632Y-10572398D01*
X15886344Y-10572398D01*
X15886344Y-11097622D02*
X15886344Y-11026910D01*
X15815632Y-11026910D01*
X15815632Y-11097622D01*
X15886344Y-11097622D01*
X15886344Y-11572396D02*
X15886344Y-11501684D01*
X15815632Y-11501684D01*
X15815632Y-11572396D01*
X15886344Y-11572396D01*
X15886344Y-12097620D02*
X15886344Y-12026908D01*
X15815632Y-12026908D01*
X15815632Y-12097620D01*
X15886344Y-12097620D01*
X15886344Y-12572394D02*
X15886344Y-12501682D01*
X15815632Y-12501682D01*
X15815632Y-12572394D01*
X15886344Y-12572394D01*
X15886344Y-13097618D02*
X15886344Y-13026906D01*
X15815632Y-13026906D01*
X15815632Y-13097618D01*
X15886344Y-13097618D01*
X15886344Y-13572392D02*
X15886344Y-13501680D01*
X15815632Y-13501680D01*
X15815632Y-13572392D01*
X15886344Y-13572392D01*
X15886344Y-14097616D02*
X15886344Y-14026904D01*
X15815632Y-14026904D01*
X15815632Y-14097616D01*
X15886344Y-14097616D01*
X16135356Y-4205356D02*
X16135356Y-4134644D01*
X16064644Y-4134644D01*
X16064644Y-4205356D01*
X16135356Y-4205356D01*
X16135356Y-5205356D02*
X16135356Y-5134644D01*
X16064644Y-5134644D01*
X16064644Y-5205356D01*
X16135356Y-5205356D01*
X16135356Y-6205356D02*
X16135356Y-6134644D01*
X16064644Y-6134644D01*
X16064644Y-6205356D01*
X16135356Y-6205356D01*
X16135356Y-7205356D02*
X16135356Y-7134644D01*
X16064644Y-7134644D01*
X16064644Y-7205356D01*
X16135356Y-7205356D01*
X16135356Y-8205356D02*
X16135356Y-8134644D01*
X16064644Y-8134644D01*
X16064644Y-8205356D01*
X16135356Y-8205356D01*
X16135356Y-9205356D02*
X16135356Y-9134644D01*
X16064644Y-9134644D01*
X16064644Y-9205356D01*
X16135356Y-9205356D01*
X16135356Y-10205356D02*
X16135356Y-10134644D01*
X16064644Y-10134644D01*
X16064644Y-10205356D01*
X16135356Y-10205356D01*
X16135356Y-11205356D02*
X16135356Y-11134644D01*
X16064644Y-11134644D01*
X16064644Y-11205356D01*
X16135356Y-11205356D01*
X16135356Y-12205356D02*
X16135356Y-12134644D01*
X16064644Y-12134644D01*
X16064644Y-12205356D01*
X16135356Y-12205356D01*
X16135356Y-13205356D02*
X16135356Y-13134644D01*
X16064644Y-13134644D01*
X16064644Y-13205356D01*
X16135356Y-13205356D01*
X16635356Y-4205356D02*
X16635356Y-4134644D01*
X16564644Y-4134644D01*
X16564644Y-4205356D01*
X16635356Y-4205356D01*
X16635356Y-5205356D02*
X16635356Y-5134644D01*
X16564644Y-5134644D01*
X16564644Y-5205356D01*
X16635356Y-5205356D01*
X16635356Y-6205356D02*
X16635356Y-6134644D01*
X16564644Y-6134644D01*
X16564644Y-6205356D01*
X16635356Y-6205356D01*
X16635356Y-7205356D02*
X16635356Y-7134644D01*
X16564644Y-7134644D01*
X16564644Y-7205356D01*
X16635356Y-7205356D01*
X16635356Y-8205356D02*
X16635356Y-8134644D01*
X16564644Y-8134644D01*
X16564644Y-8205356D01*
X16635356Y-8205356D01*
X16635356Y-9205356D02*
X16635356Y-9134644D01*
X16564644Y-9134644D01*
X16564644Y-9205356D01*
X16635356Y-9205356D01*
X16635356Y-10205356D02*
X16635356Y-10134644D01*
X16564644Y-10134644D01*
X16564644Y-10205356D01*
X16635356Y-10205356D01*
X16635356Y-11205356D02*
X16635356Y-11134644D01*
X16564644Y-11134644D01*
X16564644Y-11205356D01*
X16635356Y-11205356D01*
X16635356Y-12205356D02*
X16635356Y-12134644D01*
X16564644Y-12134644D01*
X16564644Y-12205356D01*
X16635356Y-12205356D01*
X16635356Y-13205356D02*
X16635356Y-13134644D01*
X16564644Y-13134644D01*
X16564644Y-13205356D01*
X16635356Y-13205356D01*
X16886342Y-4572664D02*
X16886342Y-4501952D01*
X16815630Y-4501952D01*
X16815630Y-4572664D01*
X16886342Y-4572664D01*
X16886342Y-5097888D02*
X16886342Y-5027176D01*
X16815630Y-5027176D01*
X16815630Y-5097888D01*
X16886342Y-5097888D01*
X16886342Y-5572662D02*
X16886342Y-5501950D01*
X16815630Y-5501950D01*
X16815630Y-5572662D01*
X16886342Y-5572662D01*
X16886342Y-6097886D02*
X16886342Y-6027174D01*
X16815630Y-6027174D01*
X16815630Y-6097886D01*
X16886342Y-6097886D01*
X16886342Y-6572660D02*
X16886342Y-6501948D01*
X16815630Y-6501948D01*
X16815630Y-6572660D01*
X16886342Y-6572660D01*
X16886342Y-7097884D02*
X16886342Y-7027172D01*
X16815630Y-7027172D01*
X16815630Y-7097884D01*
X16886342Y-7097884D01*
X16886342Y-7572658D02*
X16886342Y-7501946D01*
X16815630Y-7501946D01*
X16815630Y-7572658D01*
X16886342Y-7572658D01*
X16886342Y-8097882D02*
X16886342Y-8027170D01*
X16815630Y-8027170D01*
X16815630Y-8097882D01*
X16886342Y-8097882D01*
X16886342Y-8572656D02*
X16886342Y-8501944D01*
X16815630Y-8501944D01*
X16815630Y-8572656D01*
X16886342Y-8572656D01*
X16886342Y-9097880D02*
X16886342Y-9027168D01*
X16815630Y-9027168D01*
X16815630Y-9097880D01*
X16886342Y-9097880D01*
X16886342Y-9572654D02*
X16886342Y-9501942D01*
X16815630Y-9501942D01*
X16815630Y-9572654D01*
X16886342Y-9572654D01*
X16886342Y-10097878D02*
X16886342Y-10027166D01*
X16815630Y-10027166D01*
X16815630Y-10097878D01*
X16886342Y-10097878D01*
X16886342Y-10572652D02*
X16886342Y-10501940D01*
X16815630Y-10501940D01*
X16815630Y-10572652D01*
X16886342Y-10572652D01*
X16886342Y-11097876D02*
X16886342Y-11027164D01*
X16815630Y-11027164D01*
X16815630Y-11097876D01*
X16886342Y-11097876D01*
X16886342Y-11572650D02*
X16886342Y-11501938D01*
X16815630Y-11501938D01*
X16815630Y-11572650D01*
X16886342Y-11572650D01*
X16886342Y-12097874D02*
X16886342Y-12027162D01*
X16815630Y-12027162D01*
X16815630Y-12097874D01*
X16886342Y-12097874D01*
X16886342Y-12572648D02*
X16886342Y-12501936D01*
X16815630Y-12501936D01*
X16815630Y-12572648D01*
X16886342Y-12572648D01*
X16886342Y-13097872D02*
X16886342Y-13027160D01*
X16815630Y-13027160D01*
X16815630Y-13097872D01*
X16886342Y-13097872D01*
X16886342Y-14097870D02*
X16886342Y-14027158D01*
X16815630Y-14027158D01*
X16815630Y-14097870D01*
X16886342Y-14097870D01*
X16891954Y-13585068D02*
X16891954Y-13514356D01*
X16821242Y-13514356D01*
X16821242Y-13585068D01*
X16891954Y-13585068D01*
X17135356Y-4205356D02*
X17135356Y-4134644D01*
X17064644Y-4134644D01*
X17064644Y-4205356D01*
X17135356Y-4205356D01*
X17135356Y-5205356D02*
X17135356Y-5134644D01*
X17064644Y-5134644D01*
X17064644Y-5205356D01*
X17135356Y-5205356D01*
X17135356Y-6205356D02*
X17135356Y-6134644D01*
X17064644Y-6134644D01*
X17064644Y-6205356D01*
X17135356Y-6205356D01*
X17135356Y-7205356D02*
X17135356Y-7134644D01*
X17064644Y-7134644D01*
X17064644Y-7205356D01*
X17135356Y-7205356D01*
X17135356Y-8205356D02*
X17135356Y-8134644D01*
X17064644Y-8134644D01*
X17064644Y-8205356D01*
X17135356Y-8205356D01*
X17135356Y-9205356D02*
X17135356Y-9134644D01*
X17064644Y-9134644D01*
X17064644Y-9205356D01*
X17135356Y-9205356D01*
X17135356Y-10205356D02*
X17135356Y-10134644D01*
X17064644Y-10134644D01*
X17064644Y-10205356D01*
X17135356Y-10205356D01*
X17135356Y-11205356D02*
X17135356Y-11134644D01*
X17064644Y-11134644D01*
X17064644Y-11205356D01*
X17135356Y-11205356D01*
X17135356Y-12205356D02*
X17135356Y-12134644D01*
X17064644Y-12134644D01*
X17064644Y-12205356D01*
X17135356Y-12205356D01*
X17135356Y-13205356D02*
X17135356Y-13134644D01*
X17064644Y-13134644D01*
X17064644Y-13205356D01*
X17135356Y-13205356D01*
X17635356Y-4205356D02*
X17635356Y-4134644D01*
X17564644Y-4134644D01*
X17564644Y-4205356D01*
X17635356Y-4205356D01*
X17635356Y-5205356D02*
X17635356Y-5134644D01*
X17564644Y-5134644D01*
X17564644Y-5205356D01*
X17635356Y-5205356D01*
X17635356Y-6205356D02*
X17635356Y-6134644D01*
X17564644Y-6134644D01*
X17564644Y-6205356D01*
X17635356Y-6205356D01*
X17635356Y-7205356D02*
X17635356Y-7134644D01*
X17564644Y-7134644D01*
X17564644Y-7205356D01*
X17635356Y-7205356D01*
X17635356Y-8205356D02*
X17635356Y-8134644D01*
X17564644Y-8134644D01*
X17564644Y-8205356D01*
X17635356Y-8205356D01*
X17635356Y-9205356D02*
X17635356Y-9134644D01*
X17564644Y-9134644D01*
X17564644Y-9205356D01*
X17635356Y-9205356D01*
X17635356Y-10205356D02*
X17635356Y-10134644D01*
X17564644Y-10134644D01*
X17564644Y-10205356D01*
X17635356Y-10205356D01*
X17635356Y-11205356D02*
X17635356Y-11134644D01*
X17564644Y-11134644D01*
X17564644Y-11205356D01*
X17635356Y-11205356D01*
X17635356Y-12205356D02*
X17635356Y-12134644D01*
X17564644Y-12134644D01*
X17564644Y-12205356D01*
X17635356Y-12205356D01*
X17635356Y-13205356D02*
X17635356Y-13134644D01*
X17564644Y-13134644D01*
X17564644Y-13205356D01*
X17635356Y-13205356D01*
X17886340Y-4572156D02*
X17886340Y-4501444D01*
X17815628Y-4501444D01*
X17815628Y-4572156D01*
X17886340Y-4572156D01*
X17886340Y-5097380D02*
X17886340Y-5026668D01*
X17815628Y-5026668D01*
X17815628Y-5097380D01*
X17886340Y-5097380D01*
X17886340Y-5572154D02*
X17886340Y-5501442D01*
X17815628Y-5501442D01*
X17815628Y-5572154D01*
X17886340Y-5572154D01*
X17886340Y-6097378D02*
X17886340Y-6026666D01*
X17815628Y-6026666D01*
X17815628Y-6097378D01*
X17886340Y-6097378D01*
X17886340Y-6572152D02*
X17886340Y-6501440D01*
X17815628Y-6501440D01*
X17815628Y-6572152D01*
X17886340Y-6572152D01*
X17886340Y-7097376D02*
X17886340Y-7026664D01*
X17815628Y-7026664D01*
X17815628Y-7097376D01*
X17886340Y-7097376D01*
X17886340Y-7572150D02*
X17886340Y-7501438D01*
X17815628Y-7501438D01*
X17815628Y-7572150D01*
X17886340Y-7572150D01*
X17886340Y-8097374D02*
X17886340Y-8026662D01*
X17815628Y-8026662D01*
X17815628Y-8097374D01*
X17886340Y-8097374D01*
X17886340Y-8572148D02*
X17886340Y-8501436D01*
X17815628Y-8501436D01*
X17815628Y-8572148D01*
X17886340Y-8572148D01*
X17886340Y-9097372D02*
X17886340Y-9026660D01*
X17815628Y-9026660D01*
X17815628Y-9097372D01*
X17886340Y-9097372D01*
X17886340Y-9572146D02*
X17886340Y-9501434D01*
X17815628Y-9501434D01*
X17815628Y-9572146D01*
X17886340Y-9572146D01*
X17886340Y-10097370D02*
X17886340Y-10026658D01*
X17815628Y-10026658D01*
X17815628Y-10097370D01*
X17886340Y-10097370D01*
X17886340Y-10572144D02*
X17886340Y-10501432D01*
X17815628Y-10501432D01*
X17815628Y-10572144D01*
X17886340Y-10572144D01*
X17886340Y-11097368D02*
X17886340Y-11026656D01*
X17815628Y-11026656D01*
X17815628Y-11097368D01*
X17886340Y-11097368D01*
X17886340Y-11572142D02*
X17886340Y-11501430D01*
X17815628Y-11501430D01*
X17815628Y-11572142D01*
X17886340Y-11572142D01*
X17886340Y-12097366D02*
X17886340Y-12026654D01*
X17815628Y-12026654D01*
X17815628Y-12097366D01*
X17886340Y-12097366D01*
X17886340Y-12572140D02*
X17886340Y-12501428D01*
X17815628Y-12501428D01*
X17815628Y-12572140D01*
X17886340Y-12572140D01*
X17886340Y-13097364D02*
X17886340Y-13026652D01*
X17815628Y-13026652D01*
X17815628Y-13097364D01*
X17886340Y-13097364D01*
X17886340Y-14097362D02*
X17886340Y-14026650D01*
X17815628Y-14026650D01*
X17815628Y-14097362D01*
X17886340Y-14097362D01*
X17889666Y-13599546D02*
X17889666Y-13528834D01*
X17818954Y-13528834D01*
X17818954Y-13599546D01*
X17889666Y-13599546D01*
X18135356Y-4205356D02*
X18135356Y-4134644D01*
X18064644Y-4134644D01*
X18064644Y-4205356D01*
X18135356Y-4205356D01*
X18135356Y-5205356D02*
X18135356Y-5134644D01*
X18064644Y-5134644D01*
X18064644Y-5205356D01*
X18135356Y-5205356D01*
X18135356Y-6205356D02*
X18135356Y-6134644D01*
X18064644Y-6134644D01*
X18064644Y-6205356D01*
X18135356Y-6205356D01*
X18135356Y-7205356D02*
X18135356Y-7134644D01*
X18064644Y-7134644D01*
X18064644Y-7205356D01*
X18135356Y-7205356D01*
X18135356Y-8205356D02*
X18135356Y-8134644D01*
X18064644Y-8134644D01*
X18064644Y-8205356D01*
X18135356Y-8205356D01*
X18135356Y-9205356D02*
X18135356Y-9134644D01*
X18064644Y-9134644D01*
X18064644Y-9205356D01*
X18135356Y-9205356D01*
X18135356Y-10205356D02*
X18135356Y-10134644D01*
X18064644Y-10134644D01*
X18064644Y-10205356D01*
X18135356Y-10205356D01*
X18135356Y-11205356D02*
X18135356Y-11134644D01*
X18064644Y-11134644D01*
X18064644Y-11205356D01*
X18135356Y-11205356D01*
X18135356Y-12205356D02*
X18135356Y-12134644D01*
X18064644Y-12134644D01*
X18064644Y-12205356D01*
X18135356Y-12205356D01*
X18135356Y-13205356D02*
X18135356Y-13134644D01*
X18064644Y-13134644D01*
X18064644Y-13205356D01*
X18135356Y-13205356D01*
X18635356Y-4205356D02*
X18635356Y-4134644D01*
X18564644Y-4134644D01*
X18564644Y-4205356D01*
X18635356Y-4205356D01*
X18635356Y-5205356D02*
X18635356Y-5134644D01*
X18564644Y-5134644D01*
X18564644Y-5205356D01*
X18635356Y-5205356D01*
X18635356Y-6205356D02*
X18635356Y-6134644D01*
X18564644Y-6134644D01*
X18564644Y-6205356D01*
X18635356Y-6205356D01*
X18635356Y-7205356D02*
X18635356Y-7134644D01*
X18564644Y-7134644D01*
X18564644Y-7205356D01*
X18635356Y-7205356D01*
X18635356Y-8205356D02*
X18635356Y-8134644D01*
X18564644Y-8134644D01*
X18564644Y-8205356D01*
X18635356Y-8205356D01*
X18635356Y-9205356D02*
X18635356Y-9134644D01*
X18564644Y-9134644D01*
X18564644Y-9205356D01*
X18635356Y-9205356D01*
X18635356Y-10205356D02*
X18635356Y-10134644D01*
X18564644Y-10134644D01*
X18564644Y-10205356D01*
X18635356Y-10205356D01*
X18635356Y-11205356D02*
X18635356Y-11134644D01*
X18564644Y-11134644D01*
X18564644Y-11205356D01*
X18635356Y-11205356D01*
X18635356Y-12205356D02*
X18635356Y-12134644D01*
X18564644Y-12134644D01*
X18564644Y-12205356D01*
X18635356Y-12205356D01*
X18635356Y-13205356D02*
X18635356Y-13134644D01*
X18564644Y-13134644D01*
X18564644Y-13205356D01*
X18635356Y-13205356D01*
X18886338Y-4572664D02*
X18886338Y-4501952D01*
X18815626Y-4501952D01*
X18815626Y-4572664D01*
X18886338Y-4572664D01*
X18886338Y-5097888D02*
X18886338Y-5027176D01*
X18815626Y-5027176D01*
X18815626Y-5097888D01*
X18886338Y-5097888D01*
X18886338Y-5572662D02*
X18886338Y-5501950D01*
X18815626Y-5501950D01*
X18815626Y-5572662D01*
X18886338Y-5572662D01*
X18886338Y-6097886D02*
X18886338Y-6027174D01*
X18815626Y-6027174D01*
X18815626Y-6097886D01*
X18886338Y-6097886D01*
X18886338Y-6572660D02*
X18886338Y-6501948D01*
X18815626Y-6501948D01*
X18815626Y-6572660D01*
X18886338Y-6572660D01*
X18886338Y-7097884D02*
X18886338Y-7027172D01*
X18815626Y-7027172D01*
X18815626Y-7097884D01*
X18886338Y-7097884D01*
X18886338Y-7572658D02*
X18886338Y-7501946D01*
X18815626Y-7501946D01*
X18815626Y-7572658D01*
X18886338Y-7572658D01*
X18886338Y-8097882D02*
X18886338Y-8027170D01*
X18815626Y-8027170D01*
X18815626Y-8097882D01*
X18886338Y-8097882D01*
X18886338Y-8572656D02*
X18886338Y-8501944D01*
X18815626Y-8501944D01*
X18815626Y-8572656D01*
X18886338Y-8572656D01*
X18886338Y-9097880D02*
X18886338Y-9027168D01*
X18815626Y-9027168D01*
X18815626Y-9097880D01*
X18886338Y-9097880D01*
X18886338Y-9572654D02*
X18886338Y-9501942D01*
X18815626Y-9501942D01*
X18815626Y-9572654D01*
X18886338Y-9572654D01*
X18886338Y-10097878D02*
X18886338Y-10027166D01*
X18815626Y-10027166D01*
X18815626Y-10097878D01*
X18886338Y-10097878D01*
X18886338Y-10572652D02*
X18886338Y-10501940D01*
X18815626Y-10501940D01*
X18815626Y-10572652D01*
X18886338Y-10572652D01*
X18886338Y-11097876D02*
X18886338Y-11027164D01*
X18815626Y-11027164D01*
X18815626Y-11097876D01*
X18886338Y-11097876D01*
X18886338Y-11572650D02*
X18886338Y-11501938D01*
X18815626Y-11501938D01*
X18815626Y-11572650D01*
X18886338Y-11572650D01*
X18886338Y-12097874D02*
X18886338Y-12027162D01*
X18815626Y-12027162D01*
X18815626Y-12097874D01*
X18886338Y-12097874D01*
X18886338Y-12572648D02*
X18886338Y-12501936D01*
X18815626Y-12501936D01*
X18815626Y-12572648D01*
X18886338Y-12572648D01*
X18886338Y-13097872D02*
X18886338Y-13027160D01*
X18815626Y-13027160D01*
X18815626Y-13097872D01*
X18886338Y-13097872D01*
X18886338Y-14097870D02*
X18886338Y-14027158D01*
X18815626Y-14027158D01*
X18815626Y-14097870D01*
X18886338Y-14097870D01*
X18887124Y-13588116D02*
X18887124Y-13517404D01*
X18816412Y-13517404D01*
X18816412Y-13588116D01*
X18887124Y-13588116D01*
X19135356Y-4205356D02*
X19135356Y-4134644D01*
X19064644Y-4134644D01*
X19064644Y-4205356D01*
X19135356Y-4205356D01*
X19135356Y-5205356D02*
X19135356Y-5134644D01*
X19064644Y-5134644D01*
X19064644Y-5205356D01*
X19135356Y-5205356D01*
X19135356Y-6205356D02*
X19135356Y-6134644D01*
X19064644Y-6134644D01*
X19064644Y-6205356D01*
X19135356Y-6205356D01*
X19135356Y-7205356D02*
X19135356Y-7134644D01*
X19064644Y-7134644D01*
X19064644Y-7205356D01*
X19135356Y-7205356D01*
X19135356Y-8205356D02*
X19135356Y-8134644D01*
X19064644Y-8134644D01*
X19064644Y-8205356D01*
X19135356Y-8205356D01*
X19135356Y-9205356D02*
X19135356Y-9134644D01*
X19064644Y-9134644D01*
X19064644Y-9205356D01*
X19135356Y-9205356D01*
X19135356Y-10205356D02*
X19135356Y-10134644D01*
X19064644Y-10134644D01*
X19064644Y-10205356D01*
X19135356Y-10205356D01*
X19135356Y-11205356D02*
X19135356Y-11134644D01*
X19064644Y-11134644D01*
X19064644Y-11205356D01*
X19135356Y-11205356D01*
X19135356Y-12205356D02*
X19135356Y-12134644D01*
X19064644Y-12134644D01*
X19064644Y-12205356D01*
X19135356Y-12205356D01*
X19135356Y-13205356D02*
X19135356Y-13134644D01*
X19064644Y-13134644D01*
X19064644Y-13205356D01*
X19135356Y-13205356D01*
X19635356Y-4205356D02*
X19635356Y-4134644D01*
X19564644Y-4134644D01*
X19564644Y-4205356D01*
X19635356Y-4205356D01*
X19635356Y-5205356D02*
X19635356Y-5134644D01*
X19564644Y-5134644D01*
X19564644Y-5205356D01*
X19635356Y-5205356D01*
X19635356Y-6205356D02*
X19635356Y-6134644D01*
X19564644Y-6134644D01*
X19564644Y-6205356D01*
X19635356Y-6205356D01*
X19635356Y-7205356D02*
X19635356Y-7134644D01*
X19564644Y-7134644D01*
X19564644Y-7205356D01*
X19635356Y-7205356D01*
X19635356Y-8205356D02*
X19635356Y-8134644D01*
X19564644Y-8134644D01*
X19564644Y-8205356D01*
X19635356Y-8205356D01*
X19635356Y-9205356D02*
X19635356Y-9134644D01*
X19564644Y-9134644D01*
X19564644Y-9205356D01*
X19635356Y-9205356D01*
X19635356Y-10205356D02*
X19635356Y-10134644D01*
X19564644Y-10134644D01*
X19564644Y-10205356D01*
X19635356Y-10205356D01*
X19635356Y-11205356D02*
X19635356Y-11134644D01*
X19564644Y-11134644D01*
X19564644Y-11205356D01*
X19635356Y-11205356D01*
X19635356Y-12205356D02*
X19635356Y-12134644D01*
X19564644Y-12134644D01*
X19564644Y-12205356D01*
X19635356Y-12205356D01*
X19635356Y-13205356D02*
X19635356Y-13134644D01*
X19564644Y-13134644D01*
X19564644Y-13205356D01*
X19635356Y-13205356D01*
X19886590Y-4572410D02*
X19886590Y-4501698D01*
X19815878Y-4501698D01*
X19815878Y-4572410D01*
X19886590Y-4572410D01*
X19886590Y-5097634D02*
X19886590Y-5026922D01*
X19815878Y-5026922D01*
X19815878Y-5097634D01*
X19886590Y-5097634D01*
X19886590Y-5572408D02*
X19886590Y-5501696D01*
X19815878Y-5501696D01*
X19815878Y-5572408D01*
X19886590Y-5572408D01*
X19886590Y-6097632D02*
X19886590Y-6026920D01*
X19815878Y-6026920D01*
X19815878Y-6097632D01*
X19886590Y-6097632D01*
X19886590Y-6572406D02*
X19886590Y-6501694D01*
X19815878Y-6501694D01*
X19815878Y-6572406D01*
X19886590Y-6572406D01*
X19886590Y-7097630D02*
X19886590Y-7026918D01*
X19815878Y-7026918D01*
X19815878Y-7097630D01*
X19886590Y-7097630D01*
X19886590Y-7572404D02*
X19886590Y-7501692D01*
X19815878Y-7501692D01*
X19815878Y-7572404D01*
X19886590Y-7572404D01*
X19886590Y-8097628D02*
X19886590Y-8026916D01*
X19815878Y-8026916D01*
X19815878Y-8097628D01*
X19886590Y-8097628D01*
X19886590Y-8572402D02*
X19886590Y-8501690D01*
X19815878Y-8501690D01*
X19815878Y-8572402D01*
X19886590Y-8572402D01*
X19886590Y-9097626D02*
X19886590Y-9026914D01*
X19815878Y-9026914D01*
X19815878Y-9097626D01*
X19886590Y-9097626D01*
X19886590Y-9572400D02*
X19886590Y-9501688D01*
X19815878Y-9501688D01*
X19815878Y-9572400D01*
X19886590Y-9572400D01*
X19886590Y-10097624D02*
X19886590Y-10026912D01*
X19815878Y-10026912D01*
X19815878Y-10097624D01*
X19886590Y-10097624D01*
X19886590Y-10572398D02*
X19886590Y-10501686D01*
X19815878Y-10501686D01*
X19815878Y-10572398D01*
X19886590Y-10572398D01*
X19886590Y-11097622D02*
X19886590Y-11026910D01*
X19815878Y-11026910D01*
X19815878Y-11097622D01*
X19886590Y-11097622D01*
X19886590Y-11572396D02*
X19886590Y-11501684D01*
X19815878Y-11501684D01*
X19815878Y-11572396D01*
X19886590Y-11572396D01*
X19886590Y-12097620D02*
X19886590Y-12026908D01*
X19815878Y-12026908D01*
X19815878Y-12097620D01*
X19886590Y-12097620D01*
X19886590Y-12572394D02*
X19886590Y-12501682D01*
X19815878Y-12501682D01*
X19815878Y-12572394D01*
X19886590Y-12572394D01*
X19886590Y-13097618D02*
X19886590Y-13026906D01*
X19815878Y-13026906D01*
X19815878Y-13097618D01*
X19886590Y-13097618D01*
X19886590Y-13572392D02*
X19886590Y-13501680D01*
X19815878Y-13501680D01*
X19815878Y-13572392D01*
X19886590Y-13572392D01*
X19886590Y-14097616D02*
X19886590Y-14026904D01*
X19815878Y-14026904D01*
X19815878Y-14097616D01*
X19886590Y-14097616D01*
X20135356Y-4205356D02*
X20135356Y-4134644D01*
X20064644Y-4134644D01*
X20064644Y-4205356D01*
X20135356Y-4205356D01*
X20135356Y-5205356D02*
X20135356Y-5134644D01*
X20064644Y-5134644D01*
X20064644Y-5205356D01*
X20135356Y-5205356D01*
X20135356Y-6205356D02*
X20135356Y-6134644D01*
X20064644Y-6134644D01*
X20064644Y-6205356D01*
X20135356Y-6205356D01*
X20135356Y-7205356D02*
X20135356Y-7134644D01*
X20064644Y-7134644D01*
X20064644Y-7205356D01*
X20135356Y-7205356D01*
X20135356Y-8205356D02*
X20135356Y-8134644D01*
X20064644Y-8134644D01*
X20064644Y-8205356D01*
X20135356Y-8205356D01*
X20135356Y-9205356D02*
X20135356Y-9134644D01*
X20064644Y-9134644D01*
X20064644Y-9205356D01*
X20135356Y-9205356D01*
X20135356Y-10205356D02*
X20135356Y-10134644D01*
X20064644Y-10134644D01*
X20064644Y-10205356D01*
X20135356Y-10205356D01*
X20135356Y-11205356D02*
X20135356Y-11134644D01*
X20064644Y-11134644D01*
X20064644Y-11205356D01*
X20135356Y-11205356D01*
X20135356Y-12205356D02*
X20135356Y-12134644D01*
X20064644Y-12134644D01*
X20064644Y-12205356D01*
X20135356Y-12205356D01*
X20135356Y-13205356D02*
X20135356Y-13134644D01*
X20064644Y-13134644D01*
X20064644Y-13205356D01*
X20135356Y-13205356D01*
X20635356Y-4205356D02*
X20635356Y-4134644D01*
X20564644Y-4134644D01*
X20564644Y-4205356D01*
X20635356Y-4205356D01*
X20635356Y-5205356D02*
X20635356Y-5134644D01*
X20564644Y-5134644D01*
X20564644Y-5205356D01*
X20635356Y-5205356D01*
X20635356Y-6205356D02*
X20635356Y-6134644D01*
X20564644Y-6134644D01*
X20564644Y-6205356D01*
X20635356Y-6205356D01*
X20635356Y-7205356D02*
X20635356Y-7134644D01*
X20564644Y-7134644D01*
X20564644Y-7205356D01*
X20635356Y-7205356D01*
X20635356Y-8205356D02*
X20635356Y-8134644D01*
X20564644Y-8134644D01*
X20564644Y-8205356D01*
X20635356Y-8205356D01*
X20635356Y-9205356D02*
X20635356Y-9134644D01*
X20564644Y-9134644D01*
X20564644Y-9205356D01*
X20635356Y-9205356D01*
X20635356Y-10205356D02*
X20635356Y-10134644D01*
X20564644Y-10134644D01*
X20564644Y-10205356D01*
X20635356Y-10205356D01*
X20635356Y-11205356D02*
X20635356Y-11134644D01*
X20564644Y-11134644D01*
X20564644Y-11205356D01*
X20635356Y-11205356D01*
X20635356Y-12205356D02*
X20635356Y-12134644D01*
X20564644Y-12134644D01*
X20564644Y-12205356D01*
X20635356Y-12205356D01*
X20635356Y-13205356D02*
X20635356Y-13134644D01*
X20564644Y-13134644D01*
X20564644Y-13205356D01*
X20635356Y-13205356D01*
X20886588Y-4572156D02*
X20886588Y-4501444D01*
X20815876Y-4501444D01*
X20815876Y-4572156D01*
X20886588Y-4572156D01*
X20886588Y-5097380D02*
X20886588Y-5026668D01*
X20815876Y-5026668D01*
X20815876Y-5097380D01*
X20886588Y-5097380D01*
X20886588Y-5572154D02*
X20886588Y-5501442D01*
X20815876Y-5501442D01*
X20815876Y-5572154D01*
X20886588Y-5572154D01*
X20886588Y-6097378D02*
X20886588Y-6026666D01*
X20815876Y-6026666D01*
X20815876Y-6097378D01*
X20886588Y-6097378D01*
X20886588Y-6572152D02*
X20886588Y-6501440D01*
X20815876Y-6501440D01*
X20815876Y-6572152D01*
X20886588Y-6572152D01*
X20886588Y-7097376D02*
X20886588Y-7026664D01*
X20815876Y-7026664D01*
X20815876Y-7097376D01*
X20886588Y-7097376D01*
X20886588Y-7572150D02*
X20886588Y-7501438D01*
X20815876Y-7501438D01*
X20815876Y-7572150D01*
X20886588Y-7572150D01*
X20886588Y-8097374D02*
X20886588Y-8026662D01*
X20815876Y-8026662D01*
X20815876Y-8097374D01*
X20886588Y-8097374D01*
X20886588Y-8572148D02*
X20886588Y-8501436D01*
X20815876Y-8501436D01*
X20815876Y-8572148D01*
X20886588Y-8572148D01*
X20886588Y-9097372D02*
X20886588Y-9026660D01*
X20815876Y-9026660D01*
X20815876Y-9097372D01*
X20886588Y-9097372D01*
X20886588Y-9572146D02*
X20886588Y-9501434D01*
X20815876Y-9501434D01*
X20815876Y-9572146D01*
X20886588Y-9572146D01*
X20886588Y-10097370D02*
X20886588Y-10026658D01*
X20815876Y-10026658D01*
X20815876Y-10097370D01*
X20886588Y-10097370D01*
X20886588Y-10572144D02*
X20886588Y-10501432D01*
X20815876Y-10501432D01*
X20815876Y-10572144D01*
X20886588Y-10572144D01*
X20886588Y-11097368D02*
X20886588Y-11026656D01*
X20815876Y-11026656D01*
X20815876Y-11097368D01*
X20886588Y-11097368D01*
X20886588Y-11572142D02*
X20886588Y-11501430D01*
X20815876Y-11501430D01*
X20815876Y-11572142D01*
X20886588Y-11572142D01*
X20886588Y-12097366D02*
X20886588Y-12026654D01*
X20815876Y-12026654D01*
X20815876Y-12097366D01*
X20886588Y-12097366D01*
X20886588Y-12572140D02*
X20886588Y-12501428D01*
X20815876Y-12501428D01*
X20815876Y-12572140D01*
X20886588Y-12572140D01*
X20886588Y-13097364D02*
X20886588Y-13026652D01*
X20815876Y-13026652D01*
X20815876Y-13097364D01*
X20886588Y-13097364D01*
X20886588Y-13572138D02*
X20886588Y-13501426D01*
X20815876Y-13501426D01*
X20815876Y-13572138D01*
X20886588Y-13572138D01*
X20886588Y-14097362D02*
X20886588Y-14026650D01*
X20815876Y-14026650D01*
X20815876Y-14097362D01*
X20886588Y-14097362D01*
X21135356Y-4205356D02*
X21135356Y-4134644D01*
X21064644Y-4134644D01*
X21064644Y-4205356D01*
X21135356Y-4205356D01*
X21135356Y-5205356D02*
X21135356Y-5134644D01*
X21064644Y-5134644D01*
X21064644Y-5205356D01*
X21135356Y-5205356D01*
X21135356Y-6205356D02*
X21135356Y-6134644D01*
X21064644Y-6134644D01*
X21064644Y-6205356D01*
X21135356Y-6205356D01*
X21135356Y-7205356D02*
X21135356Y-7134644D01*
X21064644Y-7134644D01*
X21064644Y-7205356D01*
X21135356Y-7205356D01*
X21135356Y-8205356D02*
X21135356Y-8134644D01*
X21064644Y-8134644D01*
X21064644Y-8205356D01*
X21135356Y-8205356D01*
X21135356Y-9205356D02*
X21135356Y-9134644D01*
X21064644Y-9134644D01*
X21064644Y-9205356D01*
X21135356Y-9205356D01*
X21135356Y-10205356D02*
X21135356Y-10134644D01*
X21064644Y-10134644D01*
X21064644Y-10205356D01*
X21135356Y-10205356D01*
X21135356Y-11205356D02*
X21135356Y-11134644D01*
X21064644Y-11134644D01*
X21064644Y-11205356D01*
X21135356Y-11205356D01*
X21135356Y-12205356D02*
X21135356Y-12134644D01*
X21064644Y-12134644D01*
X21064644Y-12205356D01*
X21135356Y-12205356D01*
X21135356Y-13205356D02*
X21135356Y-13134644D01*
X21064644Y-13134644D01*
X21064644Y-13205356D01*
X21135356Y-13205356D01*
X21635356Y-4205356D02*
X21635356Y-4134644D01*
X21564644Y-4134644D01*
X21564644Y-4205356D01*
X21635356Y-4205356D01*
X21635356Y-5205356D02*
X21635356Y-5134644D01*
X21564644Y-5134644D01*
X21564644Y-5205356D01*
X21635356Y-5205356D01*
X21635356Y-6205356D02*
X21635356Y-6134644D01*
X21564644Y-6134644D01*
X21564644Y-6205356D01*
X21635356Y-6205356D01*
X21635356Y-7205356D02*
X21635356Y-7134644D01*
X21564644Y-7134644D01*
X21564644Y-7205356D01*
X21635356Y-7205356D01*
X21635356Y-8205356D02*
X21635356Y-8134644D01*
X21564644Y-8134644D01*
X21564644Y-8205356D01*
X21635356Y-8205356D01*
X21635356Y-9205356D02*
X21635356Y-9134644D01*
X21564644Y-9134644D01*
X21564644Y-9205356D01*
X21635356Y-9205356D01*
X21635356Y-10205356D02*
X21635356Y-10134644D01*
X21564644Y-10134644D01*
X21564644Y-10205356D01*
X21635356Y-10205356D01*
X21635356Y-11205356D02*
X21635356Y-11134644D01*
X21564644Y-11134644D01*
X21564644Y-11205356D01*
X21635356Y-11205356D01*
X21635356Y-12205356D02*
X21635356Y-12134644D01*
X21564644Y-12134644D01*
X21564644Y-12205356D01*
X21635356Y-12205356D01*
X21635356Y-13205356D02*
X21635356Y-13134644D01*
X21564644Y-13134644D01*
X21564644Y-13205356D01*
X21635356Y-13205356D01*
X21886332Y-4572156D02*
X21886332Y-4501444D01*
X21815620Y-4501444D01*
X21815620Y-4572156D01*
X21886332Y-4572156D01*
X21886332Y-5097380D02*
X21886332Y-5026668D01*
X21815620Y-5026668D01*
X21815620Y-5097380D01*
X21886332Y-5097380D01*
X21886332Y-5572154D02*
X21886332Y-5501442D01*
X21815620Y-5501442D01*
X21815620Y-5572154D01*
X21886332Y-5572154D01*
X21886332Y-6097378D02*
X21886332Y-6026666D01*
X21815620Y-6026666D01*
X21815620Y-6097378D01*
X21886332Y-6097378D01*
X21886332Y-6572152D02*
X21886332Y-6501440D01*
X21815620Y-6501440D01*
X21815620Y-6572152D01*
X21886332Y-6572152D01*
X21886332Y-7097376D02*
X21886332Y-7026664D01*
X21815620Y-7026664D01*
X21815620Y-7097376D01*
X21886332Y-7097376D01*
X21886332Y-7572150D02*
X21886332Y-7501438D01*
X21815620Y-7501438D01*
X21815620Y-7572150D01*
X21886332Y-7572150D01*
X21886332Y-8097374D02*
X21886332Y-8026662D01*
X21815620Y-8026662D01*
X21815620Y-8097374D01*
X21886332Y-8097374D01*
X21886332Y-8572148D02*
X21886332Y-8501436D01*
X21815620Y-8501436D01*
X21815620Y-8572148D01*
X21886332Y-8572148D01*
X21886332Y-9097372D02*
X21886332Y-9026660D01*
X21815620Y-9026660D01*
X21815620Y-9097372D01*
X21886332Y-9097372D01*
X21886332Y-9572146D02*
X21886332Y-9501434D01*
X21815620Y-9501434D01*
X21815620Y-9572146D01*
X21886332Y-9572146D01*
X21886332Y-10097370D02*
X21886332Y-10026658D01*
X21815620Y-10026658D01*
X21815620Y-10097370D01*
X21886332Y-10097370D01*
X21886332Y-10572144D02*
X21886332Y-10501432D01*
X21815620Y-10501432D01*
X21815620Y-10572144D01*
X21886332Y-10572144D01*
X21886332Y-11097368D02*
X21886332Y-11026656D01*
X21815620Y-11026656D01*
X21815620Y-11097368D01*
X21886332Y-11097368D01*
X21886332Y-11572142D02*
X21886332Y-11501430D01*
X21815620Y-11501430D01*
X21815620Y-11572142D01*
X21886332Y-11572142D01*
X21886332Y-12097366D02*
X21886332Y-12026654D01*
X21815620Y-12026654D01*
X21815620Y-12097366D01*
X21886332Y-12097366D01*
X21886332Y-12572140D02*
X21886332Y-12501428D01*
X21815620Y-12501428D01*
X21815620Y-12572140D01*
X21886332Y-12572140D01*
X21886332Y-13097364D02*
X21886332Y-13026652D01*
X21815620Y-13026652D01*
X21815620Y-13097364D01*
X21886332Y-13097364D01*
X21886332Y-13572138D02*
X21886332Y-13501426D01*
X21815620Y-13501426D01*
X21815620Y-13572138D01*
X21886332Y-13572138D01*
X21886332Y-14097362D02*
X21886332Y-14026650D01*
X21815620Y-14026650D01*
X21815620Y-14097362D01*
X21886332Y-14097362D01*
X22135356Y-4205356D02*
X22135356Y-4134644D01*
X22064644Y-4134644D01*
X22064644Y-4205356D01*
X22135356Y-4205356D01*
X22135356Y-5205356D02*
X22135356Y-5134644D01*
X22064644Y-5134644D01*
X22064644Y-5205356D01*
X22135356Y-5205356D01*
X22135356Y-6205356D02*
X22135356Y-6134644D01*
X22064644Y-6134644D01*
X22064644Y-6205356D01*
X22135356Y-6205356D01*
X22135356Y-7205356D02*
X22135356Y-7134644D01*
X22064644Y-7134644D01*
X22064644Y-7205356D01*
X22135356Y-7205356D01*
X22135356Y-8205356D02*
X22135356Y-8134644D01*
X22064644Y-8134644D01*
X22064644Y-8205356D01*
X22135356Y-8205356D01*
X22135356Y-9205356D02*
X22135356Y-9134644D01*
X22064644Y-9134644D01*
X22064644Y-9205356D01*
X22135356Y-9205356D01*
X22135356Y-10205356D02*
X22135356Y-10134644D01*
X22064644Y-10134644D01*
X22064644Y-10205356D01*
X22135356Y-10205356D01*
X22135356Y-11205356D02*
X22135356Y-11134644D01*
X22064644Y-11134644D01*
X22064644Y-11205356D01*
X22135356Y-11205356D01*
X22135356Y-12205356D02*
X22135356Y-12134644D01*
X22064644Y-12134644D01*
X22064644Y-12205356D01*
X22135356Y-12205356D01*
X22135356Y-13205356D02*
X22135356Y-13134644D01*
X22064644Y-13134644D01*
X22064644Y-13205356D01*
X22135356Y-13205356D01*
X22635356Y-4205356D02*
X22635356Y-4134644D01*
X22564644Y-4134644D01*
X22564644Y-4205356D01*
X22635356Y-4205356D01*
X22635356Y-5205356D02*
X22635356Y-5134644D01*
X22564644Y-5134644D01*
X22564644Y-5205356D01*
X22635356Y-5205356D01*
X22635356Y-6205356D02*
X22635356Y-6134644D01*
X22564644Y-6134644D01*
X22564644Y-6205356D01*
X22635356Y-6205356D01*
X22635356Y-7205356D02*
X22635356Y-7134644D01*
X22564644Y-7134644D01*
X22564644Y-7205356D01*
X22635356Y-7205356D01*
X22635356Y-8205356D02*
X22635356Y-8134644D01*
X22564644Y-8134644D01*
X22564644Y-8205356D01*
X22635356Y-8205356D01*
X22635356Y-9205356D02*
X22635356Y-9134644D01*
X22564644Y-9134644D01*
X22564644Y-9205356D01*
X22635356Y-9205356D01*
X22635356Y-10205356D02*
X22635356Y-10134644D01*
X22564644Y-10134644D01*
X22564644Y-10205356D01*
X22635356Y-10205356D01*
X22635356Y-11205356D02*
X22635356Y-11134644D01*
X22564644Y-11134644D01*
X22564644Y-11205356D01*
X22635356Y-11205356D01*
X22635356Y-12205356D02*
X22635356Y-12134644D01*
X22564644Y-12134644D01*
X22564644Y-12205356D01*
X22635356Y-12205356D01*
X22635356Y-13205356D02*
X22635356Y-13134644D01*
X22564644Y-13134644D01*
X22564644Y-13205356D01*
X22635356Y-13205356D01*
X22886330Y-4572664D02*
X22886330Y-4501952D01*
X22815618Y-4501952D01*
X22815618Y-4572664D01*
X22886330Y-4572664D01*
X22886330Y-5097888D02*
X22886330Y-5027176D01*
X22815618Y-5027176D01*
X22815618Y-5097888D01*
X22886330Y-5097888D01*
X22886330Y-5572662D02*
X22886330Y-5501950D01*
X22815618Y-5501950D01*
X22815618Y-5572662D01*
X22886330Y-5572662D01*
X22886330Y-6097886D02*
X22886330Y-6027174D01*
X22815618Y-6027174D01*
X22815618Y-6097886D01*
X22886330Y-6097886D01*
X22886330Y-6572660D02*
X22886330Y-6501948D01*
X22815618Y-6501948D01*
X22815618Y-6572660D01*
X22886330Y-6572660D01*
X22886330Y-7097884D02*
X22886330Y-7027172D01*
X22815618Y-7027172D01*
X22815618Y-7097884D01*
X22886330Y-7097884D01*
X22886330Y-7572658D02*
X22886330Y-7501946D01*
X22815618Y-7501946D01*
X22815618Y-7572658D01*
X22886330Y-7572658D01*
X22886330Y-8097882D02*
X22886330Y-8027170D01*
X22815618Y-8027170D01*
X22815618Y-8097882D01*
X22886330Y-8097882D01*
X22886330Y-8572656D02*
X22886330Y-8501944D01*
X22815618Y-8501944D01*
X22815618Y-8572656D01*
X22886330Y-8572656D01*
X22886330Y-9097880D02*
X22886330Y-9027168D01*
X22815618Y-9027168D01*
X22815618Y-9097880D01*
X22886330Y-9097880D01*
X22886330Y-9572654D02*
X22886330Y-9501942D01*
X22815618Y-9501942D01*
X22815618Y-9572654D01*
X22886330Y-9572654D01*
X22886330Y-10097878D02*
X22886330Y-10027166D01*
X22815618Y-10027166D01*
X22815618Y-10097878D01*
X22886330Y-10097878D01*
X22886330Y-10572652D02*
X22886330Y-10501940D01*
X22815618Y-10501940D01*
X22815618Y-10572652D01*
X22886330Y-10572652D01*
X22886330Y-11097876D02*
X22886330Y-11027164D01*
X22815618Y-11027164D01*
X22815618Y-11097876D01*
X22886330Y-11097876D01*
X22886330Y-11572650D02*
X22886330Y-11501938D01*
X22815618Y-11501938D01*
X22815618Y-11572650D01*
X22886330Y-11572650D01*
X22886330Y-12097874D02*
X22886330Y-12027162D01*
X22815618Y-12027162D01*
X22815618Y-12097874D01*
X22886330Y-12097874D01*
X22886330Y-12572648D02*
X22886330Y-12501936D01*
X22815618Y-12501936D01*
X22815618Y-12572648D01*
X22886330Y-12572648D01*
X22886330Y-13097872D02*
X22886330Y-13027160D01*
X22815618Y-13027160D01*
X22815618Y-13097872D01*
X22886330Y-13097872D01*
X22886330Y-13572646D02*
X22886330Y-13501934D01*
X22815618Y-13501934D01*
X22815618Y-13572646D01*
X22886330Y-13572646D01*
X22886330Y-14097870D02*
X22886330Y-14027158D01*
X22815618Y-14027158D01*
X22815618Y-14097870D01*
X22886330Y-14097870D01*
X23135356Y-4205356D02*
X23135356Y-4134644D01*
X23064644Y-4134644D01*
X23064644Y-4205356D01*
X23135356Y-4205356D01*
X23135356Y-5205356D02*
X23135356Y-5134644D01*
X23064644Y-5134644D01*
X23064644Y-5205356D01*
X23135356Y-5205356D01*
X23135356Y-6205356D02*
X23135356Y-6134644D01*
X23064644Y-6134644D01*
X23064644Y-6205356D01*
X23135356Y-6205356D01*
X23135356Y-7205356D02*
X23135356Y-7134644D01*
X23064644Y-7134644D01*
X23064644Y-7205356D01*
X23135356Y-7205356D01*
X23135356Y-8205356D02*
X23135356Y-8134644D01*
X23064644Y-8134644D01*
X23064644Y-8205356D01*
X23135356Y-8205356D01*
X23135356Y-9205356D02*
X23135356Y-9134644D01*
X23064644Y-9134644D01*
X23064644Y-9205356D01*
X23135356Y-9205356D01*
X23135356Y-10205356D02*
X23135356Y-10134644D01*
X23064644Y-10134644D01*
X23064644Y-10205356D01*
X23135356Y-10205356D01*
X23135356Y-11205356D02*
X23135356Y-11134644D01*
X23064644Y-11134644D01*
X23064644Y-11205356D01*
X23135356Y-11205356D01*
X23135356Y-12205356D02*
X23135356Y-12134644D01*
X23064644Y-12134644D01*
X23064644Y-12205356D01*
X23135356Y-12205356D01*
X23135356Y-13205356D02*
X23135356Y-13134644D01*
X23064644Y-13134644D01*
X23064644Y-13205356D01*
X23135356Y-13205356D01*
X7446406Y-5030434D02*
X7501406Y-4975434D01*
X7446406Y-4920434D01*
X7391406Y-4975434D01*
X7446406Y-5030434D01*
X7446406Y-5284434D02*
X7501406Y-5229434D01*
X7446406Y-5174434D01*
X7391406Y-5229434D01*
X7446406Y-5284434D01*
X8583310Y-13622492D02*
X8638310Y-13567492D01*
X8583310Y-13512492D01*
X8528310Y-13567492D01*
X8583310Y-13622492D01*
X8583310Y-13876492D02*
X8638310Y-13821492D01*
X8583310Y-13766492D01*
X8528310Y-13821492D01*
X8583310Y-13876492D01*
X8837310Y-13622492D02*
X8892310Y-13567492D01*
X8837310Y-13512492D01*
X8782310Y-13567492D01*
X8837310Y-13622492D01*
X8837310Y-13876492D02*
X8892310Y-13821492D01*
X8837310Y-13766492D01*
X8782310Y-13821492D01*
X8837310Y-13876492D01*
X9091310Y-13622492D02*
X9146310Y-13567492D01*
X9091310Y-13512492D01*
X9036310Y-13567492D01*
X9091310Y-13622492D01*
X9091310Y-13876492D02*
X9146310Y-13821492D01*
X9091310Y-13766492D01*
X9036310Y-13821492D01*
X9091310Y-13876492D01*
X9345310Y-13622492D02*
X9400310Y-13567492D01*
X9345310Y-13512492D01*
X9290310Y-13567492D01*
X9345310Y-13622492D01*
X9345310Y-13876492D02*
X9400310Y-13821492D01*
X9345310Y-13766492D01*
X9290310Y-13821492D01*
X9345310Y-13876492D01*
X9599310Y-13622492D02*
X9654310Y-13567492D01*
X9599310Y-13512492D01*
X9544310Y-13567492D01*
X9599310Y-13622492D01*
X9599310Y-13876492D02*
X9654310Y-13821492D01*
X9599310Y-13766492D01*
X9544310Y-13821492D01*
X9599310Y-13876492D01*
X6297600Y-3317600D02*
X6602400Y-3622400D01*
X6602400Y-3317600D02*
X6297600Y-3622400D01*
X6602400Y-3470000D02*
G75*
G03*
X6602400Y-3470000I-152400J0D01*
G01*
X6297600Y-13717600D02*
X6602400Y-14022400D01*
X6602400Y-13717600D02*
X6297600Y-14022400D01*
X6602400Y-13870000D02*
G75*
G03*
X6602400Y-13870000I-152400J0D01*
G01*
X12497600Y-3317600D02*
X12802400Y-3622400D01*
X12802400Y-3317600D02*
X12497600Y-3622400D01*
X12802400Y-3470000D02*
G75*
G03*
X12802400Y-3470000I-152400J0D01*
G01*
X12497600Y-13717600D02*
X12802400Y-14022400D01*
X12802400Y-13717600D02*
X12497600Y-14022400D01*
X12802400Y-13870000D02*
G75*
G03*
X12802400Y-13870000I-152400J0D01*
G01*
X23397600Y-3317600D02*
X23702400Y-3622400D01*
X23702400Y-3317600D02*
X23397600Y-3622400D01*
X23702400Y-3470000D02*
G75*
G03*
X23702400Y-3470000I-152400J0D01*
G01*
X23397600Y-13717600D02*
X23702400Y-14022400D01*
X23702400Y-13717600D02*
X23397600Y-14022400D01*
X23702400Y-13870000D02*
G75*
G03*
X23702400Y-13870000I-152400J0D01*
G01*
X6319652Y-5795030D02*
X6639652Y-6115030D01*
X6639652Y-5795030D02*
X6319652Y-6115030D01*
X6479652Y-5795030D02*
X6479652Y-6115030D01*
X6319652Y-5955030D02*
X6639652Y-5955030D01*
X6319652Y-11595030D02*
X6639652Y-11915030D01*
X6639652Y-11595030D02*
X6319652Y-11915030D01*
X6479652Y-11595030D02*
X6479652Y-11915030D01*
X6319652Y-11755030D02*
X6639652Y-11755030D01*
D12*
X6433928Y-14638214D02*
X6433928Y-14338214D01*
X6505357Y-14338214D01*
X6548214Y-14352500D01*
X6576786Y-14381071D01*
X6591071Y-14409643D01*
X6605357Y-14466786D01*
X6605357Y-14509643D01*
X6591071Y-14566786D01*
X6576786Y-14595357D01*
X6548214Y-14623929D01*
X6505357Y-14638214D01*
X6433928Y-14638214D01*
X6733928Y-14638214D02*
X6733928Y-14438214D01*
X6733928Y-14495357D02*
X6748214Y-14466786D01*
X6762500Y-14452500D01*
X6791071Y-14438214D01*
X6819643Y-14438214D01*
X6919643Y-14638214D02*
X6919643Y-14438214D01*
X6919643Y-14338214D02*
X6905357Y-14352500D01*
X6919643Y-14366786D01*
X6933928Y-14352500D01*
X6919643Y-14338214D01*
X6919643Y-14366786D01*
X7105357Y-14638214D02*
X7076786Y-14623929D01*
X7062500Y-14595357D01*
X7062500Y-14338214D01*
X7262500Y-14638214D02*
X7233928Y-14623929D01*
X7219643Y-14595357D01*
X7219643Y-14338214D01*
X7605357Y-14638214D02*
X7605357Y-14338214D01*
X7705357Y-14552500D01*
X7805357Y-14338214D01*
X7805357Y-14638214D01*
X8076786Y-14638214D02*
X8076786Y-14481071D01*
X8062500Y-14452500D01*
X8033928Y-14438214D01*
X7976786Y-14438214D01*
X7948214Y-14452500D01*
X8076786Y-14623929D02*
X8048214Y-14638214D01*
X7976786Y-14638214D01*
X7948214Y-14623929D01*
X7933928Y-14595357D01*
X7933928Y-14566786D01*
X7948214Y-14538214D01*
X7976786Y-14523929D01*
X8048214Y-14523929D01*
X8076786Y-14509643D01*
X8219643Y-14438214D02*
X8219643Y-14738214D01*
X8219643Y-14452500D02*
X8248214Y-14438214D01*
X8305357Y-14438214D01*
X8333928Y-14452500D01*
X8348214Y-14466786D01*
X8362500Y-14495357D01*
X8362500Y-14581071D01*
X8348214Y-14609643D01*
X8333928Y-14623929D01*
X8305357Y-14638214D01*
X8248214Y-14638214D01*
X8219643Y-14623929D01*
X8491071Y-14609643D02*
X8505357Y-14623929D01*
X8491071Y-14638214D01*
X8476786Y-14623929D01*
X8491071Y-14609643D01*
X8491071Y-14638214D01*
X8491071Y-14452500D02*
X8505357Y-14466786D01*
X8491071Y-14481071D01*
X8476786Y-14466786D01*
X8491071Y-14452500D01*
X8491071Y-14481071D01*
X6117500Y-15117500D02*
X6147500Y-15147500D01*
X6147500Y-15117500D02*
X6117500Y-15147500D01*
X6491071Y-14968214D02*
X6519643Y-14968214D01*
X6548214Y-14982500D01*
X6562500Y-14996786D01*
X6576786Y-15025357D01*
X6591071Y-15082500D01*
X6591071Y-15153929D01*
X6576786Y-15211071D01*
X6562500Y-15239643D01*
X6548214Y-15253929D01*
X6519643Y-15268214D01*
X6491071Y-15268214D01*
X6462500Y-15253929D01*
X6448214Y-15239643D01*
X6433928Y-15211071D01*
X6419643Y-15153929D01*
X6419643Y-15082500D01*
X6433928Y-15025357D01*
X6448214Y-14996786D01*
X6462500Y-14982500D01*
X6491071Y-14968214D01*
X6719643Y-15239643D02*
X6733928Y-15253929D01*
X6719643Y-15268214D01*
X6705357Y-15253929D01*
X6719643Y-15239643D01*
X6719643Y-15268214D01*
X6833928Y-14968214D02*
X7019643Y-14968214D01*
X6919643Y-15082500D01*
X6962500Y-15082500D01*
X6991071Y-15096786D01*
X7005357Y-15111071D01*
X7019643Y-15139643D01*
X7019643Y-15211071D01*
X7005357Y-15239643D01*
X6991071Y-15253929D01*
X6962500Y-15268214D01*
X6876786Y-15268214D01*
X6848214Y-15253929D01*
X6833928Y-15239643D01*
X7205357Y-14968214D02*
X7233928Y-14968214D01*
X7262500Y-14982500D01*
X7276786Y-14996786D01*
X7291071Y-15025357D01*
X7305357Y-15082500D01*
X7305357Y-15153929D01*
X7291071Y-15211071D01*
X7276786Y-15239643D01*
X7262500Y-15253929D01*
X7233928Y-15268214D01*
X7205357Y-15268214D01*
X7176786Y-15253929D01*
X7162500Y-15239643D01*
X7148214Y-15211071D01*
X7133928Y-15153929D01*
X7133928Y-15082500D01*
X7148214Y-15025357D01*
X7162500Y-14996786D01*
X7176786Y-14982500D01*
X7205357Y-14968214D01*
X7433928Y-15268214D02*
X7433928Y-15068214D01*
X7433928Y-15096786D02*
X7448214Y-15082500D01*
X7476786Y-15068214D01*
X7519643Y-15068214D01*
X7548214Y-15082500D01*
X7562500Y-15111071D01*
X7562500Y-15268214D01*
X7562500Y-15111071D02*
X7576786Y-15082500D01*
X7605357Y-15068214D01*
X7648214Y-15068214D01*
X7676786Y-15082500D01*
X7691071Y-15111071D01*
X7691071Y-15268214D01*
X7833928Y-15268214D02*
X7833928Y-15068214D01*
X7833928Y-15096786D02*
X7848214Y-15082500D01*
X7876786Y-15068214D01*
X7919643Y-15068214D01*
X7948214Y-15082500D01*
X7962500Y-15111071D01*
X7962500Y-15268214D01*
X7962500Y-15111071D02*
X7976786Y-15082500D01*
X8005357Y-15068214D01*
X8048214Y-15068214D01*
X8076786Y-15082500D01*
X8091071Y-15111071D01*
X8091071Y-15268214D01*
X8676786Y-14953929D02*
X8419643Y-15339643D01*
X9062500Y-14968214D02*
X9091071Y-14968214D01*
X9119643Y-14982500D01*
X9133928Y-14996786D01*
X9148214Y-15025357D01*
X9162500Y-15082500D01*
X9162500Y-15153929D01*
X9148214Y-15211071D01*
X9133928Y-15239643D01*
X9119643Y-15253929D01*
X9091071Y-15268214D01*
X9062500Y-15268214D01*
X9033928Y-15253929D01*
X9019643Y-15239643D01*
X9005357Y-15211071D01*
X8991071Y-15153929D01*
X8991071Y-15082500D01*
X9005357Y-15025357D01*
X9019643Y-14996786D01*
X9033928Y-14982500D01*
X9062500Y-14968214D01*
X9291071Y-15239643D02*
X9305357Y-15253929D01*
X9291071Y-15268214D01*
X9276786Y-15253929D01*
X9291071Y-15239643D01*
X9291071Y-15268214D01*
X9491071Y-14968214D02*
X9519643Y-14968214D01*
X9548214Y-14982500D01*
X9562500Y-14996786D01*
X9576786Y-15025357D01*
X9591071Y-15082500D01*
X9591071Y-15153929D01*
X9576786Y-15211071D01*
X9562500Y-15239643D01*
X9548214Y-15253929D01*
X9519643Y-15268214D01*
X9491071Y-15268214D01*
X9462500Y-15253929D01*
X9448214Y-15239643D01*
X9433928Y-15211071D01*
X9419643Y-15153929D01*
X9419643Y-15082500D01*
X9433928Y-15025357D01*
X9448214Y-14996786D01*
X9462500Y-14982500D01*
X9491071Y-14968214D01*
X9876786Y-15268214D02*
X9705357Y-15268214D01*
X9791071Y-15268214D02*
X9791071Y-14968214D01*
X9762500Y-15011071D01*
X9733928Y-15039643D01*
X9705357Y-15053929D01*
X9991071Y-14996786D02*
X10005357Y-14982500D01*
X10033928Y-14968214D01*
X10105357Y-14968214D01*
X10133928Y-14982500D01*
X10148214Y-14996786D01*
X10162500Y-15025357D01*
X10162500Y-15053929D01*
X10148214Y-15096786D01*
X9976786Y-15268214D01*
X10162500Y-15268214D01*
X10276786Y-14968214D02*
X10276786Y-15025357D01*
X10391071Y-14968214D02*
X10391071Y-15025357D01*
X10833928Y-15382500D02*
X10819643Y-15368214D01*
X10791071Y-15325357D01*
X10776786Y-15296786D01*
X10762500Y-15253929D01*
X10748214Y-15182500D01*
X10748214Y-15125357D01*
X10762500Y-15053929D01*
X10776786Y-15011071D01*
X10791071Y-14982500D01*
X10819643Y-14939643D01*
X10833928Y-14925357D01*
X10933928Y-14996786D02*
X10948214Y-14982500D01*
X10976786Y-14968214D01*
X11048214Y-14968214D01*
X11076786Y-14982500D01*
X11091071Y-14996786D01*
X11105357Y-15025357D01*
X11105357Y-15053929D01*
X11091071Y-15096786D01*
X10919643Y-15268214D01*
X11105357Y-15268214D01*
X11391071Y-15268214D02*
X11219643Y-15268214D01*
X11305357Y-15268214D02*
X11305357Y-14968214D01*
X11276786Y-15011071D01*
X11248214Y-15039643D01*
X11219643Y-15053929D01*
X11576786Y-14968214D02*
X11605357Y-14968214D01*
X11633928Y-14982500D01*
X11648214Y-14996786D01*
X11662500Y-15025357D01*
X11676786Y-15082500D01*
X11676786Y-15153929D01*
X11662500Y-15211071D01*
X11648214Y-15239643D01*
X11633928Y-15253929D01*
X11605357Y-15268214D01*
X11576786Y-15268214D01*
X11548214Y-15253929D01*
X11533928Y-15239643D01*
X11519643Y-15211071D01*
X11505357Y-15153929D01*
X11505357Y-15082500D01*
X11519643Y-15025357D01*
X11533928Y-14996786D01*
X11548214Y-14982500D01*
X11576786Y-14968214D01*
X12033928Y-15268214D02*
X12033928Y-14968214D01*
X12162500Y-15268214D02*
X12162500Y-15111071D01*
X12148214Y-15082500D01*
X12119643Y-15068214D01*
X12076786Y-15068214D01*
X12048214Y-15082500D01*
X12033928Y-15096786D01*
X12348214Y-15268214D02*
X12319643Y-15253929D01*
X12305357Y-15239643D01*
X12291071Y-15211071D01*
X12291071Y-15125357D01*
X12305357Y-15096786D01*
X12319643Y-15082500D01*
X12348214Y-15068214D01*
X12391071Y-15068214D01*
X12419643Y-15082500D01*
X12433928Y-15096786D01*
X12448214Y-15125357D01*
X12448214Y-15211071D01*
X12433928Y-15239643D01*
X12419643Y-15253929D01*
X12391071Y-15268214D01*
X12348214Y-15268214D01*
X12619643Y-15268214D02*
X12591071Y-15253929D01*
X12576786Y-15225357D01*
X12576786Y-14968214D01*
X12848214Y-15253929D02*
X12819643Y-15268214D01*
X12762500Y-15268214D01*
X12733928Y-15253929D01*
X12719643Y-15225357D01*
X12719643Y-15111071D01*
X12733928Y-15082500D01*
X12762500Y-15068214D01*
X12819643Y-15068214D01*
X12848214Y-15082500D01*
X12862500Y-15111071D01*
X12862500Y-15139643D01*
X12719643Y-15168214D01*
X12976786Y-15253929D02*
X13005357Y-15268214D01*
X13062500Y-15268214D01*
X13091071Y-15253929D01*
X13105357Y-15225357D01*
X13105357Y-15211071D01*
X13091071Y-15182500D01*
X13062500Y-15168214D01*
X13019643Y-15168214D01*
X12991071Y-15153929D01*
X12976786Y-15125357D01*
X12976786Y-15111071D01*
X12991071Y-15082500D01*
X13019643Y-15068214D01*
X13062500Y-15068214D01*
X13091071Y-15082500D01*
X13205357Y-15382500D02*
X13219643Y-15368214D01*
X13248214Y-15325357D01*
X13262500Y-15296786D01*
X13276786Y-15253929D01*
X13291071Y-15182500D01*
X13291071Y-15125357D01*
X13276786Y-15053929D01*
X13262500Y-15011071D01*
X13248214Y-14982500D01*
X13219643Y-14939643D01*
X13205357Y-14925357D01*
X6147500Y-15528500D02*
G75*
G03*
X6147500Y-15528500I-20000J0D01*
G01*
X6491071Y-15364214D02*
X6519643Y-15364214D01*
X6548214Y-15378500D01*
X6562500Y-15392786D01*
X6576786Y-15421357D01*
X6591071Y-15478500D01*
X6591071Y-15549929D01*
X6576786Y-15607071D01*
X6562500Y-15635643D01*
X6548214Y-15649929D01*
X6519643Y-15664214D01*
X6491071Y-15664214D01*
X6462500Y-15649929D01*
X6448214Y-15635643D01*
X6433928Y-15607071D01*
X6419643Y-15549929D01*
X6419643Y-15478500D01*
X6433928Y-15421357D01*
X6448214Y-15392786D01*
X6462500Y-15378500D01*
X6491071Y-15364214D01*
X6719643Y-15635643D02*
X6733928Y-15649929D01*
X6719643Y-15664214D01*
X6705357Y-15649929D01*
X6719643Y-15635643D01*
X6719643Y-15664214D01*
X6991071Y-15464214D02*
X6991071Y-15664214D01*
X6919643Y-15349929D02*
X6848214Y-15564214D01*
X7033928Y-15564214D01*
X7205357Y-15364214D02*
X7233928Y-15364214D01*
X7262500Y-15378500D01*
X7276786Y-15392786D01*
X7291071Y-15421357D01*
X7305357Y-15478500D01*
X7305357Y-15549929D01*
X7291071Y-15607071D01*
X7276786Y-15635643D01*
X7262500Y-15649929D01*
X7233928Y-15664214D01*
X7205357Y-15664214D01*
X7176786Y-15649929D01*
X7162500Y-15635643D01*
X7148214Y-15607071D01*
X7133928Y-15549929D01*
X7133928Y-15478500D01*
X7148214Y-15421357D01*
X7162500Y-15392786D01*
X7176786Y-15378500D01*
X7205357Y-15364214D01*
X7433928Y-15664214D02*
X7433928Y-15464214D01*
X7433928Y-15492786D02*
X7448214Y-15478500D01*
X7476786Y-15464214D01*
X7519643Y-15464214D01*
X7548214Y-15478500D01*
X7562500Y-15507071D01*
X7562500Y-15664214D01*
X7562500Y-15507071D02*
X7576786Y-15478500D01*
X7605357Y-15464214D01*
X7648214Y-15464214D01*
X7676786Y-15478500D01*
X7691071Y-15507071D01*
X7691071Y-15664214D01*
X7833928Y-15664214D02*
X7833928Y-15464214D01*
X7833928Y-15492786D02*
X7848214Y-15478500D01*
X7876786Y-15464214D01*
X7919643Y-15464214D01*
X7948214Y-15478500D01*
X7962500Y-15507071D01*
X7962500Y-15664214D01*
X7962500Y-15507071D02*
X7976786Y-15478500D01*
X8005357Y-15464214D01*
X8048214Y-15464214D01*
X8076786Y-15478500D01*
X8091071Y-15507071D01*
X8091071Y-15664214D01*
X8676786Y-15349929D02*
X8419643Y-15735643D01*
X9062500Y-15364214D02*
X9091071Y-15364214D01*
X9119643Y-15378500D01*
X9133928Y-15392786D01*
X9148214Y-15421357D01*
X9162500Y-15478500D01*
X9162500Y-15549929D01*
X9148214Y-15607071D01*
X9133928Y-15635643D01*
X9119643Y-15649929D01*
X9091071Y-15664214D01*
X9062500Y-15664214D01*
X9033928Y-15649929D01*
X9019643Y-15635643D01*
X9005357Y-15607071D01*
X8991071Y-15549929D01*
X8991071Y-15478500D01*
X9005357Y-15421357D01*
X9019643Y-15392786D01*
X9033928Y-15378500D01*
X9062500Y-15364214D01*
X9291071Y-15635643D02*
X9305357Y-15649929D01*
X9291071Y-15664214D01*
X9276786Y-15649929D01*
X9291071Y-15635643D01*
X9291071Y-15664214D01*
X9491071Y-15364214D02*
X9519643Y-15364214D01*
X9548214Y-15378500D01*
X9562500Y-15392786D01*
X9576786Y-15421357D01*
X9591071Y-15478500D01*
X9591071Y-15549929D01*
X9576786Y-15607071D01*
X9562500Y-15635643D01*
X9548214Y-15649929D01*
X9519643Y-15664214D01*
X9491071Y-15664214D01*
X9462500Y-15649929D01*
X9448214Y-15635643D01*
X9433928Y-15607071D01*
X9419643Y-15549929D01*
X9419643Y-15478500D01*
X9433928Y-15421357D01*
X9448214Y-15392786D01*
X9462500Y-15378500D01*
X9491071Y-15364214D01*
X9876786Y-15664214D02*
X9705357Y-15664214D01*
X9791071Y-15664214D02*
X9791071Y-15364214D01*
X9762500Y-15407071D01*
X9733928Y-15435643D01*
X9705357Y-15449929D01*
X10133928Y-15364214D02*
X10076786Y-15364214D01*
X10048214Y-15378500D01*
X10033928Y-15392786D01*
X10005357Y-15435643D01*
X9991071Y-15492786D01*
X9991071Y-15607071D01*
X10005357Y-15635643D01*
X10019643Y-15649929D01*
X10048214Y-15664214D01*
X10105357Y-15664214D01*
X10133928Y-15649929D01*
X10148214Y-15635643D01*
X10162500Y-15607071D01*
X10162500Y-15535643D01*
X10148214Y-15507071D01*
X10133928Y-15492786D01*
X10105357Y-15478500D01*
X10048214Y-15478500D01*
X10019643Y-15492786D01*
X10005357Y-15507071D01*
X9991071Y-15535643D01*
X10276786Y-15364214D02*
X10276786Y-15421357D01*
X10391071Y-15364214D02*
X10391071Y-15421357D01*
X10833928Y-15778500D02*
X10819643Y-15764214D01*
X10791071Y-15721357D01*
X10776786Y-15692786D01*
X10762500Y-15649929D01*
X10748214Y-15578500D01*
X10748214Y-15521357D01*
X10762500Y-15449929D01*
X10776786Y-15407071D01*
X10791071Y-15378500D01*
X10819643Y-15335643D01*
X10833928Y-15321357D01*
X11076786Y-15364214D02*
X11019643Y-15364214D01*
X10991071Y-15378500D01*
X10976786Y-15392786D01*
X10948214Y-15435643D01*
X10933928Y-15492786D01*
X10933928Y-15607071D01*
X10948214Y-15635643D01*
X10962500Y-15649929D01*
X10991071Y-15664214D01*
X11048214Y-15664214D01*
X11076786Y-15649929D01*
X11091071Y-15635643D01*
X11105357Y-15607071D01*
X11105357Y-15535643D01*
X11091071Y-15507071D01*
X11076786Y-15492786D01*
X11048214Y-15478500D01*
X10991071Y-15478500D01*
X10962500Y-15492786D01*
X10948214Y-15507071D01*
X10933928Y-15535643D01*
X11248214Y-15664214D02*
X11305357Y-15664214D01*
X11333928Y-15649929D01*
X11348214Y-15635643D01*
X11376786Y-15592786D01*
X11391071Y-15535643D01*
X11391071Y-15421357D01*
X11376786Y-15392786D01*
X11362500Y-15378500D01*
X11333928Y-15364214D01*
X11276786Y-15364214D01*
X11248214Y-15378500D01*
X11233928Y-15392786D01*
X11219643Y-15421357D01*
X11219643Y-15492786D01*
X11233928Y-15521357D01*
X11248214Y-15535643D01*
X11276786Y-15549929D01*
X11333928Y-15549929D01*
X11362500Y-15535643D01*
X11376786Y-15521357D01*
X11391071Y-15492786D01*
X11648214Y-15464214D02*
X11648214Y-15664214D01*
X11576786Y-15349929D02*
X11505357Y-15564214D01*
X11691071Y-15564214D01*
X12033928Y-15664214D02*
X12033928Y-15364214D01*
X12162500Y-15664214D02*
X12162500Y-15507071D01*
X12148214Y-15478500D01*
X12119643Y-15464214D01*
X12076786Y-15464214D01*
X12048214Y-15478500D01*
X12033928Y-15492786D01*
X12348214Y-15664214D02*
X12319643Y-15649929D01*
X12305357Y-15635643D01*
X12291071Y-15607071D01*
X12291071Y-15521357D01*
X12305357Y-15492786D01*
X12319643Y-15478500D01*
X12348214Y-15464214D01*
X12391071Y-15464214D01*
X12419643Y-15478500D01*
X12433928Y-15492786D01*
X12448214Y-15521357D01*
X12448214Y-15607071D01*
X12433928Y-15635643D01*
X12419643Y-15649929D01*
X12391071Y-15664214D01*
X12348214Y-15664214D01*
X12619643Y-15664214D02*
X12591071Y-15649929D01*
X12576786Y-15621357D01*
X12576786Y-15364214D01*
X12848214Y-15649929D02*
X12819643Y-15664214D01*
X12762500Y-15664214D01*
X12733928Y-15649929D01*
X12719643Y-15621357D01*
X12719643Y-15507071D01*
X12733928Y-15478500D01*
X12762500Y-15464214D01*
X12819643Y-15464214D01*
X12848214Y-15478500D01*
X12862500Y-15507071D01*
X12862500Y-15535643D01*
X12719643Y-15564214D01*
X12976786Y-15649929D02*
X13005357Y-15664214D01*
X13062500Y-15664214D01*
X13091071Y-15649929D01*
X13105357Y-15621357D01*
X13105357Y-15607071D01*
X13091071Y-15578500D01*
X13062500Y-15564214D01*
X13019643Y-15564214D01*
X12991071Y-15549929D01*
X12976786Y-15521357D01*
X12976786Y-15507071D01*
X12991071Y-15478500D01*
X13019643Y-15464214D01*
X13062500Y-15464214D01*
X13091071Y-15478500D01*
X13205357Y-15778500D02*
X13219643Y-15764214D01*
X13248214Y-15721357D01*
X13262500Y-15692786D01*
X13276786Y-15649929D01*
X13291071Y-15578500D01*
X13291071Y-15521357D01*
X13276786Y-15449929D01*
X13262500Y-15407071D01*
X13248214Y-15378500D01*
X13219643Y-15335643D01*
X13205357Y-15321357D01*
X6117500Y-15894500D02*
X6117500Y-15954500D01*
X6087500Y-15924500D02*
X6147500Y-15924500D01*
X6491071Y-15760214D02*
X6519643Y-15760214D01*
X6548214Y-15774500D01*
X6562500Y-15788786D01*
X6576786Y-15817357D01*
X6591071Y-15874500D01*
X6591071Y-15945929D01*
X6576786Y-16003071D01*
X6562500Y-16031643D01*
X6548214Y-16045929D01*
X6519643Y-16060214D01*
X6491071Y-16060214D01*
X6462500Y-16045929D01*
X6448214Y-16031643D01*
X6433928Y-16003071D01*
X6419643Y-15945929D01*
X6419643Y-15874500D01*
X6433928Y-15817357D01*
X6448214Y-15788786D01*
X6462500Y-15774500D01*
X6491071Y-15760214D01*
X6719643Y-16031643D02*
X6733928Y-16045929D01*
X6719643Y-16060214D01*
X6705357Y-16045929D01*
X6719643Y-16031643D01*
X6719643Y-16060214D01*
X6991071Y-15760214D02*
X6933928Y-15760214D01*
X6905357Y-15774500D01*
X6891071Y-15788786D01*
X6862500Y-15831643D01*
X6848214Y-15888786D01*
X6848214Y-16003071D01*
X6862500Y-16031643D01*
X6876786Y-16045929D01*
X6905357Y-16060214D01*
X6962500Y-16060214D01*
X6991071Y-16045929D01*
X7005357Y-16031643D01*
X7019643Y-16003071D01*
X7019643Y-15931643D01*
X7005357Y-15903071D01*
X6991071Y-15888786D01*
X6962500Y-15874500D01*
X6905357Y-15874500D01*
X6876786Y-15888786D01*
X6862500Y-15903071D01*
X6848214Y-15931643D01*
X7205357Y-15760214D02*
X7233928Y-15760214D01*
X7262500Y-15774500D01*
X7276786Y-15788786D01*
X7291071Y-15817357D01*
X7305357Y-15874500D01*
X7305357Y-15945929D01*
X7291071Y-16003071D01*
X7276786Y-16031643D01*
X7262500Y-16045929D01*
X7233928Y-16060214D01*
X7205357Y-16060214D01*
X7176786Y-16045929D01*
X7162500Y-16031643D01*
X7148214Y-16003071D01*
X7133928Y-15945929D01*
X7133928Y-15874500D01*
X7148214Y-15817357D01*
X7162500Y-15788786D01*
X7176786Y-15774500D01*
X7205357Y-15760214D01*
X7433928Y-16060214D02*
X7433928Y-15860214D01*
X7433928Y-15888786D02*
X7448214Y-15874500D01*
X7476786Y-15860214D01*
X7519643Y-15860214D01*
X7548214Y-15874500D01*
X7562500Y-15903071D01*
X7562500Y-16060214D01*
X7562500Y-15903071D02*
X7576786Y-15874500D01*
X7605357Y-15860214D01*
X7648214Y-15860214D01*
X7676786Y-15874500D01*
X7691071Y-15903071D01*
X7691071Y-16060214D01*
X7833928Y-16060214D02*
X7833928Y-15860214D01*
X7833928Y-15888786D02*
X7848214Y-15874500D01*
X7876786Y-15860214D01*
X7919643Y-15860214D01*
X7948214Y-15874500D01*
X7962500Y-15903071D01*
X7962500Y-16060214D01*
X7962500Y-15903071D02*
X7976786Y-15874500D01*
X8005357Y-15860214D01*
X8048214Y-15860214D01*
X8076786Y-15874500D01*
X8091071Y-15903071D01*
X8091071Y-16060214D01*
X8676786Y-15745929D02*
X8419643Y-16131643D01*
X9062500Y-15760214D02*
X9091071Y-15760214D01*
X9119643Y-15774500D01*
X9133928Y-15788786D01*
X9148214Y-15817357D01*
X9162500Y-15874500D01*
X9162500Y-15945929D01*
X9148214Y-16003071D01*
X9133928Y-16031643D01*
X9119643Y-16045929D01*
X9091071Y-16060214D01*
X9062500Y-16060214D01*
X9033928Y-16045929D01*
X9019643Y-16031643D01*
X9005357Y-16003071D01*
X8991071Y-15945929D01*
X8991071Y-15874500D01*
X9005357Y-15817357D01*
X9019643Y-15788786D01*
X9033928Y-15774500D01*
X9062500Y-15760214D01*
X9291071Y-16031643D02*
X9305357Y-16045929D01*
X9291071Y-16060214D01*
X9276786Y-16045929D01*
X9291071Y-16031643D01*
X9291071Y-16060214D01*
X9491071Y-15760214D02*
X9519643Y-15760214D01*
X9548214Y-15774500D01*
X9562500Y-15788786D01*
X9576786Y-15817357D01*
X9591071Y-15874500D01*
X9591071Y-15945929D01*
X9576786Y-16003071D01*
X9562500Y-16031643D01*
X9548214Y-16045929D01*
X9519643Y-16060214D01*
X9491071Y-16060214D01*
X9462500Y-16045929D01*
X9448214Y-16031643D01*
X9433928Y-16003071D01*
X9419643Y-15945929D01*
X9419643Y-15874500D01*
X9433928Y-15817357D01*
X9448214Y-15788786D01*
X9462500Y-15774500D01*
X9491071Y-15760214D01*
X9705357Y-15788786D02*
X9719643Y-15774500D01*
X9748214Y-15760214D01*
X9819643Y-15760214D01*
X9848214Y-15774500D01*
X9862500Y-15788786D01*
X9876786Y-15817357D01*
X9876786Y-15845929D01*
X9862500Y-15888786D01*
X9691071Y-16060214D01*
X9876786Y-16060214D01*
X10133928Y-15860214D02*
X10133928Y-16060214D01*
X10062500Y-15745929D02*
X9991071Y-15960214D01*
X10176786Y-15960214D01*
X10276786Y-15760214D02*
X10276786Y-15817357D01*
X10391071Y-15760214D02*
X10391071Y-15817357D01*
X10833928Y-16174500D02*
X10819643Y-16160214D01*
X10791071Y-16117357D01*
X10776786Y-16088786D01*
X10762500Y-16045929D01*
X10748214Y-15974500D01*
X10748214Y-15917357D01*
X10762500Y-15845929D01*
X10776786Y-15803071D01*
X10791071Y-15774500D01*
X10819643Y-15731643D01*
X10833928Y-15717357D01*
X10919643Y-15760214D02*
X11105357Y-15760214D01*
X11005357Y-15874500D01*
X11048214Y-15874500D01*
X11076786Y-15888786D01*
X11091071Y-15903071D01*
X11105357Y-15931643D01*
X11105357Y-16003071D01*
X11091071Y-16031643D01*
X11076786Y-16045929D01*
X11048214Y-16060214D01*
X10962500Y-16060214D01*
X10933928Y-16045929D01*
X10919643Y-16031643D01*
X11219643Y-15788786D02*
X11233928Y-15774500D01*
X11262500Y-15760214D01*
X11333928Y-15760214D01*
X11362500Y-15774500D01*
X11376786Y-15788786D01*
X11391071Y-15817357D01*
X11391071Y-15845929D01*
X11376786Y-15888786D01*
X11205357Y-16060214D01*
X11391071Y-16060214D01*
X11748214Y-16060214D02*
X11748214Y-15760214D01*
X11876786Y-16060214D02*
X11876786Y-15903071D01*
X11862500Y-15874500D01*
X11833928Y-15860214D01*
X11791071Y-15860214D01*
X11762500Y-15874500D01*
X11748214Y-15888786D01*
X12062500Y-16060214D02*
X12033928Y-16045929D01*
X12019643Y-16031643D01*
X12005357Y-16003071D01*
X12005357Y-15917357D01*
X12019643Y-15888786D01*
X12033928Y-15874500D01*
X12062500Y-15860214D01*
X12105357Y-15860214D01*
X12133928Y-15874500D01*
X12148214Y-15888786D01*
X12162500Y-15917357D01*
X12162500Y-16003071D01*
X12148214Y-16031643D01*
X12133928Y-16045929D01*
X12105357Y-16060214D01*
X12062500Y-16060214D01*
X12333928Y-16060214D02*
X12305357Y-16045929D01*
X12291071Y-16017357D01*
X12291071Y-15760214D01*
X12562500Y-16045929D02*
X12533928Y-16060214D01*
X12476786Y-16060214D01*
X12448214Y-16045929D01*
X12433928Y-16017357D01*
X12433928Y-15903071D01*
X12448214Y-15874500D01*
X12476786Y-15860214D01*
X12533928Y-15860214D01*
X12562500Y-15874500D01*
X12576786Y-15903071D01*
X12576786Y-15931643D01*
X12433928Y-15960214D01*
X12691071Y-16045929D02*
X12719643Y-16060214D01*
X12776786Y-16060214D01*
X12805357Y-16045929D01*
X12819643Y-16017357D01*
X12819643Y-16003071D01*
X12805357Y-15974500D01*
X12776786Y-15960214D01*
X12733928Y-15960214D01*
X12705357Y-15945929D01*
X12691071Y-15917357D01*
X12691071Y-15903071D01*
X12705357Y-15874500D01*
X12733928Y-15860214D01*
X12776786Y-15860214D01*
X12805357Y-15874500D01*
X12919643Y-16174500D02*
X12933928Y-16160214D01*
X12962500Y-16117357D01*
X12976786Y-16088786D01*
X12991071Y-16045929D01*
X13005357Y-15974500D01*
X13005357Y-15917357D01*
X12991071Y-15845929D01*
X12976786Y-15803071D01*
X12962500Y-15774500D01*
X12933928Y-15731643D01*
X12919643Y-15717357D01*
X6132856Y-16355856D02*
X6132856Y-16285144D01*
X6062144Y-16285144D01*
X6062144Y-16355856D01*
X6132856Y-16355856D01*
X6591071Y-16456214D02*
X6419643Y-16456214D01*
X6505357Y-16456214D02*
X6505357Y-16156214D01*
X6476786Y-16199071D01*
X6448214Y-16227643D01*
X6419643Y-16241929D01*
X6719643Y-16427643D02*
X6733928Y-16441929D01*
X6719643Y-16456214D01*
X6705357Y-16441929D01*
X6719643Y-16427643D01*
X6719643Y-16456214D01*
X6919643Y-16156214D02*
X6948214Y-16156214D01*
X6976786Y-16170500D01*
X6991071Y-16184786D01*
X7005357Y-16213357D01*
X7019643Y-16270500D01*
X7019643Y-16341929D01*
X7005357Y-16399071D01*
X6991071Y-16427643D01*
X6976786Y-16441929D01*
X6948214Y-16456214D01*
X6919643Y-16456214D01*
X6891071Y-16441929D01*
X6876786Y-16427643D01*
X6862500Y-16399071D01*
X6848214Y-16341929D01*
X6848214Y-16270500D01*
X6862500Y-16213357D01*
X6876786Y-16184786D01*
X6891071Y-16170500D01*
X6919643Y-16156214D01*
X7205357Y-16156214D02*
X7233928Y-16156214D01*
X7262500Y-16170500D01*
X7276786Y-16184786D01*
X7291071Y-16213357D01*
X7305357Y-16270500D01*
X7305357Y-16341929D01*
X7291071Y-16399071D01*
X7276786Y-16427643D01*
X7262500Y-16441929D01*
X7233928Y-16456214D01*
X7205357Y-16456214D01*
X7176786Y-16441929D01*
X7162500Y-16427643D01*
X7148214Y-16399071D01*
X7133928Y-16341929D01*
X7133928Y-16270500D01*
X7148214Y-16213357D01*
X7162500Y-16184786D01*
X7176786Y-16170500D01*
X7205357Y-16156214D01*
X7433928Y-16456214D02*
X7433928Y-16256214D01*
X7433928Y-16284786D02*
X7448214Y-16270500D01*
X7476786Y-16256214D01*
X7519643Y-16256214D01*
X7548214Y-16270500D01*
X7562500Y-16299071D01*
X7562500Y-16456214D01*
X7562500Y-16299071D02*
X7576786Y-16270500D01*
X7605357Y-16256214D01*
X7648214Y-16256214D01*
X7676786Y-16270500D01*
X7691071Y-16299071D01*
X7691071Y-16456214D01*
X7833928Y-16456214D02*
X7833928Y-16256214D01*
X7833928Y-16284786D02*
X7848214Y-16270500D01*
X7876786Y-16256214D01*
X7919643Y-16256214D01*
X7948214Y-16270500D01*
X7962500Y-16299071D01*
X7962500Y-16456214D01*
X7962500Y-16299071D02*
X7976786Y-16270500D01*
X8005357Y-16256214D01*
X8048214Y-16256214D01*
X8076786Y-16270500D01*
X8091071Y-16299071D01*
X8091071Y-16456214D01*
X8676786Y-16141929D02*
X8419643Y-16527643D01*
X9062500Y-16156214D02*
X9091071Y-16156214D01*
X9119643Y-16170500D01*
X9133928Y-16184786D01*
X9148214Y-16213357D01*
X9162500Y-16270500D01*
X9162500Y-16341929D01*
X9148214Y-16399071D01*
X9133928Y-16427643D01*
X9119643Y-16441929D01*
X9091071Y-16456214D01*
X9062500Y-16456214D01*
X9033928Y-16441929D01*
X9019643Y-16427643D01*
X9005357Y-16399071D01*
X8991071Y-16341929D01*
X8991071Y-16270500D01*
X9005357Y-16213357D01*
X9019643Y-16184786D01*
X9033928Y-16170500D01*
X9062500Y-16156214D01*
X9291071Y-16427643D02*
X9305357Y-16441929D01*
X9291071Y-16456214D01*
X9276786Y-16441929D01*
X9291071Y-16427643D01*
X9291071Y-16456214D01*
X9491071Y-16156214D02*
X9519643Y-16156214D01*
X9548214Y-16170500D01*
X9562500Y-16184786D01*
X9576786Y-16213357D01*
X9591071Y-16270500D01*
X9591071Y-16341929D01*
X9576786Y-16399071D01*
X9562500Y-16427643D01*
X9548214Y-16441929D01*
X9519643Y-16456214D01*
X9491071Y-16456214D01*
X9462500Y-16441929D01*
X9448214Y-16427643D01*
X9433928Y-16399071D01*
X9419643Y-16341929D01*
X9419643Y-16270500D01*
X9433928Y-16213357D01*
X9448214Y-16184786D01*
X9462500Y-16170500D01*
X9491071Y-16156214D01*
X9691071Y-16156214D02*
X9876786Y-16156214D01*
X9776786Y-16270500D01*
X9819643Y-16270500D01*
X9848214Y-16284786D01*
X9862500Y-16299071D01*
X9876786Y-16327643D01*
X9876786Y-16399071D01*
X9862500Y-16427643D01*
X9848214Y-16441929D01*
X9819643Y-16456214D01*
X9733928Y-16456214D01*
X9705357Y-16441929D01*
X9691071Y-16427643D01*
X10019643Y-16456214D02*
X10076786Y-16456214D01*
X10105357Y-16441929D01*
X10119643Y-16427643D01*
X10148214Y-16384786D01*
X10162500Y-16327643D01*
X10162500Y-16213357D01*
X10148214Y-16184786D01*
X10133928Y-16170500D01*
X10105357Y-16156214D01*
X10048214Y-16156214D01*
X10019643Y-16170500D01*
X10005357Y-16184786D01*
X9991071Y-16213357D01*
X9991071Y-16284786D01*
X10005357Y-16313357D01*
X10019643Y-16327643D01*
X10048214Y-16341929D01*
X10105357Y-16341929D01*
X10133928Y-16327643D01*
X10148214Y-16313357D01*
X10162500Y-16284786D01*
X10276786Y-16156214D02*
X10276786Y-16213357D01*
X10391071Y-16156214D02*
X10391071Y-16213357D01*
X10833928Y-16570500D02*
X10819643Y-16556214D01*
X10791071Y-16513357D01*
X10776786Y-16484786D01*
X10762500Y-16441929D01*
X10748214Y-16370500D01*
X10748214Y-16313357D01*
X10762500Y-16241929D01*
X10776786Y-16199071D01*
X10791071Y-16170500D01*
X10819643Y-16127643D01*
X10833928Y-16113357D01*
X11091071Y-16156214D02*
X10948214Y-16156214D01*
X10933928Y-16299071D01*
X10948214Y-16284786D01*
X10976786Y-16270500D01*
X11048214Y-16270500D01*
X11076786Y-16284786D01*
X11091071Y-16299071D01*
X11105357Y-16327643D01*
X11105357Y-16399071D01*
X11091071Y-16427643D01*
X11076786Y-16441929D01*
X11048214Y-16456214D01*
X10976786Y-16456214D01*
X10948214Y-16441929D01*
X10933928Y-16427643D01*
X11362500Y-16256214D02*
X11362500Y-16456214D01*
X11291071Y-16141929D02*
X11219643Y-16356214D01*
X11405357Y-16356214D01*
X11491071Y-16156214D02*
X11676786Y-16156214D01*
X11576786Y-16270500D01*
X11619643Y-16270500D01*
X11648214Y-16284786D01*
X11662500Y-16299071D01*
X11676786Y-16327643D01*
X11676786Y-16399071D01*
X11662500Y-16427643D01*
X11648214Y-16441929D01*
X11619643Y-16456214D01*
X11533928Y-16456214D01*
X11505357Y-16441929D01*
X11491071Y-16427643D01*
X12033928Y-16456214D02*
X12033928Y-16156214D01*
X12162500Y-16456214D02*
X12162500Y-16299071D01*
X12148214Y-16270500D01*
X12119643Y-16256214D01*
X12076786Y-16256214D01*
X12048214Y-16270500D01*
X12033928Y-16284786D01*
X12348214Y-16456214D02*
X12319643Y-16441929D01*
X12305357Y-16427643D01*
X12291071Y-16399071D01*
X12291071Y-16313357D01*
X12305357Y-16284786D01*
X12319643Y-16270500D01*
X12348214Y-16256214D01*
X12391071Y-16256214D01*
X12419643Y-16270500D01*
X12433928Y-16284786D01*
X12448214Y-16313357D01*
X12448214Y-16399071D01*
X12433928Y-16427643D01*
X12419643Y-16441929D01*
X12391071Y-16456214D01*
X12348214Y-16456214D01*
X12619643Y-16456214D02*
X12591071Y-16441929D01*
X12576786Y-16413357D01*
X12576786Y-16156214D01*
X12848214Y-16441929D02*
X12819643Y-16456214D01*
X12762500Y-16456214D01*
X12733928Y-16441929D01*
X12719643Y-16413357D01*
X12719643Y-16299071D01*
X12733928Y-16270500D01*
X12762500Y-16256214D01*
X12819643Y-16256214D01*
X12848214Y-16270500D01*
X12862500Y-16299071D01*
X12862500Y-16327643D01*
X12719643Y-16356214D01*
X12976786Y-16441929D02*
X13005357Y-16456214D01*
X13062500Y-16456214D01*
X13091071Y-16441929D01*
X13105357Y-16413357D01*
X13105357Y-16399071D01*
X13091071Y-16370500D01*
X13062500Y-16356214D01*
X13019643Y-16356214D01*
X12991071Y-16341929D01*
X12976786Y-16313357D01*
X12976786Y-16299071D01*
X12991071Y-16270500D01*
X13019643Y-16256214D01*
X13062500Y-16256214D01*
X13091071Y-16270500D01*
X13205357Y-16570500D02*
X13219643Y-16556214D01*
X13248214Y-16513357D01*
X13262500Y-16484786D01*
X13276786Y-16441929D01*
X13291071Y-16370500D01*
X13291071Y-16313357D01*
X13276786Y-16241929D01*
X13262500Y-16199071D01*
X13248214Y-16170500D01*
X13219643Y-16127643D01*
X13205357Y-16113357D01*
X6092500Y-16771500D02*
X6147500Y-16716500D01*
X6092500Y-16661500D01*
X6037500Y-16716500D01*
X6092500Y-16771500D01*
X6591071Y-16852214D02*
X6419643Y-16852214D01*
X6505357Y-16852214D02*
X6505357Y-16552214D01*
X6476786Y-16595071D01*
X6448214Y-16623643D01*
X6419643Y-16637929D01*
X6719643Y-16823643D02*
X6733928Y-16837929D01*
X6719643Y-16852214D01*
X6705357Y-16837929D01*
X6719643Y-16823643D01*
X6719643Y-16852214D01*
X7019643Y-16852214D02*
X6848214Y-16852214D01*
X6933928Y-16852214D02*
X6933928Y-16552214D01*
X6905357Y-16595071D01*
X6876786Y-16623643D01*
X6848214Y-16637929D01*
X7205357Y-16552214D02*
X7233928Y-16552214D01*
X7262500Y-16566500D01*
X7276786Y-16580786D01*
X7291071Y-16609357D01*
X7305357Y-16666500D01*
X7305357Y-16737929D01*
X7291071Y-16795072D01*
X7276786Y-16823643D01*
X7262500Y-16837929D01*
X7233928Y-16852214D01*
X7205357Y-16852214D01*
X7176786Y-16837929D01*
X7162500Y-16823643D01*
X7148214Y-16795072D01*
X7133928Y-16737929D01*
X7133928Y-16666500D01*
X7148214Y-16609357D01*
X7162500Y-16580786D01*
X7176786Y-16566500D01*
X7205357Y-16552214D01*
X7433928Y-16852214D02*
X7433928Y-16652214D01*
X7433928Y-16680786D02*
X7448214Y-16666500D01*
X7476786Y-16652214D01*
X7519643Y-16652214D01*
X7548214Y-16666500D01*
X7562500Y-16695071D01*
X7562500Y-16852214D01*
X7562500Y-16695071D02*
X7576786Y-16666500D01*
X7605357Y-16652214D01*
X7648214Y-16652214D01*
X7676786Y-16666500D01*
X7691071Y-16695071D01*
X7691071Y-16852214D01*
X7833928Y-16852214D02*
X7833928Y-16652214D01*
X7833928Y-16680786D02*
X7848214Y-16666500D01*
X7876786Y-16652214D01*
X7919643Y-16652214D01*
X7948214Y-16666500D01*
X7962500Y-16695071D01*
X7962500Y-16852214D01*
X7962500Y-16695071D02*
X7976786Y-16666500D01*
X8005357Y-16652214D01*
X8048214Y-16652214D01*
X8076786Y-16666500D01*
X8091071Y-16695071D01*
X8091071Y-16852214D01*
X8676786Y-16537929D02*
X8419643Y-16923643D01*
X9062500Y-16552214D02*
X9091071Y-16552214D01*
X9119643Y-16566500D01*
X9133928Y-16580786D01*
X9148214Y-16609357D01*
X9162500Y-16666500D01*
X9162500Y-16737929D01*
X9148214Y-16795072D01*
X9133928Y-16823643D01*
X9119643Y-16837929D01*
X9091071Y-16852214D01*
X9062500Y-16852214D01*
X9033928Y-16837929D01*
X9019643Y-16823643D01*
X9005357Y-16795072D01*
X8991071Y-16737929D01*
X8991071Y-16666500D01*
X9005357Y-16609357D01*
X9019643Y-16580786D01*
X9033928Y-16566500D01*
X9062500Y-16552214D01*
X9291071Y-16823643D02*
X9305357Y-16837929D01*
X9291071Y-16852214D01*
X9276786Y-16837929D01*
X9291071Y-16823643D01*
X9291071Y-16852214D01*
X9491071Y-16552214D02*
X9519643Y-16552214D01*
X9548214Y-16566500D01*
X9562500Y-16580786D01*
X9576786Y-16609357D01*
X9591071Y-16666500D01*
X9591071Y-16737929D01*
X9576786Y-16795072D01*
X9562500Y-16823643D01*
X9548214Y-16837929D01*
X9519643Y-16852214D01*
X9491071Y-16852214D01*
X9462500Y-16837929D01*
X9448214Y-16823643D01*
X9433928Y-16795072D01*
X9419643Y-16737929D01*
X9419643Y-16666500D01*
X9433928Y-16609357D01*
X9448214Y-16580786D01*
X9462500Y-16566500D01*
X9491071Y-16552214D01*
X9848214Y-16652214D02*
X9848214Y-16852214D01*
X9776786Y-16537929D02*
X9705357Y-16752214D01*
X9891071Y-16752214D01*
X9976786Y-16552214D02*
X10162500Y-16552214D01*
X10062500Y-16666500D01*
X10105357Y-16666500D01*
X10133928Y-16680786D01*
X10148214Y-16695071D01*
X10162500Y-16723643D01*
X10162500Y-16795072D01*
X10148214Y-16823643D01*
X10133928Y-16837929D01*
X10105357Y-16852214D01*
X10019643Y-16852214D01*
X9991071Y-16837929D01*
X9976786Y-16823643D01*
X10276786Y-16552214D02*
X10276786Y-16609357D01*
X10391071Y-16552214D02*
X10391071Y-16609357D01*
X10833928Y-16966500D02*
X10819643Y-16952214D01*
X10791071Y-16909357D01*
X10776786Y-16880786D01*
X10762500Y-16837929D01*
X10748214Y-16766500D01*
X10748214Y-16709357D01*
X10762500Y-16637929D01*
X10776786Y-16595071D01*
X10791071Y-16566500D01*
X10819643Y-16523643D01*
X10833928Y-16509357D01*
X11105357Y-16852214D02*
X10933928Y-16852214D01*
X11019643Y-16852214D02*
X11019643Y-16552214D01*
X10991071Y-16595071D01*
X10962500Y-16623643D01*
X10933928Y-16637929D01*
X11219643Y-16580786D02*
X11233928Y-16566500D01*
X11262500Y-16552214D01*
X11333928Y-16552214D01*
X11362500Y-16566500D01*
X11376786Y-16580786D01*
X11391071Y-16609357D01*
X11391071Y-16637929D01*
X11376786Y-16680786D01*
X11205357Y-16852214D01*
X11391071Y-16852214D01*
X11748214Y-16852214D02*
X11748214Y-16552214D01*
X11876786Y-16852214D02*
X11876786Y-16695071D01*
X11862500Y-16666500D01*
X11833928Y-16652214D01*
X11791071Y-16652214D01*
X11762500Y-16666500D01*
X11748214Y-16680786D01*
X12062500Y-16852214D02*
X12033928Y-16837929D01*
X12019643Y-16823643D01*
X12005357Y-16795072D01*
X12005357Y-16709357D01*
X12019643Y-16680786D01*
X12033928Y-16666500D01*
X12062500Y-16652214D01*
X12105357Y-16652214D01*
X12133928Y-16666500D01*
X12148214Y-16680786D01*
X12162500Y-16709357D01*
X12162500Y-16795072D01*
X12148214Y-16823643D01*
X12133928Y-16837929D01*
X12105357Y-16852214D01*
X12062500Y-16852214D01*
X12333928Y-16852214D02*
X12305357Y-16837929D01*
X12291071Y-16809357D01*
X12291071Y-16552214D01*
X12562500Y-16837929D02*
X12533928Y-16852214D01*
X12476786Y-16852214D01*
X12448214Y-16837929D01*
X12433928Y-16809357D01*
X12433928Y-16695071D01*
X12448214Y-16666500D01*
X12476786Y-16652214D01*
X12533928Y-16652214D01*
X12562500Y-16666500D01*
X12576786Y-16695071D01*
X12576786Y-16723643D01*
X12433928Y-16752214D01*
X12691071Y-16837929D02*
X12719643Y-16852214D01*
X12776786Y-16852214D01*
X12805357Y-16837929D01*
X12819643Y-16809357D01*
X12819643Y-16795072D01*
X12805357Y-16766500D01*
X12776786Y-16752214D01*
X12733928Y-16752214D01*
X12705357Y-16737929D01*
X12691071Y-16709357D01*
X12691071Y-16695071D01*
X12705357Y-16666500D01*
X12733928Y-16652214D01*
X12776786Y-16652214D01*
X12805357Y-16666500D01*
X12919643Y-16966500D02*
X12933928Y-16952214D01*
X12962500Y-16909357D01*
X12976786Y-16880786D01*
X12991071Y-16837929D01*
X13005357Y-16766500D01*
X13005357Y-16709357D01*
X12991071Y-16637929D01*
X12976786Y-16595071D01*
X12962500Y-16566500D01*
X12933928Y-16523643D01*
X12919643Y-16509357D01*
X5842700Y-16960100D02*
X6147500Y-17264900D01*
X6147500Y-16960100D02*
X5842700Y-17264900D01*
X6147500Y-17112500D02*
G75*
G03*
X6147500Y-17112500I-152400J0D01*
G01*
X6405357Y-16948214D02*
X6591071Y-16948214D01*
X6491071Y-17062500D01*
X6533928Y-17062500D01*
X6562500Y-17076786D01*
X6576786Y-17091072D01*
X6591071Y-17119643D01*
X6591071Y-17191072D01*
X6576786Y-17219643D01*
X6562500Y-17233929D01*
X6533928Y-17248214D01*
X6448214Y-17248214D01*
X6419643Y-17233929D01*
X6405357Y-17219643D01*
X6719643Y-17219643D02*
X6733928Y-17233929D01*
X6719643Y-17248214D01*
X6705357Y-17233929D01*
X6719643Y-17219643D01*
X6719643Y-17248214D01*
X6919643Y-16948214D02*
X6948214Y-16948214D01*
X6976786Y-16962500D01*
X6991071Y-16976786D01*
X7005357Y-17005357D01*
X7019643Y-17062500D01*
X7019643Y-17133929D01*
X7005357Y-17191072D01*
X6991071Y-17219643D01*
X6976786Y-17233929D01*
X6948214Y-17248214D01*
X6919643Y-17248214D01*
X6891071Y-17233929D01*
X6876786Y-17219643D01*
X6862500Y-17191072D01*
X6848214Y-17133929D01*
X6848214Y-17062500D01*
X6862500Y-17005357D01*
X6876786Y-16976786D01*
X6891071Y-16962500D01*
X6919643Y-16948214D01*
X7291071Y-16948214D02*
X7148214Y-16948214D01*
X7133928Y-17091072D01*
X7148214Y-17076786D01*
X7176786Y-17062500D01*
X7248214Y-17062500D01*
X7276786Y-17076786D01*
X7291071Y-17091072D01*
X7305357Y-17119643D01*
X7305357Y-17191072D01*
X7291071Y-17219643D01*
X7276786Y-17233929D01*
X7248214Y-17248214D01*
X7176786Y-17248214D01*
X7148214Y-17233929D01*
X7133928Y-17219643D01*
X7433928Y-17248214D02*
X7433928Y-17048214D01*
X7433928Y-17076786D02*
X7448214Y-17062500D01*
X7476786Y-17048214D01*
X7519643Y-17048214D01*
X7548214Y-17062500D01*
X7562500Y-17091072D01*
X7562500Y-17248214D01*
X7562500Y-17091072D02*
X7576786Y-17062500D01*
X7605357Y-17048214D01*
X7648214Y-17048214D01*
X7676786Y-17062500D01*
X7691071Y-17091072D01*
X7691071Y-17248214D01*
X7833928Y-17248214D02*
X7833928Y-17048214D01*
X7833928Y-17076786D02*
X7848214Y-17062500D01*
X7876786Y-17048214D01*
X7919643Y-17048214D01*
X7948214Y-17062500D01*
X7962500Y-17091072D01*
X7962500Y-17248214D01*
X7962500Y-17091072D02*
X7976786Y-17062500D01*
X8005357Y-17048214D01*
X8048214Y-17048214D01*
X8076786Y-17062500D01*
X8091071Y-17091072D01*
X8091071Y-17248214D01*
X8676786Y-16933929D02*
X8419643Y-17319643D01*
X9062500Y-16948214D02*
X9091071Y-16948214D01*
X9119643Y-16962500D01*
X9133928Y-16976786D01*
X9148214Y-17005357D01*
X9162500Y-17062500D01*
X9162500Y-17133929D01*
X9148214Y-17191072D01*
X9133928Y-17219643D01*
X9119643Y-17233929D01*
X9091071Y-17248214D01*
X9062500Y-17248214D01*
X9033928Y-17233929D01*
X9019643Y-17219643D01*
X9005357Y-17191072D01*
X8991071Y-17133929D01*
X8991071Y-17062500D01*
X9005357Y-17005357D01*
X9019643Y-16976786D01*
X9033928Y-16962500D01*
X9062500Y-16948214D01*
X9291071Y-17219643D02*
X9305357Y-17233929D01*
X9291071Y-17248214D01*
X9276786Y-17233929D01*
X9291071Y-17219643D01*
X9291071Y-17248214D01*
X9591071Y-17248214D02*
X9419643Y-17248214D01*
X9505357Y-17248214D02*
X9505357Y-16948214D01*
X9476786Y-16991072D01*
X9448214Y-17019643D01*
X9419643Y-17033929D01*
X9705357Y-16976786D02*
X9719643Y-16962500D01*
X9748214Y-16948214D01*
X9819643Y-16948214D01*
X9848214Y-16962500D01*
X9862500Y-16976786D01*
X9876786Y-17005357D01*
X9876786Y-17033929D01*
X9862500Y-17076786D01*
X9691071Y-17248214D01*
X9876786Y-17248214D01*
X10062500Y-16948214D02*
X10091071Y-16948214D01*
X10119643Y-16962500D01*
X10133928Y-16976786D01*
X10148214Y-17005357D01*
X10162500Y-17062500D01*
X10162500Y-17133929D01*
X10148214Y-17191072D01*
X10133928Y-17219643D01*
X10119643Y-17233929D01*
X10091071Y-17248214D01*
X10062500Y-17248214D01*
X10033928Y-17233929D01*
X10019643Y-17219643D01*
X10005357Y-17191072D01*
X9991071Y-17133929D01*
X9991071Y-17062500D01*
X10005357Y-17005357D01*
X10019643Y-16976786D01*
X10033928Y-16962500D01*
X10062500Y-16948214D01*
X10276786Y-16948214D02*
X10276786Y-17005357D01*
X10391071Y-16948214D02*
X10391071Y-17005357D01*
X10833928Y-17362500D02*
X10819643Y-17348214D01*
X10791071Y-17305357D01*
X10776786Y-17276786D01*
X10762500Y-17233929D01*
X10748214Y-17162500D01*
X10748214Y-17105357D01*
X10762500Y-17033929D01*
X10776786Y-16991072D01*
X10791071Y-16962500D01*
X10819643Y-16919643D01*
X10833928Y-16905357D01*
X11076786Y-16948214D02*
X11019643Y-16948214D01*
X10991071Y-16962500D01*
X10976786Y-16976786D01*
X10948214Y-17019643D01*
X10933928Y-17076786D01*
X10933928Y-17191072D01*
X10948214Y-17219643D01*
X10962500Y-17233929D01*
X10991071Y-17248214D01*
X11048214Y-17248214D01*
X11076786Y-17233929D01*
X11091071Y-17219643D01*
X11105357Y-17191072D01*
X11105357Y-17119643D01*
X11091071Y-17091072D01*
X11076786Y-17076786D01*
X11048214Y-17062500D01*
X10991071Y-17062500D01*
X10962500Y-17076786D01*
X10948214Y-17091072D01*
X10933928Y-17119643D01*
X11462500Y-17248214D02*
X11462500Y-16948214D01*
X11591071Y-17248214D02*
X11591071Y-17091072D01*
X11576786Y-17062500D01*
X11548214Y-17048214D01*
X11505357Y-17048214D01*
X11476786Y-17062500D01*
X11462500Y-17076786D01*
X11776786Y-17248214D02*
X11748214Y-17233929D01*
X11733928Y-17219643D01*
X11719643Y-17191072D01*
X11719643Y-17105357D01*
X11733928Y-17076786D01*
X11748214Y-17062500D01*
X11776786Y-17048214D01*
X11819643Y-17048214D01*
X11848214Y-17062500D01*
X11862500Y-17076786D01*
X11876786Y-17105357D01*
X11876786Y-17191072D01*
X11862500Y-17219643D01*
X11848214Y-17233929D01*
X11819643Y-17248214D01*
X11776786Y-17248214D01*
X12048214Y-17248214D02*
X12019643Y-17233929D01*
X12005357Y-17205357D01*
X12005357Y-16948214D01*
X12276786Y-17233929D02*
X12248214Y-17248214D01*
X12191071Y-17248214D01*
X12162500Y-17233929D01*
X12148214Y-17205357D01*
X12148214Y-17091072D01*
X12162500Y-17062500D01*
X12191071Y-17048214D01*
X12248214Y-17048214D01*
X12276786Y-17062500D01*
X12291071Y-17091072D01*
X12291071Y-17119643D01*
X12148214Y-17148214D01*
X12405357Y-17233929D02*
X12433928Y-17248214D01*
X12491071Y-17248214D01*
X12519643Y-17233929D01*
X12533928Y-17205357D01*
X12533928Y-17191072D01*
X12519643Y-17162500D01*
X12491071Y-17148214D01*
X12448214Y-17148214D01*
X12419643Y-17133929D01*
X12405357Y-17105357D01*
X12405357Y-17091072D01*
X12419643Y-17062500D01*
X12448214Y-17048214D01*
X12491071Y-17048214D01*
X12519643Y-17062500D01*
X12633928Y-17362500D02*
X12648214Y-17348214D01*
X12676786Y-17305357D01*
X12691071Y-17276786D01*
X12705357Y-17233929D01*
X12719643Y-17162500D01*
X12719643Y-17105357D01*
X12705357Y-17033929D01*
X12691071Y-16991072D01*
X12676786Y-16962500D01*
X12648214Y-16919643D01*
X12633928Y-16905357D01*
X5827500Y-17387300D02*
X6147500Y-17707300D01*
X6147500Y-17387300D02*
X5827500Y-17707300D01*
X5987500Y-17387300D02*
X5987500Y-17707300D01*
X5827500Y-17547300D02*
X6147500Y-17547300D01*
X6405357Y-17383014D02*
X6591071Y-17383014D01*
X6491071Y-17497300D01*
X6533928Y-17497300D01*
X6562500Y-17511586D01*
X6576786Y-17525872D01*
X6591071Y-17554443D01*
X6591071Y-17625872D01*
X6576786Y-17654443D01*
X6562500Y-17668729D01*
X6533928Y-17683014D01*
X6448214Y-17683014D01*
X6419643Y-17668729D01*
X6405357Y-17654443D01*
X6719643Y-17654443D02*
X6733928Y-17668729D01*
X6719643Y-17683014D01*
X6705357Y-17668729D01*
X6719643Y-17654443D01*
X6719643Y-17683014D01*
X6848214Y-17411586D02*
X6862500Y-17397300D01*
X6891071Y-17383014D01*
X6962500Y-17383014D01*
X6991071Y-17397300D01*
X7005357Y-17411586D01*
X7019643Y-17440157D01*
X7019643Y-17468729D01*
X7005357Y-17511586D01*
X6833928Y-17683014D01*
X7019643Y-17683014D01*
X7205357Y-17383014D02*
X7233928Y-17383014D01*
X7262500Y-17397300D01*
X7276786Y-17411586D01*
X7291071Y-17440157D01*
X7305357Y-17497300D01*
X7305357Y-17568729D01*
X7291071Y-17625872D01*
X7276786Y-17654443D01*
X7262500Y-17668729D01*
X7233928Y-17683014D01*
X7205357Y-17683014D01*
X7176786Y-17668729D01*
X7162500Y-17654443D01*
X7148214Y-17625872D01*
X7133928Y-17568729D01*
X7133928Y-17497300D01*
X7148214Y-17440157D01*
X7162500Y-17411586D01*
X7176786Y-17397300D01*
X7205357Y-17383014D01*
X7433928Y-17683014D02*
X7433928Y-17483014D01*
X7433928Y-17511586D02*
X7448214Y-17497300D01*
X7476786Y-17483014D01*
X7519643Y-17483014D01*
X7548214Y-17497300D01*
X7562500Y-17525872D01*
X7562500Y-17683014D01*
X7562500Y-17525872D02*
X7576786Y-17497300D01*
X7605357Y-17483014D01*
X7648214Y-17483014D01*
X7676786Y-17497300D01*
X7691071Y-17525872D01*
X7691071Y-17683014D01*
X7833928Y-17683014D02*
X7833928Y-17483014D01*
X7833928Y-17511586D02*
X7848214Y-17497300D01*
X7876786Y-17483014D01*
X7919643Y-17483014D01*
X7948214Y-17497300D01*
X7962500Y-17525872D01*
X7962500Y-17683014D01*
X7962500Y-17525872D02*
X7976786Y-17497300D01*
X8005357Y-17483014D01*
X8048214Y-17483014D01*
X8076786Y-17497300D01*
X8091071Y-17525872D01*
X8091071Y-17683014D01*
X8676786Y-17368729D02*
X8419643Y-17754443D01*
X9062500Y-17383014D02*
X9091071Y-17383014D01*
X9119643Y-17397300D01*
X9133928Y-17411586D01*
X9148214Y-17440157D01*
X9162500Y-17497300D01*
X9162500Y-17568729D01*
X9148214Y-17625872D01*
X9133928Y-17654443D01*
X9119643Y-17668729D01*
X9091071Y-17683014D01*
X9062500Y-17683014D01*
X9033928Y-17668729D01*
X9019643Y-17654443D01*
X9005357Y-17625872D01*
X8991071Y-17568729D01*
X8991071Y-17497300D01*
X9005357Y-17440157D01*
X9019643Y-17411586D01*
X9033928Y-17397300D01*
X9062500Y-17383014D01*
X9291071Y-17654443D02*
X9305357Y-17668729D01*
X9291071Y-17683014D01*
X9276786Y-17668729D01*
X9291071Y-17654443D01*
X9291071Y-17683014D01*
X9591071Y-17683014D02*
X9419643Y-17683014D01*
X9505357Y-17683014D02*
X9505357Y-17383014D01*
X9476786Y-17425872D01*
X9448214Y-17454443D01*
X9419643Y-17468729D01*
X9705357Y-17411586D02*
X9719643Y-17397300D01*
X9748214Y-17383014D01*
X9819643Y-17383014D01*
X9848214Y-17397300D01*
X9862500Y-17411586D01*
X9876786Y-17440157D01*
X9876786Y-17468729D01*
X9862500Y-17511586D01*
X9691071Y-17683014D01*
X9876786Y-17683014D01*
X10133928Y-17383014D02*
X10076786Y-17383014D01*
X10048214Y-17397300D01*
X10033928Y-17411586D01*
X10005357Y-17454443D01*
X9991071Y-17511586D01*
X9991071Y-17625872D01*
X10005357Y-17654443D01*
X10019643Y-17668729D01*
X10048214Y-17683014D01*
X10105357Y-17683014D01*
X10133928Y-17668729D01*
X10148214Y-17654443D01*
X10162500Y-17625872D01*
X10162500Y-17554443D01*
X10148214Y-17525872D01*
X10133928Y-17511586D01*
X10105357Y-17497300D01*
X10048214Y-17497300D01*
X10019643Y-17511586D01*
X10005357Y-17525872D01*
X9991071Y-17554443D01*
X10276786Y-17383014D02*
X10276786Y-17440157D01*
X10391071Y-17383014D02*
X10391071Y-17440157D01*
X10833928Y-17797300D02*
X10819643Y-17783014D01*
X10791071Y-17740157D01*
X10776786Y-17711586D01*
X10762500Y-17668729D01*
X10748214Y-17597300D01*
X10748214Y-17540157D01*
X10762500Y-17468729D01*
X10776786Y-17425872D01*
X10791071Y-17397300D01*
X10819643Y-17354443D01*
X10833928Y-17340157D01*
X10933928Y-17411586D02*
X10948214Y-17397300D01*
X10976786Y-17383014D01*
X11048214Y-17383014D01*
X11076786Y-17397300D01*
X11091071Y-17411586D01*
X11105357Y-17440157D01*
X11105357Y-17468729D01*
X11091071Y-17511586D01*
X10919643Y-17683014D01*
X11105357Y-17683014D01*
X11462500Y-17683014D02*
X11462500Y-17383014D01*
X11591071Y-17683014D02*
X11591071Y-17525872D01*
X11576786Y-17497300D01*
X11548214Y-17483014D01*
X11505357Y-17483014D01*
X11476786Y-17497300D01*
X11462500Y-17511586D01*
X11776786Y-17683014D02*
X11748214Y-17668729D01*
X11733928Y-17654443D01*
X11719643Y-17625872D01*
X11719643Y-17540157D01*
X11733928Y-17511586D01*
X11748214Y-17497300D01*
X11776786Y-17483014D01*
X11819643Y-17483014D01*
X11848214Y-17497300D01*
X11862500Y-17511586D01*
X11876786Y-17540157D01*
X11876786Y-17625872D01*
X11862500Y-17654443D01*
X11848214Y-17668729D01*
X11819643Y-17683014D01*
X11776786Y-17683014D01*
X12048214Y-17683014D02*
X12019643Y-17668729D01*
X12005357Y-17640157D01*
X12005357Y-17383014D01*
X12276786Y-17668729D02*
X12248214Y-17683014D01*
X12191071Y-17683014D01*
X12162500Y-17668729D01*
X12148214Y-17640157D01*
X12148214Y-17525872D01*
X12162500Y-17497300D01*
X12191071Y-17483014D01*
X12248214Y-17483014D01*
X12276786Y-17497300D01*
X12291071Y-17525872D01*
X12291071Y-17554443D01*
X12148214Y-17583014D01*
X12405357Y-17668729D02*
X12433928Y-17683014D01*
X12491071Y-17683014D01*
X12519643Y-17668729D01*
X12533928Y-17640157D01*
X12533928Y-17625872D01*
X12519643Y-17597300D01*
X12491071Y-17583014D01*
X12448214Y-17583014D01*
X12419643Y-17568729D01*
X12405357Y-17540157D01*
X12405357Y-17525872D01*
X12419643Y-17497300D01*
X12448214Y-17483014D01*
X12491071Y-17483014D01*
X12519643Y-17497300D01*
X12633928Y-17797300D02*
X12648214Y-17783014D01*
X12676786Y-17740157D01*
X12691071Y-17711586D01*
X12705357Y-17668729D01*
X12719643Y-17597300D01*
X12719643Y-17540157D01*
X12705357Y-17468729D01*
X12691071Y-17425872D01*
X12676786Y-17397300D01*
X12648214Y-17354443D01*
X12633928Y-17340157D01*
M02*
