%FSLAX45Y45*%
G04 Gerber Fmt 4.5, Leading zero omitted, Abs format (unit mm)*
G04 Created by KiCad (PCBNEW (5.1.9)-1) date 2021-06-02 00:30:13*
%MOMM*%
%LPD*%
G01*
G04 APERTURE LIST*
%TA.AperFunction,Profile*%
%ADD10C,0.050000*%
%TD*%
%ADD11C,0.200000*%
%ADD12C,0.300000*%
G04 APERTURE END LIST*
D10*
X23850000Y-14170000D02*
X6150000Y-14170000D01*
X23850000Y-3170000D02*
X6150000Y-3170000D01*
X23850000Y-14170000D02*
X23850000Y-3170000D01*
X6150000Y-3170000D02*
X6150000Y-14170000D01*
D11*
X6412406Y-4665434D02*
X6752406Y-5005434D01*
X6752406Y-4665434D02*
X6412406Y-5005434D01*
X6412406Y-5199434D02*
X6752406Y-5539434D01*
X6752406Y-5199434D02*
X6412406Y-5539434D01*
D12*
X6433928Y-14638214D02*
X6433928Y-14338214D01*
X6505357Y-14338214D01*
X6548214Y-14352500D01*
X6576786Y-14381071D01*
X6591071Y-14409643D01*
X6605357Y-14466786D01*
X6605357Y-14509643D01*
X6591071Y-14566786D01*
X6576786Y-14595357D01*
X6548214Y-14623929D01*
X6505357Y-14638214D01*
X6433928Y-14638214D01*
X6733928Y-14638214D02*
X6733928Y-14438214D01*
X6733928Y-14495357D02*
X6748214Y-14466786D01*
X6762500Y-14452500D01*
X6791071Y-14438214D01*
X6819643Y-14438214D01*
X6919643Y-14638214D02*
X6919643Y-14438214D01*
X6919643Y-14338214D02*
X6905357Y-14352500D01*
X6919643Y-14366786D01*
X6933928Y-14352500D01*
X6919643Y-14338214D01*
X6919643Y-14366786D01*
X7105357Y-14638214D02*
X7076786Y-14623929D01*
X7062500Y-14595357D01*
X7062500Y-14338214D01*
X7262500Y-14638214D02*
X7233928Y-14623929D01*
X7219643Y-14595357D01*
X7219643Y-14338214D01*
X7605357Y-14638214D02*
X7605357Y-14338214D01*
X7705357Y-14552500D01*
X7805357Y-14338214D01*
X7805357Y-14638214D01*
X8076786Y-14638214D02*
X8076786Y-14481071D01*
X8062500Y-14452500D01*
X8033928Y-14438214D01*
X7976786Y-14438214D01*
X7948214Y-14452500D01*
X8076786Y-14623929D02*
X8048214Y-14638214D01*
X7976786Y-14638214D01*
X7948214Y-14623929D01*
X7933928Y-14595357D01*
X7933928Y-14566786D01*
X7948214Y-14538214D01*
X7976786Y-14523929D01*
X8048214Y-14523929D01*
X8076786Y-14509643D01*
X8219643Y-14438214D02*
X8219643Y-14738214D01*
X8219643Y-14452500D02*
X8248214Y-14438214D01*
X8305357Y-14438214D01*
X8333928Y-14452500D01*
X8348214Y-14466786D01*
X8362500Y-14495357D01*
X8362500Y-14581071D01*
X8348214Y-14609643D01*
X8333928Y-14623929D01*
X8305357Y-14638214D01*
X8248214Y-14638214D01*
X8219643Y-14623929D01*
X8491071Y-14609643D02*
X8505357Y-14623929D01*
X8491071Y-14638214D01*
X8476786Y-14623929D01*
X8491071Y-14609643D01*
X8491071Y-14638214D01*
X8491071Y-14452500D02*
X8505357Y-14466786D01*
X8491071Y-14481071D01*
X8476786Y-14466786D01*
X8491071Y-14452500D01*
X8491071Y-14481071D01*
X5807500Y-14962500D02*
X6147500Y-15302500D01*
X6147500Y-14962500D02*
X5807500Y-15302500D01*
X6405357Y-14968214D02*
X6591071Y-14968214D01*
X6491071Y-15082500D01*
X6533928Y-15082500D01*
X6562500Y-15096786D01*
X6576786Y-15111071D01*
X6591071Y-15139643D01*
X6591071Y-15211071D01*
X6576786Y-15239643D01*
X6562500Y-15253929D01*
X6533928Y-15268214D01*
X6448214Y-15268214D01*
X6419643Y-15253929D01*
X6405357Y-15239643D01*
X6719643Y-15239643D02*
X6733928Y-15253929D01*
X6719643Y-15268214D01*
X6705357Y-15253929D01*
X6719643Y-15239643D01*
X6719643Y-15268214D01*
X6991071Y-15068214D02*
X6991071Y-15268214D01*
X6919643Y-14953929D02*
X6848214Y-15168214D01*
X7033928Y-15168214D01*
X7205357Y-14968214D02*
X7233928Y-14968214D01*
X7262500Y-14982500D01*
X7276786Y-14996786D01*
X7291071Y-15025357D01*
X7305357Y-15082500D01*
X7305357Y-15153929D01*
X7291071Y-15211071D01*
X7276786Y-15239643D01*
X7262500Y-15253929D01*
X7233928Y-15268214D01*
X7205357Y-15268214D01*
X7176786Y-15253929D01*
X7162500Y-15239643D01*
X7148214Y-15211071D01*
X7133928Y-15153929D01*
X7133928Y-15082500D01*
X7148214Y-15025357D01*
X7162500Y-14996786D01*
X7176786Y-14982500D01*
X7205357Y-14968214D01*
X7433928Y-15268214D02*
X7433928Y-15068214D01*
X7433928Y-15096786D02*
X7448214Y-15082500D01*
X7476786Y-15068214D01*
X7519643Y-15068214D01*
X7548214Y-15082500D01*
X7562500Y-15111071D01*
X7562500Y-15268214D01*
X7562500Y-15111071D02*
X7576786Y-15082500D01*
X7605357Y-15068214D01*
X7648214Y-15068214D01*
X7676786Y-15082500D01*
X7691071Y-15111071D01*
X7691071Y-15268214D01*
X7833928Y-15268214D02*
X7833928Y-15068214D01*
X7833928Y-15096786D02*
X7848214Y-15082500D01*
X7876786Y-15068214D01*
X7919643Y-15068214D01*
X7948214Y-15082500D01*
X7962500Y-15111071D01*
X7962500Y-15268214D01*
X7962500Y-15111071D02*
X7976786Y-15082500D01*
X8005357Y-15068214D01*
X8048214Y-15068214D01*
X8076786Y-15082500D01*
X8091071Y-15111071D01*
X8091071Y-15268214D01*
X8676786Y-14953929D02*
X8419643Y-15339643D01*
X9062500Y-14968214D02*
X9091071Y-14968214D01*
X9119643Y-14982500D01*
X9133928Y-14996786D01*
X9148214Y-15025357D01*
X9162500Y-15082500D01*
X9162500Y-15153929D01*
X9148214Y-15211071D01*
X9133928Y-15239643D01*
X9119643Y-15253929D01*
X9091071Y-15268214D01*
X9062500Y-15268214D01*
X9033928Y-15253929D01*
X9019643Y-15239643D01*
X9005357Y-15211071D01*
X8991071Y-15153929D01*
X8991071Y-15082500D01*
X9005357Y-15025357D01*
X9019643Y-14996786D01*
X9033928Y-14982500D01*
X9062500Y-14968214D01*
X9291071Y-15239643D02*
X9305357Y-15253929D01*
X9291071Y-15268214D01*
X9276786Y-15253929D01*
X9291071Y-15239643D01*
X9291071Y-15268214D01*
X9591071Y-15268214D02*
X9419643Y-15268214D01*
X9505357Y-15268214D02*
X9505357Y-14968214D01*
X9476786Y-15011071D01*
X9448214Y-15039643D01*
X9419643Y-15053929D01*
X9691071Y-14968214D02*
X9876786Y-14968214D01*
X9776786Y-15082500D01*
X9819643Y-15082500D01*
X9848214Y-15096786D01*
X9862500Y-15111071D01*
X9876786Y-15139643D01*
X9876786Y-15211071D01*
X9862500Y-15239643D01*
X9848214Y-15253929D01*
X9819643Y-15268214D01*
X9733928Y-15268214D01*
X9705357Y-15253929D01*
X9691071Y-15239643D01*
X10133928Y-15068214D02*
X10133928Y-15268214D01*
X10062500Y-14953929D02*
X9991071Y-15168214D01*
X10176786Y-15168214D01*
X10276786Y-14968214D02*
X10276786Y-15025357D01*
X10391071Y-14968214D02*
X10391071Y-15025357D01*
X10833928Y-15382500D02*
X10819643Y-15368214D01*
X10791071Y-15325357D01*
X10776786Y-15296786D01*
X10762500Y-15253929D01*
X10748214Y-15182500D01*
X10748214Y-15125357D01*
X10762500Y-15053929D01*
X10776786Y-15011071D01*
X10791071Y-14982500D01*
X10819643Y-14939643D01*
X10833928Y-14925357D01*
X10933928Y-14996786D02*
X10948214Y-14982500D01*
X10976786Y-14968214D01*
X11048214Y-14968214D01*
X11076786Y-14982500D01*
X11091071Y-14996786D01*
X11105357Y-15025357D01*
X11105357Y-15053929D01*
X11091071Y-15096786D01*
X10919643Y-15268214D01*
X11105357Y-15268214D01*
X11462500Y-15268214D02*
X11462500Y-14968214D01*
X11591071Y-15268214D02*
X11591071Y-15111071D01*
X11576786Y-15082500D01*
X11548214Y-15068214D01*
X11505357Y-15068214D01*
X11476786Y-15082500D01*
X11462500Y-15096786D01*
X11776786Y-15268214D02*
X11748214Y-15253929D01*
X11733928Y-15239643D01*
X11719643Y-15211071D01*
X11719643Y-15125357D01*
X11733928Y-15096786D01*
X11748214Y-15082500D01*
X11776786Y-15068214D01*
X11819643Y-15068214D01*
X11848214Y-15082500D01*
X11862500Y-15096786D01*
X11876786Y-15125357D01*
X11876786Y-15211071D01*
X11862500Y-15239643D01*
X11848214Y-15253929D01*
X11819643Y-15268214D01*
X11776786Y-15268214D01*
X12048214Y-15268214D02*
X12019643Y-15253929D01*
X12005357Y-15225357D01*
X12005357Y-14968214D01*
X12276786Y-15253929D02*
X12248214Y-15268214D01*
X12191071Y-15268214D01*
X12162500Y-15253929D01*
X12148214Y-15225357D01*
X12148214Y-15111071D01*
X12162500Y-15082500D01*
X12191071Y-15068214D01*
X12248214Y-15068214D01*
X12276786Y-15082500D01*
X12291071Y-15111071D01*
X12291071Y-15139643D01*
X12148214Y-15168214D01*
X12405357Y-15253929D02*
X12433928Y-15268214D01*
X12491071Y-15268214D01*
X12519643Y-15253929D01*
X12533928Y-15225357D01*
X12533928Y-15211071D01*
X12519643Y-15182500D01*
X12491071Y-15168214D01*
X12448214Y-15168214D01*
X12419643Y-15153929D01*
X12405357Y-15125357D01*
X12405357Y-15111071D01*
X12419643Y-15082500D01*
X12448214Y-15068214D01*
X12491071Y-15068214D01*
X12519643Y-15082500D01*
X12633928Y-15382500D02*
X12648214Y-15368214D01*
X12676786Y-15325357D01*
X12691071Y-15296786D01*
X12705357Y-15253929D01*
X12719643Y-15182500D01*
X12719643Y-15125357D01*
X12705357Y-15053929D01*
X12691071Y-15011071D01*
X12676786Y-14982500D01*
X12648214Y-14939643D01*
X12633928Y-14925357D01*
X13176786Y-15382500D02*
X13162500Y-15368214D01*
X13133928Y-15325357D01*
X13119643Y-15296786D01*
X13105357Y-15253929D01*
X13091071Y-15182500D01*
X13091071Y-15125357D01*
X13105357Y-15053929D01*
X13119643Y-15011071D01*
X13133928Y-14982500D01*
X13162500Y-14939643D01*
X13176786Y-14925357D01*
X13291071Y-15068214D02*
X13291071Y-15268214D01*
X13291071Y-15096786D02*
X13305357Y-15082500D01*
X13333928Y-15068214D01*
X13376786Y-15068214D01*
X13405357Y-15082500D01*
X13419643Y-15111071D01*
X13419643Y-15268214D01*
X13605357Y-15268214D02*
X13576786Y-15253929D01*
X13562500Y-15239643D01*
X13548214Y-15211071D01*
X13548214Y-15125357D01*
X13562500Y-15096786D01*
X13576786Y-15082500D01*
X13605357Y-15068214D01*
X13648214Y-15068214D01*
X13676786Y-15082500D01*
X13691071Y-15096786D01*
X13705357Y-15125357D01*
X13705357Y-15211071D01*
X13691071Y-15239643D01*
X13676786Y-15253929D01*
X13648214Y-15268214D01*
X13605357Y-15268214D01*
X13791071Y-15068214D02*
X13905357Y-15068214D01*
X13833928Y-14968214D02*
X13833928Y-15225357D01*
X13848214Y-15253929D01*
X13876786Y-15268214D01*
X13905357Y-15268214D01*
X14233928Y-15068214D02*
X14233928Y-15368214D01*
X14233928Y-15082500D02*
X14262500Y-15068214D01*
X14319643Y-15068214D01*
X14348214Y-15082500D01*
X14362500Y-15096786D01*
X14376786Y-15125357D01*
X14376786Y-15211071D01*
X14362500Y-15239643D01*
X14348214Y-15253929D01*
X14319643Y-15268214D01*
X14262500Y-15268214D01*
X14233928Y-15253929D01*
X14548214Y-15268214D02*
X14519643Y-15253929D01*
X14505357Y-15225357D01*
X14505357Y-14968214D01*
X14791071Y-15268214D02*
X14791071Y-15111071D01*
X14776786Y-15082500D01*
X14748214Y-15068214D01*
X14691071Y-15068214D01*
X14662500Y-15082500D01*
X14791071Y-15253929D02*
X14762500Y-15268214D01*
X14691071Y-15268214D01*
X14662500Y-15253929D01*
X14648214Y-15225357D01*
X14648214Y-15196786D01*
X14662500Y-15168214D01*
X14691071Y-15153929D01*
X14762500Y-15153929D01*
X14791071Y-15139643D01*
X14891071Y-15068214D02*
X15005357Y-15068214D01*
X14933928Y-14968214D02*
X14933928Y-15225357D01*
X14948214Y-15253929D01*
X14976786Y-15268214D01*
X15005357Y-15268214D01*
X15219643Y-15253929D02*
X15191071Y-15268214D01*
X15133928Y-15268214D01*
X15105357Y-15253929D01*
X15091071Y-15225357D01*
X15091071Y-15111071D01*
X15105357Y-15082500D01*
X15133928Y-15068214D01*
X15191071Y-15068214D01*
X15219643Y-15082500D01*
X15233928Y-15111071D01*
X15233928Y-15139643D01*
X15091071Y-15168214D01*
X15491071Y-15268214D02*
X15491071Y-14968214D01*
X15491071Y-15253929D02*
X15462500Y-15268214D01*
X15405357Y-15268214D01*
X15376786Y-15253929D01*
X15362500Y-15239643D01*
X15348214Y-15211071D01*
X15348214Y-15125357D01*
X15362500Y-15096786D01*
X15376786Y-15082500D01*
X15405357Y-15068214D01*
X15462500Y-15068214D01*
X15491071Y-15082500D01*
X15605357Y-15382500D02*
X15619643Y-15368214D01*
X15648214Y-15325357D01*
X15662500Y-15296786D01*
X15676786Y-15253929D01*
X15691071Y-15182500D01*
X15691071Y-15125357D01*
X15676786Y-15053929D01*
X15662500Y-15011071D01*
X15648214Y-14982500D01*
X15619643Y-14939643D01*
X15605357Y-14925357D01*
M02*
