M48
; DRILL file {KiCad (5.1.9)-1} date 06/02/21 00:29:48
; FORMAT={-:-/ absolute / metric / decimal}
; #@! TF.CreationDate,2021-06-02T00:29:48+02:00
; #@! TF.GenerationSoftware,Kicad,Pcbnew,(5.1.9)-1
; #@! TF.FileFunction,Plated,1,4,PTH
FMAT,2
METRIC
T1C0.300
T2C0.400
T3C0.600
T4C1.000
T5C1.100
T6C3.048
T7C3.200
%
G90
G05
T1
X69.92Y-127.273
X70.672Y-128.939
X71.136Y-128.141
X71.19Y-121.253
X71.19Y-123.971
X71.734Y-65.591
X71.825Y-120.186
X72.155Y-66.465
X72.455Y-128.555
X72.46Y-120.846
X72.673Y-109.053
X73.222Y-127.781
X73.489Y-109.071
X73.679Y-88.792
X74.238Y-127.298
X74.618Y-88.574
X74.995Y-128.258
X76.265Y-127.955
X76.27Y-133.394
X76.499Y-121.481
X77.375Y-69.795
X78.061Y-128.154
X78.157Y-110.379
X78.807Y-128.936
X79.397Y-91.042
X79.674Y-119.221
X80.542Y-125.736
X82.696Y-119.221
X83.204Y-129.843
X83.237Y-121.456
X86.996Y-88.812
X87.029Y-84.044
X87.187Y-91.301
X88.475Y-84.004
X88.917Y-85.939
X90.392Y-120.338
X91.51Y-118.662
X92.435Y-84.74
X92.536Y-85.685
X93.042Y-107.306
X93.05Y-101.842
X93.357Y-117.694
X93.567Y-116.3
X93.898Y-105.637
X94.5Y-110.6
X94.812Y-82.467
X95.193Y-81.146
X95.752Y-82.645
X95.902Y-115.789
X96.392Y-80.776
X96.537Y-82.368
X96.595Y-107.44
X96.595Y-113.78
X96.626Y-119.213
X96.626Y-128.477
X97.24Y-119.848
X97.923Y-88.799
X98.165Y-81.095
X98.368Y-88.03
X99.06Y-114.54
X99.153Y-108.091
X99.153Y-109.028
X99.153Y-109.993
X99.181Y-80.587
X99.22Y-111.81
X99.4Y-112.82
X99.562Y-79.8
X99.613Y-100.725
X99.788Y-97.313
X99.79Y-122.348
X100.099Y-74.412
X100.273Y-95.992
X100.278Y-89.983
X100.278Y-103.524
X100.326Y-78.647
X100.502Y-71.913
X100.629Y-88.042
X100.832Y-115.436
X100.844Y-70.719
X101.106Y-117.917
X101.619Y-118.662
X101.71Y-75.319
X101.772Y-73.399
X101.797Y-111.804
X101.919Y-114.476
X102.14Y-117.405
X102.178Y-72.688
X102.216Y-81.781
X102.404Y-123.452
X102.508Y-74.999
X102.523Y-110.427
X104.108Y-61.334
X106.326Y-69.094
X107.029Y-68.319
X107.08Y-67.354
X109.112Y-63.417
X109.19Y-62.411
X109.197Y-61.344
X119.613Y-74.692
X119.849Y-113.953
X121.271Y-76.856
X121.365Y-116.447
X121.84Y-114.669
X123.833Y-74.147
X123.857Y-116.356
X123.865Y-113.959
X123.87Y-76.47
X123.971Y-72.942
X127.9Y-115.995
X127.959Y-76.244
X136.011Y-99.587
X136.062Y-119.272
X136.214Y-129.33
X136.233Y-59.702
X136.239Y-109.416
X136.316Y-50.006
X136.316Y-89.706
X136.341Y-79.978
X136.341Y-139.312
X136.366Y-69.894
X147.24Y-48.132
X147.24Y-58.131
X147.24Y-68.131
X147.24Y-78.131
X147.24Y-88.131
X147.24Y-98.131
X147.24Y-108.131
X147.24Y-118.131
X147.24Y-128.131
X147.24Y-138.131
X157.258Y-48.132
X157.258Y-58.131
X157.258Y-68.131
X157.258Y-78.131
X157.258Y-88.131
X157.258Y-98.131
X157.258Y-108.131
X157.258Y-118.131
X157.258Y-128.131
X157.258Y-138.131
X167.245Y-48.139
X167.245Y-58.139
X167.245Y-68.139
X167.245Y-78.139
X167.245Y-88.139
X167.245Y-98.139
X167.245Y-108.139
X167.245Y-118.139
X167.245Y-128.139
X167.245Y-138.139
X177.247Y-48.124
X177.247Y-58.124
X177.247Y-68.124
X177.247Y-78.124
X177.247Y-88.124
X177.247Y-98.124
X177.247Y-108.124
X177.247Y-118.124
X177.247Y-128.124
X177.247Y-138.124
X187.25Y-48.132
X187.25Y-58.131
X187.25Y-68.131
X187.25Y-78.131
X187.25Y-88.131
X187.25Y-98.131
X187.25Y-108.131
X187.25Y-118.131
X187.25Y-128.131
X187.25Y-138.131
X197.255Y-48.124
X197.255Y-58.124
X197.255Y-68.124
X197.255Y-78.124
X197.255Y-88.124
X197.255Y-98.124
X197.255Y-108.124
X197.255Y-118.124
X197.255Y-128.124
X197.255Y-138.124
X207.247Y-48.132
X207.247Y-58.131
X207.247Y-68.131
X207.247Y-78.131
X207.247Y-88.131
X207.247Y-98.131
X207.247Y-108.131
X207.247Y-118.131
X207.247Y-128.131
X207.247Y-138.131
X217.227Y-48.132
X217.227Y-58.131
X217.227Y-68.131
X217.227Y-78.131
X217.227Y-88.131
X217.227Y-98.131
X217.227Y-108.131
X217.227Y-118.131
X217.227Y-128.131
X217.227Y-138.131
X227.247Y-48.132
X227.247Y-58.131
X227.247Y-68.131
X227.247Y-78.131
X227.247Y-88.131
X227.247Y-98.124
X227.247Y-108.131
X227.247Y-118.131
X227.247Y-128.131
X227.247Y-138.131
T2
X68.518Y-120.93
X68.947Y-136.3
X69.387Y-128.822
X69.915Y-124.169
X69.923Y-121.278
X71.662Y-62.183
X71.665Y-60.887
X73.07Y-62.193
X73.085Y-60.869
X73.725Y-129.084
X73.903Y-103.219
X73.905Y-101.923
X74.1Y-134.1
X74.154Y-82.924
X74.157Y-81.629
X74.289Y-123.92
X75.31Y-103.229
X75.325Y-101.906
X75.561Y-82.934
X75.577Y-81.611
X75.577Y-129.211
X78.81Y-124.098
X79.619Y-130.591
X84.2Y-133.135
X85.592Y-56.686
X85.592Y-57.882
X85.752Y-50.674
X86.656Y-57.306
X86.702Y-50.692
X87.57Y-56.686
X87.57Y-57.882
X87.649Y-50.641
X89.724Y-59.96
X90.591Y-133.135
X94.05Y-122.025
X94.136Y-87.288
X94.159Y-84.395
X94.451Y-93.905
X94.451Y-97.265
X95.968Y-97.252
X95.973Y-94.832
X95.996Y-86.561
X96.415Y-85.264
X96.422Y-76.346
X96.651Y-91.758
X97.542Y-105.119
X98.719Y-105.091
X99.242Y-83.6
X99.501Y-126.627
X99.704Y-76.351
X99.93Y-124.946
X100.359Y-84.951
X100.53Y-64.93
X101.462Y-128.159
X101.5Y-64.95
X101.985Y-45.005
X102.46Y-64.975
X102.488Y-120.724
X102.498Y-122.335
X102.549Y-124.959
X102.63Y-69.39
X102.67Y-80.89
X102.737Y-84.918
X102.788Y-82.378
X102.889Y-126.762
X102.953Y-99.726
X102.97Y-87.93
X103.169Y-97.108
X103.222Y-93.823
X103.265Y-130.788
X103.291Y-107.288
X103.369Y-46.925
X103.369Y-48.903
X103.447Y-90.768
X103.702Y-106.089
X103.748Y-126.013
X103.946Y-47.989
X103.971Y-86.013
X104.441Y-62.812
X104.441Y-66.15
X104.461Y-131.738
X104.527Y-87.948
X104.566Y-46.925
X104.566Y-48.903
X104.599Y-94.537
X104.651Y-91.647
X104.748Y-128.159
X104.888Y-117.959
X104.889Y-116.959
X104.907Y-115.959
X104.921Y-109.289
X104.936Y-121.969
X104.942Y-120.47
X104.962Y-110.194
X105.097Y-69.892
X105.103Y-75.892
X105.185Y-77.892
X105.188Y-76.892
X105.201Y-81.883
X105.202Y-71.09
X105.231Y-80.392
X105.292Y-96.252
X105.404Y-111.52
X105.404Y-114.778
X105.518Y-101.68
X105.668Y-130.699
X105.719Y-134.893
X105.719Y-138.233
X105.858Y-90.627
X106.559Y-110.117
X106.582Y-107.288
X106.712Y-98.009
X107.019Y-88.545
X107.067Y-135.759
X107.08Y-128.647
X107.103Y-113.762
X107.451Y-50.633
X107.461Y-69.894
X107.5Y-102.1
X107.517Y-118.565
X107.537Y-74.225
X107.563Y-126.178
X107.659Y-107.252
X107.7Y-100.4
X107.751Y-86.127
X107.769Y-137.364
X107.913Y-79.147
X108.045Y-67.209
X108.171Y-104.858
X108.376Y-71.075
X108.393Y-64.801
X108.437Y-121.908
X108.447Y-125.195
X108.508Y-120.082
X108.815Y-80.572
X108.881Y-51.339
X109.117Y-120.765
X109.671Y-126.221
X109.679Y-123.856
X109.693Y-67.192
X109.696Y-70.465
X109.836Y-110.107
X109.861Y-86.064
X109.869Y-83.646
X110.39Y-80.593
X110.601Y-119.932
X110.671Y-107.231
X110.672Y-109.518
X110.871Y-67.179
X110.887Y-69.493
X111.038Y-126.198
X111.172Y-88.657
X111.292Y-128.758
X111.373Y-86.069
X111.827Y-114.07
X111.827Y-116.691
X111.827Y-119.333
X111.985Y-81.87
X111.985Y-85.21
X112.005Y-74.037
X112.005Y-76.658
X112.005Y-79.3
X112.048Y-122.795
X112.048Y-126.015
X112.16Y-108.144
X112.16Y-111.293
X112.363Y-107.26
X112.47Y-67.156
X112.49Y-120.765
X112.589Y-104.705
X112.826Y-64.778
X113.54Y-91.73
X114.065Y-81.893
X114.065Y-85.185
X114.385Y-114.07
X114.385Y-116.691
X114.385Y-119.333
X114.563Y-74.037
X114.563Y-76.658
X114.563Y-79.3
X114.764Y-133.554
X115.066Y-69.411
X115.137Y-80.699
X115.457Y-128.598
X115.508Y-88.652
X115.559Y-126.198
X115.703Y-86.122
X115.742Y-121.108
X115.742Y-124.484
X116.199Y-107.245
X116.38Y-67.31
X116.542Y-63.155
X116.557Y-104.75
X116.605Y-103.8
X116.615Y-85.787
X116.633Y-82.525
X116.824Y-64.766
X116.859Y-90.59
X116.958Y-114.07
X116.958Y-116.691
X116.958Y-119.333
X116.966Y-120.661
X117.136Y-74.037
X117.136Y-76.658
X117.136Y-79.3
X117.281Y-123.732
X117.291Y-126.145
X117.84Y-83.747
X117.873Y-86.114
X117.984Y-111.128
X118.02Y-107.887
X118.17Y-88.632
X118.284Y-126.14
X118.33Y-69.411
X118.355Y-128.611
X118.538Y-80.694
X118.663Y-107.227
X118.828Y-64.763
X119.094Y-88.538
X119.163Y-126.14
X119.171Y-104.89
X119.384Y-95.599
X119.671Y-107.184
X119.691Y-109.599
X119.762Y-103.795
X119.767Y-64.738
X119.871Y-67.047
X119.874Y-63.181
X119.876Y-69.396
X120.212Y-78.718
X120.212Y-124.969
X120.24Y-90.58
X120.326Y-120.661
X120.58Y-84.245
X120.603Y-108.461
X121.072Y-67.186
X121.076Y-70.465
X121.225Y-75.835
X121.413Y-115.505
X121.472Y-110.978
X121.53Y-122.95
X121.538Y-121.492
X121.622Y-82.911
X121.66Y-70.961
X121.67Y-49.264
X122.033Y-68.705
X122.478Y-102.688
X122.615Y-95.599
X122.671Y-107.303
X122.864Y-45.088
X122.864Y-47.067
X122.871Y-67.108
X123.072Y-118.952
X123.318Y-78.718
X123.44Y-46.153
X123.489Y-124.969
X123.636Y-75.68
X123.732Y-106.046
X123.743Y-103.602
X123.768Y-64.979
X123.798Y-80.989
X123.806Y-84.245
X123.841Y-115.459
X123.844Y-121.446
X123.885Y-108.451
X123.893Y-110.959
X123.914Y-109.959
X123.951Y-122.955
X124.06Y-45.088
X124.06Y-47.067
X124.138Y-69.892
X124.156Y-70.892
X124.207Y-82.892
X124.553Y-127.628
X125.676Y-66.622
X126.267Y-113.572
X126.283Y-107.959
X126.291Y-114.459
X126.356Y-105.307
X126.369Y-122.558
X126.382Y-118.952
X126.43Y-121.039
X126.432Y-82.439
X126.45Y-73.442
X126.458Y-74.42
X126.506Y-80.976
X126.635Y-68.52
X126.721Y-67.618
X127.654Y-65.043
X127.847Y-127.623
X129.56Y-45.4
X129.62Y-49.69
X129.67Y-47.7
X129.983Y-48.713
X133.219Y-46.523
X133.224Y-41.642
X133.35Y-59.433
X133.35Y-69.433
X133.35Y-79.433
X133.35Y-89.433
X133.35Y-99.433
X133.35Y-109.433
X133.35Y-119.433
X133.35Y-129.433
X133.35Y-139.433
X133.377Y-54.537
X133.377Y-64.537
X133.377Y-74.537
X133.377Y-84.537
X133.377Y-104.537
X133.377Y-114.537
X133.377Y-124.537
X133.377Y-134.537
X133.382Y-94.507
X135.427Y-94.507
X135.45Y-48.441
X135.45Y-54.714
X135.45Y-58.441
X135.45Y-64.714
X135.45Y-68.441
X135.45Y-74.714
X135.45Y-78.441
X135.45Y-84.714
X135.45Y-88.441
X135.45Y-98.441
X135.45Y-104.714
X135.45Y-108.441
X135.45Y-114.714
X135.45Y-118.44
X135.45Y-124.714
X135.45Y-128.44
X135.45Y-134.714
X135.45Y-138.44
X135.452Y-44.684
X143.35Y-49.428
X143.35Y-59.428
X143.35Y-69.428
X143.35Y-79.428
X143.35Y-89.428
X143.35Y-99.428
X143.35Y-109.428
X143.35Y-119.428
X143.35Y-129.428
X143.35Y-139.428
X143.377Y-44.532
X143.377Y-54.532
X143.377Y-64.532
X143.377Y-74.532
X143.377Y-84.532
X143.377Y-94.532
X143.377Y-104.532
X143.377Y-114.532
X143.377Y-124.532
X143.377Y-134.532
X145.45Y-44.709
X145.45Y-48.436
X145.45Y-54.709
X145.45Y-58.436
X145.45Y-64.709
X145.45Y-68.435
X145.45Y-74.709
X145.45Y-78.435
X145.45Y-84.709
X145.45Y-88.435
X145.45Y-94.709
X145.45Y-98.435
X145.45Y-104.709
X145.45Y-108.435
X145.45Y-114.709
X145.45Y-118.435
X145.45Y-124.709
X145.45Y-128.435
X145.45Y-134.709
X145.45Y-138.435
X153.342Y-49.428
X153.342Y-59.428
X153.342Y-69.428
X153.342Y-79.428
X153.342Y-89.428
X153.342Y-99.428
X153.342Y-109.428
X153.342Y-119.428
X153.342Y-129.428
X153.342Y-139.428
X153.369Y-44.532
X153.369Y-54.532
X153.369Y-64.532
X153.369Y-74.532
X153.369Y-84.532
X153.369Y-94.532
X153.369Y-104.532
X153.369Y-114.532
X153.369Y-124.532
X153.369Y-134.532
X155.442Y-44.709
X155.442Y-48.436
X155.442Y-54.709
X155.442Y-58.436
X155.442Y-64.709
X155.442Y-68.435
X155.442Y-74.709
X155.442Y-78.435
X155.442Y-84.709
X155.442Y-88.435
X155.442Y-94.709
X155.442Y-98.435
X155.442Y-104.709
X155.442Y-108.435
X155.442Y-114.709
X155.442Y-118.435
X155.442Y-124.709
X155.442Y-128.435
X155.442Y-134.709
X155.442Y-138.435
X163.347Y-49.431
X163.347Y-59.431
X163.347Y-69.431
X163.347Y-79.431
X163.347Y-89.431
X163.347Y-99.431
X163.347Y-109.431
X163.347Y-119.43
X163.347Y-129.43
X163.347Y-139.43
X163.374Y-44.535
X163.374Y-54.535
X163.374Y-64.535
X163.374Y-74.535
X163.374Y-84.535
X163.374Y-94.535
X163.374Y-104.535
X163.374Y-114.534
X163.374Y-124.534
X163.374Y-134.534
X165.447Y-44.712
X165.447Y-48.438
X165.447Y-54.712
X165.447Y-58.438
X165.447Y-64.712
X165.447Y-68.438
X165.447Y-74.712
X165.447Y-78.438
X165.447Y-84.712
X165.447Y-88.438
X165.447Y-94.712
X165.447Y-98.438
X165.447Y-104.712
X165.447Y-108.438
X165.447Y-114.712
X165.447Y-118.438
X165.447Y-124.712
X165.447Y-128.438
X165.447Y-134.712
X165.447Y-138.438
X173.347Y-49.431
X173.347Y-59.431
X173.347Y-69.431
X173.347Y-79.431
X173.347Y-89.431
X173.347Y-99.431
X173.347Y-109.431
X173.347Y-119.43
X173.347Y-129.43
X173.347Y-139.43
X173.374Y-44.535
X173.374Y-54.535
X173.374Y-64.535
X173.374Y-74.535
X173.374Y-84.535
X173.374Y-94.535
X173.374Y-104.535
X173.374Y-114.534
X173.374Y-124.534
X173.374Y-134.534
X175.447Y-44.712
X175.447Y-48.438
X175.447Y-54.712
X175.447Y-58.438
X175.447Y-64.712
X175.447Y-68.438
X175.447Y-74.712
X175.447Y-78.438
X175.447Y-84.712
X175.447Y-88.438
X175.447Y-94.712
X175.447Y-98.438
X175.447Y-104.712
X175.447Y-108.438
X175.447Y-114.712
X175.447Y-118.438
X175.447Y-124.712
X175.447Y-128.438
X175.447Y-134.712
X175.447Y-138.438
X183.35Y-49.436
X183.35Y-59.436
X183.35Y-69.436
X183.35Y-79.436
X183.35Y-89.436
X183.35Y-99.436
X183.35Y-109.436
X183.35Y-119.436
X183.35Y-129.436
X183.35Y-139.436
X183.377Y-44.54
X183.377Y-54.54
X183.377Y-64.54
X183.377Y-74.54
X183.377Y-84.54
X183.377Y-94.54
X183.377Y-104.54
X183.377Y-114.54
X183.377Y-124.54
X183.377Y-134.54
X185.45Y-44.717
X185.45Y-48.443
X185.45Y-54.717
X185.45Y-58.443
X185.45Y-64.717
X185.45Y-68.443
X185.45Y-74.717
X185.45Y-78.443
X185.45Y-84.717
X185.45Y-88.443
X185.45Y-94.717
X185.45Y-98.443
X185.45Y-104.717
X185.45Y-108.443
X185.45Y-114.717
X185.45Y-118.443
X185.45Y-124.717
X185.45Y-128.443
X185.45Y-134.717
X185.45Y-138.443
X193.347Y-49.433
X193.347Y-59.433
X193.347Y-69.433
X193.347Y-79.433
X193.347Y-89.433
X193.347Y-99.433
X193.347Y-109.433
X193.347Y-119.433
X193.347Y-129.433
X193.347Y-139.433
X193.374Y-44.537
X193.374Y-54.537
X193.374Y-64.537
X193.374Y-74.537
X193.374Y-84.537
X193.374Y-94.537
X193.374Y-104.537
X193.374Y-114.537
X193.374Y-124.537
X193.374Y-134.537
X195.447Y-44.714
X195.447Y-48.441
X195.447Y-54.714
X195.447Y-58.441
X195.447Y-64.714
X195.447Y-68.441
X195.447Y-74.714
X195.447Y-78.441
X195.447Y-84.714
X195.447Y-88.441
X195.447Y-94.714
X195.447Y-98.441
X195.447Y-104.714
X195.447Y-108.441
X195.447Y-114.714
X195.447Y-118.44
X195.447Y-124.714
X195.447Y-128.44
X195.447Y-134.714
X195.447Y-138.44
X203.347Y-49.433
X203.347Y-59.433
X203.347Y-69.433
X203.347Y-79.433
X203.347Y-89.433
X203.347Y-99.433
X203.347Y-109.433
X203.347Y-119.433
X203.347Y-129.433
X203.347Y-139.433
X203.374Y-44.537
X203.374Y-54.537
X203.374Y-64.537
X203.374Y-74.537
X203.374Y-84.537
X203.374Y-94.537
X203.374Y-104.537
X203.374Y-114.537
X203.374Y-124.537
X203.374Y-134.537
X205.447Y-44.714
X205.447Y-48.441
X205.447Y-54.714
X205.447Y-58.441
X205.447Y-64.714
X205.447Y-68.441
X205.447Y-74.714
X205.447Y-78.441
X205.447Y-84.714
X205.447Y-88.441
X205.447Y-94.714
X205.447Y-98.441
X205.447Y-104.714
X205.447Y-108.441
X205.447Y-114.714
X205.447Y-118.44
X205.447Y-124.714
X205.447Y-128.44
X205.447Y-134.714
X205.447Y-138.44
X213.347Y-49.433
X213.347Y-59.433
X213.347Y-69.433
X213.347Y-79.433
X213.347Y-89.433
X213.347Y-99.433
X213.347Y-109.433
X213.347Y-119.433
X213.347Y-129.433
X213.347Y-139.433
X213.374Y-44.537
X213.374Y-54.537
X213.374Y-64.537
X213.374Y-74.537
X213.374Y-84.537
X213.374Y-94.537
X213.374Y-104.537
X213.374Y-114.537
X213.374Y-124.537
X213.374Y-134.537
X215.447Y-44.714
X215.447Y-48.441
X215.447Y-54.714
X215.447Y-58.441
X215.447Y-64.714
X215.447Y-68.441
X215.447Y-74.714
X215.447Y-78.441
X215.447Y-84.714
X215.447Y-88.441
X215.447Y-94.714
X215.447Y-98.441
X215.447Y-104.714
X215.447Y-108.441
X215.447Y-114.714
X215.447Y-118.44
X215.447Y-124.714
X215.447Y-128.44
X215.447Y-134.714
X215.447Y-138.44
X223.345Y-49.431
X223.345Y-59.431
X223.345Y-69.431
X223.345Y-79.431
X223.345Y-89.431
X223.345Y-99.431
X223.345Y-109.431
X223.345Y-119.43
X223.345Y-129.43
X223.345Y-139.43
X223.372Y-44.535
X223.372Y-54.535
X223.372Y-64.535
X223.372Y-74.535
X223.372Y-84.535
X223.372Y-94.535
X223.372Y-104.535
X223.372Y-114.534
X223.372Y-124.534
X223.372Y-134.534
X225.445Y-44.712
X225.445Y-48.438
X225.445Y-54.712
X225.445Y-58.438
X225.445Y-64.712
X225.445Y-68.438
X225.445Y-74.712
X225.445Y-78.438
X225.445Y-84.712
X225.445Y-88.438
X225.445Y-94.712
X225.445Y-98.438
X225.445Y-104.712
X225.445Y-108.438
X225.445Y-114.712
X225.445Y-118.438
X225.445Y-124.712
X225.445Y-128.438
X225.445Y-134.712
X225.445Y-138.438
T3
X66.204Y-68.879
X66.204Y-70.129
X66.204Y-71.379
X66.204Y-72.629
X66.204Y-73.879
X66.204Y-75.129
X66.204Y-80.298
X66.204Y-81.548
X66.204Y-82.798
X66.204Y-84.048
X66.204Y-85.298
X66.204Y-86.548
X66.204Y-91.717
X66.204Y-92.967
X66.204Y-94.217
X66.204Y-95.467
X66.204Y-96.717
X66.204Y-97.967
X66.204Y-103.136
X66.204Y-104.386
X66.204Y-105.636
X66.204Y-106.886
X66.204Y-108.136
X66.204Y-109.386
X66.212Y-123.811
X66.212Y-125.061
X66.212Y-126.311
X66.212Y-127.561
X66.212Y-128.811
X66.212Y-130.061
X66.212Y-131.311
X66.212Y-132.561
T4
X63.123Y-40.994
X63.123Y-43.564
X63.131Y-39.457
X63.133Y-45.045
X71.005Y-37.138
X71.005Y-39.853
X71.005Y-42.569
X71.005Y-45.284
X71.005Y-47.999
X71.005Y-50.714
X71.005Y-53.43
X74.594Y-56.879
X74.705Y-61.207
X75.442Y-98.027
X75.704Y-77.707
X75.765Y-33.663
X75.765Y-36.257
X75.828Y-39.071
X76.387Y-56.894
X76.816Y-101.959
X77.078Y-81.639
X77.832Y-67.659
X77.84Y-65.998
X77.959Y-98.042
X78.089Y-56.882
X78.193Y-77.725
X78.26Y-33.663
X78.26Y-36.257
X78.324Y-39.071
X78.495Y-64.194
X78.688Y-60.697
X78.688Y-62.15
X80.458Y-108.583
X80.466Y-106.922
X80.497Y-105.192
X80.517Y-98.027
X80.687Y-88.378
X80.695Y-86.716
X80.725Y-84.987
X80.756Y-33.663
X80.756Y-36.257
X80.778Y-77.707
X80.819Y-39.071
X80.9Y-61.57
X80.905Y-55.406
X80.939Y-53.712
X81.116Y-101.842
X81.116Y-103.295
X81.378Y-81.522
X81.378Y-82.975
X82.419Y-63.082
X82.452Y-61.522
X82.836Y-49.213
X82.887Y-65.134
X83.166Y-55.406
X83.181Y-53.745
X83.938Y-61.527
X84.087Y-33.529
X84.087Y-36.122
X84.15Y-38.936
X86.582Y-33.529
X86.582Y-36.122
X86.646Y-38.936
X87.322Y-49.213
X87.413Y-82.228
X87.586Y-102.548
X88.035Y-89.848
X88.142Y-97.415
X88.175Y-112.708
X88.195Y-110.168
X88.198Y-107.598
X89.103Y-38.924
X89.103Y-41.517
X89.167Y-44.331
X91.139Y-56.343
X91.599Y-38.924
X91.599Y-41.517
X91.662Y-44.331
X92.803Y-56.343
X92.826Y-110.168
X92.846Y-112.708
X92.907Y-77.148
X92.95Y-72.068
X93.943Y-62.63
X93.959Y-64.258
X94.122Y-33.475
X94.122Y-36.069
X94.186Y-38.883
X94.401Y-56.343
X96.046Y-56.376
X96.46Y-62.604
X96.476Y-64.232
X96.618Y-33.475
X96.618Y-36.069
X96.681Y-38.883
X98.87Y-33.475
X98.87Y-36.069
X98.933Y-38.883
X99.514Y-51.957
X99.514Y-53.795
X99.514Y-55.634
X99.514Y-57.476
X101.365Y-33.475
X101.365Y-36.069
X101.429Y-38.883
X103.642Y-33.448
X103.642Y-36.041
X103.706Y-38.855
X105.681Y-56.871
X105.698Y-52.127
X105.698Y-53.735
X105.698Y-55.264
X105.95Y-44.494
X105.97Y-42.83
X106.138Y-33.448
X106.138Y-36.041
X106.201Y-38.855
X107.636Y-44.494
X107.654Y-42.81
X108.443Y-33.422
X108.443Y-36.015
X108.506Y-38.83
X110.938Y-33.422
X110.938Y-36.015
X111.002Y-38.83
X113.571Y-33.364
X113.571Y-35.957
X113.635Y-38.771
X116.067Y-33.364
X116.067Y-35.957
X116.13Y-38.771
X118.972Y-49.772
X118.995Y-51.537
X119.018Y-53.42
X119.018Y-55.279
X125.201Y-50.1
X125.213Y-51.781
X125.213Y-53.475
X125.241Y-55.038
X125.378Y-40.252
X125.378Y-42.132
X127.141Y-40.234
X127.179Y-42.17
X136.0Y-41.7
X136.0Y-51.7
X136.0Y-61.7
X136.0Y-71.7
X136.0Y-81.7
X136.0Y-91.7
X136.0Y-101.7
X136.0Y-111.7
X136.0Y-121.7
X136.0Y-131.7
X138.51Y-45.373
X138.51Y-50.625
X138.51Y-55.373
X138.51Y-60.625
X138.51Y-65.373
X138.51Y-70.625
X138.51Y-75.373
X138.51Y-80.625
X138.51Y-85.373
X138.51Y-90.625
X138.51Y-95.373
X138.51Y-100.625
X138.51Y-105.373
X138.51Y-110.625
X138.51Y-115.373
X138.51Y-120.625
X138.51Y-125.373
X138.51Y-130.625
X138.51Y-135.373
X138.51Y-140.625
X141.0Y-41.7
X141.0Y-51.7
X141.0Y-61.7
X141.0Y-71.7
X141.0Y-81.7
X141.0Y-91.7
X141.0Y-101.7
X141.0Y-111.7
X141.0Y-121.7
X141.0Y-131.7
X146.0Y-41.7
X146.0Y-51.7
X146.0Y-61.7
X146.0Y-71.7
X146.0Y-81.7
X146.0Y-91.7
X146.0Y-101.7
X146.0Y-111.7
X146.0Y-121.7
X146.0Y-131.7
X148.512Y-45.373
X148.512Y-50.625
X148.512Y-55.373
X148.512Y-60.625
X148.512Y-65.373
X148.512Y-70.625
X148.512Y-75.373
X148.512Y-80.625
X148.512Y-85.373
X148.512Y-90.625
X148.512Y-95.373
X148.512Y-100.625
X148.512Y-105.373
X148.512Y-110.625
X148.512Y-115.373
X148.512Y-120.625
X148.512Y-125.373
X148.512Y-130.625
X148.512Y-135.373
X148.512Y-140.625
X151.0Y-41.7
X151.0Y-51.7
X151.0Y-61.7
X151.0Y-71.7
X151.0Y-81.7
X151.0Y-91.7
X151.0Y-101.7
X151.0Y-111.7
X151.0Y-121.7
X151.0Y-131.7
X156.0Y-41.7
X156.0Y-51.7
X156.0Y-61.7
X156.0Y-71.7
X156.0Y-81.7
X156.0Y-91.7
X156.0Y-101.7
X156.0Y-111.7
X156.0Y-121.7
X156.0Y-131.7
X158.51Y-45.371
X158.51Y-50.623
X158.51Y-55.371
X158.51Y-60.623
X158.51Y-65.37
X158.51Y-70.623
X158.51Y-75.37
X158.51Y-80.623
X158.51Y-85.37
X158.51Y-90.623
X158.51Y-95.37
X158.51Y-100.623
X158.51Y-105.37
X158.51Y-110.623
X158.51Y-115.37
X158.51Y-120.623
X158.51Y-125.37
X158.51Y-130.623
X158.51Y-135.37
X158.51Y-140.623
X161.0Y-41.7
X161.0Y-51.7
X161.0Y-61.7
X161.0Y-71.7
X161.0Y-81.7
X161.0Y-91.7
X161.0Y-101.7
X161.0Y-111.7
X161.0Y-121.7
X161.0Y-131.7
X166.0Y-41.7
X166.0Y-51.7
X166.0Y-61.7
X166.0Y-71.7
X166.0Y-81.7
X166.0Y-91.7
X166.0Y-101.7
X166.0Y-111.7
X166.0Y-121.7
X166.0Y-131.7
X168.51Y-45.373
X168.51Y-50.625
X168.51Y-55.373
X168.51Y-60.625
X168.51Y-65.373
X168.51Y-70.625
X168.51Y-75.373
X168.51Y-80.625
X168.51Y-85.373
X168.51Y-90.625
X168.51Y-95.373
X168.51Y-100.625
X168.51Y-105.373
X168.51Y-110.625
X168.51Y-115.373
X168.51Y-120.625
X168.51Y-125.373
X168.51Y-130.625
X168.51Y-140.625
X168.566Y-135.497
X171.0Y-41.7
X171.0Y-51.7
X171.0Y-61.7
X171.0Y-71.7
X171.0Y-81.7
X171.0Y-91.7
X171.0Y-101.7
X171.0Y-111.7
X171.0Y-121.7
X171.0Y-131.7
X176.0Y-41.7
X176.0Y-51.7
X176.0Y-61.7
X176.0Y-71.7
X176.0Y-81.7
X176.0Y-91.7
X176.0Y-101.7
X176.0Y-111.7
X176.0Y-121.7
X176.0Y-131.7
X178.51Y-45.368
X178.51Y-50.62
X178.51Y-55.368
X178.51Y-60.62
X178.51Y-65.368
X178.51Y-70.62
X178.51Y-75.368
X178.51Y-80.62
X178.51Y-85.368
X178.51Y-90.62
X178.51Y-95.368
X178.51Y-100.62
X178.51Y-105.368
X178.51Y-110.62
X178.51Y-115.368
X178.51Y-120.62
X178.51Y-125.368
X178.51Y-130.62
X178.51Y-140.62
X178.543Y-135.642
X181.0Y-41.7
X181.0Y-51.7
X181.0Y-61.7
X181.0Y-71.7
X181.0Y-81.7
X181.0Y-91.7
X181.0Y-101.7
X181.0Y-111.7
X181.0Y-121.7
X181.0Y-131.7
X186.0Y-41.7
X186.0Y-51.7
X186.0Y-61.7
X186.0Y-71.7
X186.0Y-81.7
X186.0Y-91.7
X186.0Y-101.7
X186.0Y-111.7
X186.0Y-121.7
X186.0Y-131.7
X188.51Y-45.373
X188.51Y-50.625
X188.51Y-55.373
X188.51Y-60.625
X188.51Y-65.373
X188.51Y-70.625
X188.51Y-75.373
X188.51Y-80.625
X188.51Y-85.373
X188.51Y-90.625
X188.51Y-95.373
X188.51Y-100.625
X188.51Y-105.373
X188.51Y-110.625
X188.51Y-115.373
X188.51Y-120.625
X188.51Y-125.373
X188.51Y-130.625
X188.51Y-140.625
X188.518Y-135.528
X191.0Y-41.7
X191.0Y-51.7
X191.0Y-61.7
X191.0Y-71.7
X191.0Y-81.7
X191.0Y-91.7
X191.0Y-101.7
X191.0Y-111.7
X191.0Y-121.7
X191.0Y-131.7
X196.0Y-41.7
X196.0Y-51.7
X196.0Y-61.7
X196.0Y-71.7
X196.0Y-81.7
X196.0Y-91.7
X196.0Y-101.7
X196.0Y-111.7
X196.0Y-121.7
X196.0Y-131.7
X198.512Y-45.371
X198.512Y-50.623
X198.512Y-55.371
X198.512Y-60.623
X198.512Y-65.37
X198.512Y-70.623
X198.512Y-75.37
X198.512Y-80.623
X198.512Y-85.37
X198.512Y-90.623
X198.512Y-95.37
X198.512Y-100.623
X198.512Y-105.37
X198.512Y-110.623
X198.512Y-115.37
X198.512Y-120.623
X198.512Y-125.37
X198.512Y-130.623
X198.512Y-135.37
X198.512Y-140.623
X201.0Y-41.7
X201.0Y-51.7
X201.0Y-61.7
X201.0Y-71.7
X201.0Y-81.7
X201.0Y-91.7
X201.0Y-101.7
X201.0Y-111.7
X201.0Y-121.7
X201.0Y-131.7
X206.0Y-41.7
X206.0Y-51.7
X206.0Y-61.7
X206.0Y-71.7
X206.0Y-81.7
X206.0Y-91.7
X206.0Y-101.7
X206.0Y-111.7
X206.0Y-121.7
X206.0Y-131.7
X208.512Y-45.368
X208.512Y-50.62
X208.512Y-55.368
X208.512Y-60.62
X208.512Y-65.368
X208.512Y-70.62
X208.512Y-75.368
X208.512Y-80.62
X208.512Y-85.368
X208.512Y-90.62
X208.512Y-95.368
X208.512Y-100.62
X208.512Y-105.368
X208.512Y-110.62
X208.512Y-115.368
X208.512Y-120.62
X208.512Y-125.368
X208.512Y-130.62
X208.512Y-135.368
X208.512Y-140.62
X211.0Y-41.7
X211.0Y-51.7
X211.0Y-61.7
X211.0Y-71.7
X211.0Y-81.7
X211.0Y-91.7
X211.0Y-101.7
X211.0Y-111.7
X211.0Y-121.7
X211.0Y-131.7
X216.0Y-41.7
X216.0Y-51.7
X216.0Y-61.7
X216.0Y-71.7
X216.0Y-81.7
X216.0Y-91.7
X216.0Y-101.7
X216.0Y-111.7
X216.0Y-121.7
X216.0Y-131.7
X218.51Y-45.368
X218.51Y-50.62
X218.51Y-55.368
X218.51Y-60.62
X218.51Y-65.368
X218.51Y-70.62
X218.51Y-75.368
X218.51Y-80.62
X218.51Y-85.368
X218.51Y-90.62
X218.51Y-95.368
X218.51Y-100.62
X218.51Y-105.368
X218.51Y-110.62
X218.51Y-115.368
X218.51Y-120.62
X218.51Y-125.368
X218.51Y-130.62
X218.51Y-135.368
X218.51Y-140.62
X221.0Y-41.7
X221.0Y-51.7
X221.0Y-61.7
X221.0Y-71.7
X221.0Y-81.7
X221.0Y-91.7
X221.0Y-101.7
X221.0Y-111.7
X221.0Y-121.7
X221.0Y-131.7
X226.0Y-41.7
X226.0Y-51.7
X226.0Y-61.7
X226.0Y-71.7
X226.0Y-81.7
X226.0Y-91.7
X226.0Y-101.7
X226.0Y-111.7
X226.0Y-121.7
X226.0Y-131.7
X228.51Y-45.373
X228.51Y-50.625
X228.51Y-55.373
X228.51Y-60.625
X228.51Y-65.373
X228.51Y-70.625
X228.51Y-75.373
X228.51Y-80.625
X228.51Y-85.373
X228.51Y-90.625
X228.51Y-95.373
X228.51Y-100.625
X228.51Y-105.373
X228.51Y-110.625
X228.51Y-115.373
X228.51Y-120.625
X228.51Y-125.373
X228.51Y-130.625
X228.51Y-135.373
X228.51Y-140.625
X231.0Y-41.7
X231.0Y-51.7
X231.0Y-61.7
X231.0Y-71.7
X231.0Y-81.7
X231.0Y-91.7
X231.0Y-101.7
X231.0Y-111.7
X231.0Y-121.7
X231.0Y-131.7
T5
X74.464Y-49.754
X74.464Y-52.294
X85.833Y-135.675
X85.833Y-138.215
X88.373Y-135.675
X88.373Y-138.215
X90.913Y-135.675
X90.913Y-138.215
X93.453Y-135.675
X93.453Y-138.215
X95.993Y-135.675
X95.993Y-138.215
T6
X64.5Y-34.7
X64.5Y-138.7
X126.5Y-34.7
X126.5Y-138.7
X235.5Y-34.7
X235.5Y-138.7
T7
X64.797Y-59.55
X64.797Y-117.55
T0
M30
